<ttFont>
<head>
    <!-- Most of this table will be recalculated by the compiler -->
    <tableVersion value="1.0"/>
    <fontRevision value="1.0"/>
    <checkSumAdjustment value="0xe8d4e0dc"/>
    <magicNumber value="0x5f0f3cf5"/>
    <flags value="00000000 00001011"/>
    <unitsPerEm value="1000"/>
    <created value="Tue May 30 20:14:57 2017"/>
    <modified value="Tue May 30 20:14:57 2017"/>
    <xMin value="-337"/>
    <yMin value="-339"/>
    <xMax value="1281"/>
    <yMax value="925"/>
    <macStyle value="00000000 00000000"/>
    <lowestRecPPEM value="8"/>
    <fontDirectionHint value="2"/>
    <indexToLocFormat value="0"/>
    <glyphDataFormat value="0"/>
  </head>
    <TTGlyph name=".notdef" xMin="43" yMin="0" xMax="443" yMax="660">
      <contour>
        <pt x="43" y="0" on="1"/>
        <pt x="43" y="660" on="1"/>
        <pt x="443" y="660" on="1"/>
        <pt x="443" y="0" on="1"/>
      </contour>
      <contour>
        <pt x="123" y="80" on="1"/>
        <pt x="363" y="80" on="1"/>
        <pt x="363" y="580" on="1"/>
        <pt x="123" y="580" on="1"/>
      </contour>
    </TTGlyph>
    <TTGlyph name="A" xMin="12" yMin="0" xMax="641" yMax="660">
      <contour>
        <pt x="518" y="0" on="1"/>
        <pt x="471" y="134" on="1"/>
        <pt x="180" y="134" on="1"/>
        <pt x="133" y="0" on="1"/>
        <pt x="12" y="0" on="1"/>
        <pt x="255" y="660" on="1"/>
        <pt x="399" y="660" on="1"/>
        <pt x="641" y="0" on="1"/>
      </contour>
      <contour>
        <pt x="216" y="237" on="1"/>
        <pt x="435" y="237" on="1"/>
        <pt x="356" y="462" on="1"/>
        <pt x="326" y="559" on="1"/>
        <pt x="324" y="559" on="1"/>
        <pt x="296" y="464" on="1"/>
      </contour>
    </TTGlyph>
    <TTGlyph name="A.swsh" xMin="-33" yMin="-110" xMax="859" yMax="660">
      <contour>
        <pt x="734" y="0" on="1"/>
        <pt x="698" y="100" on="1"/>
        <pt x="379" y="100" on="1"/>
        <pt x="363" y="58" on="1"/>
        <pt x="334" y="-27" on="0"/>
        <pt x="229" y="-110" on="0"/>
        <pt x="141" y="-110" on="1"/>
        <pt x="67" y="-110" on="0"/>
        <pt x="-24" y="-51" on="0"/>
        <pt x="-33" y="4" on="1"/>
        <pt x="24" y="76" on="1"/>
        <pt x="36" y="24" on="0"/>
        <pt x="88" y="-14" on="0"/>
        <pt x="184" y="-14" on="0"/>
        <pt x="238" y="41" on="0"/>
        <pt x="267" y="118" on="1"/>
        <pt x="436" y="568" on="1"/>
        <pt x="309" y="568" on="1"/>
        <pt x="250" y="568" on="0"/>
        <pt x="185" y="516" on="0"/>
        <pt x="185" y="467" on="1"/>
        <pt x="185" y="427" on="0"/>
        <pt x="240" y="372" on="0"/>
        <pt x="286" y="365" on="1"/>
        <pt x="246" y="278" on="1"/>
        <pt x="171" y="287" on="0"/>
        <pt x="72" y="390" on="0"/>
        <pt x="72" y="469" on="1"/>
        <pt x="72" y="559" on="0"/>
        <pt x="190" y="660" on="0"/>
        <pt x="296" y="660" on="1"/>
        <pt x="520" y="660" on="1"/>
        <pt x="614" y="660" on="1"/>
        <pt x="859" y="0" on="1"/>
      </contour>
      <contour>
        <pt x="413" y="194" on="1"/>
        <pt x="666" y="194" on="1"/>
        <pt x="572" y="462" on="1"/>
        <pt x="542" y="559" on="1"/>
        <pt x="539" y="559" on="1"/>
        <pt x="511" y="464" on="1"/>
      </contour>
    </TTGlyph>
    <TTGlyph name="AE" xMin="-6" yMin="0" xMax="891" yMax="660">
      <contour>
        <pt x="546" y="98" on="1"/>
        <pt x="891" y="98" on="1"/>
        <pt x="891" y="0" on="1"/>
        <pt x="485" y="0" on="1"/>
        <pt x="430" y="0" on="1"/>
        <pt x="430" y="206" on="1"/>
        <pt x="220" y="206" on="1"/>
        <pt x="119" y="0" on="1"/>
        <pt x="-6" y="0" on="1"/>
        <pt x="335" y="660" on="1"/>
        <pt x="430" y="660" on="1"/>
        <pt x="546" y="660" on="1"/>
        <pt x="877" y="660" on="1"/>
        <pt x="877" y="562" on="1"/>
        <pt x="546" y="562" on="1"/>
        <pt x="546" y="380" on="1"/>
        <pt x="798" y="380" on="1"/>
        <pt x="798" y="286" on="1"/>
        <pt x="546" y="286" on="1"/>
      </contour>
      <contour>
        <pt x="264" y="297" on="1"/>
        <pt x="430" y="297" on="1"/>
        <pt x="430" y="564" on="1"/>
        <pt x="395" y="564" on="1"/>
      </contour>
    </TTGlyph>
    <TTGlyph name="Aacute" xMin="12" yMin="0" xMax="641" yMax="887">
      <contour>
        <pt x="441" y="887" on="1"/>
        <pt x="378" y="734" on="1"/>
        <pt x="272" y="734" on="1"/>
        <pt x="328" y="887" on="1"/>
      </contour>
      <contour>
        <pt x="518" y="0" on="1"/>
        <pt x="471" y="134" on="1"/>
        <pt x="180" y="134" on="1"/>
        <pt x="133" y="0" on="1"/>
        <pt x="12" y="0" on="1"/>
        <pt x="255" y="660" on="1"/>
        <pt x="399" y="660" on="1"/>
        <pt x="641" y="0" on="1"/>
      </contour>
      <contour>
        <pt x="216" y="237" on="1"/>
        <pt x="435" y="237" on="1"/>
        <pt x="356" y="462" on="1"/>
        <pt x="326" y="559" on="1"/>
        <pt x="324" y="559" on="1"/>
        <pt x="296" y="464" on="1"/>
      </contour>
    </TTGlyph>
    <TTGlyph name="Aacute.swsh" xMin="-33" yMin="-110" xMax="859" yMax="887">
      <contour>
        <pt x="656" y="887" on="1"/>
        <pt x="593" y="734" on="1"/>
        <pt x="487" y="734" on="1"/>
        <pt x="543" y="887" on="1"/>
      </contour>
      <contour>
        <pt x="734" y="0" on="1"/>
        <pt x="698" y="100" on="1"/>
        <pt x="379" y="100" on="1"/>
        <pt x="363" y="58" on="1"/>
        <pt x="334" y="-27" on="0"/>
        <pt x="229" y="-110" on="0"/>
        <pt x="141" y="-110" on="1"/>
        <pt x="67" y="-110" on="0"/>
        <pt x="-24" y="-51" on="0"/>
        <pt x="-33" y="4" on="1"/>
        <pt x="24" y="76" on="1"/>
        <pt x="36" y="24" on="0"/>
        <pt x="88" y="-14" on="0"/>
        <pt x="184" y="-14" on="0"/>
        <pt x="238" y="41" on="0"/>
        <pt x="267" y="118" on="1"/>
        <pt x="436" y="568" on="1"/>
        <pt x="309" y="568" on="1"/>
        <pt x="250" y="568" on="0"/>
        <pt x="185" y="516" on="0"/>
        <pt x="185" y="467" on="1"/>
        <pt x="185" y="427" on="0"/>
        <pt x="240" y="372" on="0"/>
        <pt x="286" y="365" on="1"/>
        <pt x="246" y="278" on="1"/>
        <pt x="171" y="287" on="0"/>
        <pt x="72" y="390" on="0"/>
        <pt x="72" y="469" on="1"/>
        <pt x="72" y="559" on="0"/>
        <pt x="190" y="660" on="0"/>
        <pt x="296" y="660" on="1"/>
        <pt x="520" y="660" on="1"/>
        <pt x="614" y="660" on="1"/>
        <pt x="859" y="0" on="1"/>
      </contour>
      <contour>
        <pt x="413" y="194" on="1"/>
        <pt x="666" y="194" on="1"/>
        <pt x="572" y="462" on="1"/>
        <pt x="542" y="559" on="1"/>
        <pt x="539" y="559" on="1"/>
        <pt x="511" y="464" on="1"/>
      </contour>
    </TTGlyph>
    <TTGlyph name="Abreve" xMin="12" yMin="0" xMax="641" yMax="882">
      <contour>
        <pt x="327" y="727" on="1"/>
        <pt x="255" y="727" on="0"/>
        <pt x="169" y="811" on="0"/>
        <pt x="169" y="882" on="1"/>
        <pt x="255" y="882" on="1"/>
        <pt x="255" y="848" on="0"/>
        <pt x="295" y="803" on="0"/>
        <pt x="327" y="803" on="1"/>
        <pt x="358" y="803" on="0"/>
        <pt x="399" y="849" on="0"/>
        <pt x="399" y="882" on="1"/>
        <pt x="484" y="882" on="1"/>
        <pt x="484" y="812" on="0"/>
        <pt x="398" y="727" on="0"/>
      </contour>
      <contour>
        <pt x="518" y="0" on="1"/>
        <pt x="471" y="134" on="1"/>
        <pt x="180" y="134" on="1"/>
        <pt x="133" y="0" on="1"/>
        <pt x="12" y="0" on="1"/>
        <pt x="255" y="660" on="1"/>
        <pt x="399" y="660" on="1"/>
        <pt x="641" y="0" on="1"/>
      </contour>
      <contour>
        <pt x="216" y="237" on="1"/>
        <pt x="435" y="237" on="1"/>
        <pt x="356" y="462" on="1"/>
        <pt x="326" y="559" on="1"/>
        <pt x="324" y="559" on="1"/>
        <pt x="296" y="464" on="1"/>
      </contour>
    </TTGlyph>
    <TTGlyph name="Abreve.swsh" xMin="-33" yMin="-110" xMax="859" yMax="882">
      <contour>
        <pt x="542" y="727" on="1"/>
        <pt x="470" y="727" on="0"/>
        <pt x="384" y="811" on="0"/>
        <pt x="384" y="882" on="1"/>
        <pt x="470" y="882" on="1"/>
        <pt x="470" y="848" on="0"/>
        <pt x="510" y="803" on="0"/>
        <pt x="542" y="803" on="1"/>
        <pt x="573" y="803" on="0"/>
        <pt x="614" y="849" on="0"/>
        <pt x="614" y="882" on="1"/>
        <pt x="699" y="882" on="1"/>
        <pt x="699" y="812" on="0"/>
        <pt x="613" y="727" on="0"/>
      </contour>
      <contour>
        <pt x="734" y="0" on="1"/>
        <pt x="698" y="100" on="1"/>
        <pt x="379" y="100" on="1"/>
        <pt x="363" y="58" on="1"/>
        <pt x="334" y="-27" on="0"/>
        <pt x="229" y="-110" on="0"/>
        <pt x="141" y="-110" on="1"/>
        <pt x="67" y="-110" on="0"/>
        <pt x="-24" y="-51" on="0"/>
        <pt x="-33" y="4" on="1"/>
        <pt x="24" y="76" on="1"/>
        <pt x="36" y="24" on="0"/>
        <pt x="88" y="-14" on="0"/>
        <pt x="184" y="-14" on="0"/>
        <pt x="238" y="41" on="0"/>
        <pt x="267" y="118" on="1"/>
        <pt x="436" y="568" on="1"/>
        <pt x="309" y="568" on="1"/>
        <pt x="250" y="568" on="0"/>
        <pt x="185" y="516" on="0"/>
        <pt x="185" y="467" on="1"/>
        <pt x="185" y="427" on="0"/>
        <pt x="240" y="372" on="0"/>
        <pt x="286" y="365" on="1"/>
        <pt x="246" y="278" on="1"/>
        <pt x="171" y="287" on="0"/>
        <pt x="72" y="390" on="0"/>
        <pt x="72" y="469" on="1"/>
        <pt x="72" y="559" on="0"/>
        <pt x="190" y="660" on="0"/>
        <pt x="296" y="660" on="1"/>
        <pt x="520" y="660" on="1"/>
        <pt x="614" y="660" on="1"/>
        <pt x="859" y="0" on="1"/>
      </contour>
      <contour>
        <pt x="413" y="194" on="1"/>
        <pt x="666" y="194" on="1"/>
        <pt x="572" y="462" on="1"/>
        <pt x="542" y="559" on="1"/>
        <pt x="539" y="559" on="1"/>
        <pt x="511" y="464" on="1"/>
      </contour>
    </TTGlyph>
    <TTGlyph name="Acircumflex" xMin="12" yMin="0" xMax="641" yMax="896">
      <contour>
        <pt x="327" y="831" on="1"/>
        <pt x="252" y="729" on="1"/>
        <pt x="153" y="729" on="1"/>
        <pt x="265" y="896" on="1"/>
        <pt x="388" y="896" on="1"/>
        <pt x="501" y="729" on="1"/>
        <pt x="401" y="729" on="1"/>
      </contour>
      <contour>
        <pt x="518" y="0" on="1"/>
        <pt x="471" y="134" on="1"/>
        <pt x="180" y="134" on="1"/>
        <pt x="133" y="0" on="1"/>
        <pt x="12" y="0" on="1"/>
        <pt x="255" y="660" on="1"/>
        <pt x="399" y="660" on="1"/>
        <pt x="641" y="0" on="1"/>
      </contour>
      <contour>
        <pt x="216" y="237" on="1"/>
        <pt x="435" y="237" on="1"/>
        <pt x="356" y="462" on="1"/>
        <pt x="326" y="559" on="1"/>
        <pt x="324" y="559" on="1"/>
        <pt x="296" y="464" on="1"/>
      </contour>
    </TTGlyph>
    <TTGlyph name="Acircumflex.swsh" xMin="-33" yMin="-110" xMax="859" yMax="896">
      <contour>
        <pt x="542" y="831" on="1"/>
        <pt x="467" y="729" on="1"/>
        <pt x="368" y="729" on="1"/>
        <pt x="480" y="896" on="1"/>
        <pt x="603" y="896" on="1"/>
        <pt x="716" y="729" on="1"/>
        <pt x="616" y="729" on="1"/>
      </contour>
      <contour>
        <pt x="734" y="0" on="1"/>
        <pt x="698" y="100" on="1"/>
        <pt x="379" y="100" on="1"/>
        <pt x="363" y="58" on="1"/>
        <pt x="334" y="-27" on="0"/>
        <pt x="229" y="-110" on="0"/>
        <pt x="141" y="-110" on="1"/>
        <pt x="67" y="-110" on="0"/>
        <pt x="-24" y="-51" on="0"/>
        <pt x="-33" y="4" on="1"/>
        <pt x="24" y="76" on="1"/>
        <pt x="36" y="24" on="0"/>
        <pt x="88" y="-14" on="0"/>
        <pt x="184" y="-14" on="0"/>
        <pt x="238" y="41" on="0"/>
        <pt x="267" y="118" on="1"/>
        <pt x="436" y="568" on="1"/>
        <pt x="309" y="568" on="1"/>
        <pt x="250" y="568" on="0"/>
        <pt x="185" y="516" on="0"/>
        <pt x="185" y="467" on="1"/>
        <pt x="185" y="427" on="0"/>
        <pt x="240" y="372" on="0"/>
        <pt x="286" y="365" on="1"/>
        <pt x="246" y="278" on="1"/>
        <pt x="171" y="287" on="0"/>
        <pt x="72" y="390" on="0"/>
        <pt x="72" y="469" on="1"/>
        <pt x="72" y="559" on="0"/>
        <pt x="190" y="660" on="0"/>
        <pt x="296" y="660" on="1"/>
        <pt x="520" y="660" on="1"/>
        <pt x="614" y="660" on="1"/>
        <pt x="859" y="0" on="1"/>
      </contour>
      <contour>
        <pt x="413" y="194" on="1"/>
        <pt x="666" y="194" on="1"/>
        <pt x="572" y="462" on="1"/>
        <pt x="542" y="559" on="1"/>
        <pt x="539" y="559" on="1"/>
        <pt x="511" y="464" on="1"/>
      </contour>
    </TTGlyph>
    <TTGlyph name="Adieresis" xMin="12" yMin="0" xMax="641" yMax="868">
      <contour>
        <pt x="224" y="730" on="1"/>
        <pt x="196" y="730" on="0"/>
        <pt x="155" y="770" on="0"/>
        <pt x="155" y="828" on="0"/>
        <pt x="196" y="868" on="0"/>
        <pt x="224" y="868" on="1"/>
        <pt x="253" y="868" on="0"/>
        <pt x="294" y="827" on="0"/>
        <pt x="294" y="771" on="0"/>
        <pt x="253" y="730" on="0"/>
      </contour>
      <contour>
        <pt x="458" y="730" on="0"/>
        <pt x="400" y="730" on="0"/>
        <pt x="360" y="770" on="0"/>
        <pt x="360" y="828" on="0"/>
        <pt x="400" y="868" on="0"/>
        <pt x="458" y="868" on="0"/>
        <pt x="498" y="828" on="0"/>
        <pt x="498" y="770" on="0"/>
      </contour>
      <contour>
        <pt x="518" y="0" on="1"/>
        <pt x="471" y="134" on="1"/>
        <pt x="180" y="134" on="1"/>
        <pt x="133" y="0" on="1"/>
        <pt x="12" y="0" on="1"/>
        <pt x="255" y="660" on="1"/>
        <pt x="399" y="660" on="1"/>
        <pt x="641" y="0" on="1"/>
      </contour>
      <contour>
        <pt x="216" y="237" on="1"/>
        <pt x="435" y="237" on="1"/>
        <pt x="356" y="462" on="1"/>
        <pt x="326" y="559" on="1"/>
        <pt x="324" y="559" on="1"/>
        <pt x="296" y="464" on="1"/>
      </contour>
    </TTGlyph>
    <TTGlyph name="Adieresis.swsh" xMin="-33" yMin="-110" xMax="859" yMax="868">
      <contour>
        <pt x="468" y="730" on="0"/>
        <pt x="410" y="730" on="0"/>
        <pt x="370" y="770" on="0"/>
        <pt x="370" y="828" on="0"/>
        <pt x="410" y="868" on="0"/>
        <pt x="468" y="868" on="0"/>
        <pt x="509" y="827" on="0"/>
        <pt x="509" y="771" on="0"/>
      </contour>
      <contour>
        <pt x="672" y="730" on="0"/>
        <pt x="616" y="730" on="0"/>
        <pt x="575" y="770" on="0"/>
        <pt x="575" y="828" on="0"/>
        <pt x="616" y="868" on="0"/>
        <pt x="672" y="868" on="0"/>
        <pt x="713" y="828" on="0"/>
        <pt x="713" y="770" on="0"/>
      </contour>
      <contour>
        <pt x="734" y="0" on="1"/>
        <pt x="698" y="100" on="1"/>
        <pt x="379" y="100" on="1"/>
        <pt x="363" y="58" on="1"/>
        <pt x="334" y="-27" on="0"/>
        <pt x="229" y="-110" on="0"/>
        <pt x="141" y="-110" on="1"/>
        <pt x="67" y="-110" on="0"/>
        <pt x="-24" y="-51" on="0"/>
        <pt x="-33" y="4" on="1"/>
        <pt x="24" y="76" on="1"/>
        <pt x="36" y="24" on="0"/>
        <pt x="88" y="-14" on="0"/>
        <pt x="184" y="-14" on="0"/>
        <pt x="238" y="41" on="0"/>
        <pt x="267" y="118" on="1"/>
        <pt x="436" y="568" on="1"/>
        <pt x="309" y="568" on="1"/>
        <pt x="250" y="568" on="0"/>
        <pt x="185" y="516" on="0"/>
        <pt x="185" y="467" on="1"/>
        <pt x="185" y="427" on="0"/>
        <pt x="240" y="372" on="0"/>
        <pt x="286" y="365" on="1"/>
        <pt x="246" y="278" on="1"/>
        <pt x="171" y="287" on="0"/>
        <pt x="72" y="390" on="0"/>
        <pt x="72" y="469" on="1"/>
        <pt x="72" y="559" on="0"/>
        <pt x="190" y="660" on="0"/>
        <pt x="296" y="660" on="1"/>
        <pt x="520" y="660" on="1"/>
        <pt x="614" y="660" on="1"/>
        <pt x="859" y="0" on="1"/>
      </contour>
      <contour>
        <pt x="413" y="194" on="1"/>
        <pt x="666" y="194" on="1"/>
        <pt x="572" y="462" on="1"/>
        <pt x="542" y="559" on="1"/>
        <pt x="539" y="559" on="1"/>
        <pt x="511" y="464" on="1"/>
      </contour>
    </TTGlyph>
    <TTGlyph name="Adieresis.titl" xMin="9" yMin="0" xMax="644" yMax="662">
      <contour>
        <pt x="167" y="539" on="1"/>
        <pt x="138" y="539" on="0"/>
        <pt x="103" y="573" on="0"/>
        <pt x="103" y="629" on="0"/>
        <pt x="138" y="662" on="0"/>
        <pt x="167" y="662" on="1"/>
        <pt x="203" y="662" on="0"/>
        <pt x="219" y="636" on="1"/>
        <pt x="184" y="542" on="1"/>
        <pt x="177" y="539" on="0"/>
      </contour>
      <contour>
        <pt x="486" y="539" on="1"/>
        <pt x="478" y="539" on="0"/>
        <pt x="470" y="542" on="1"/>
        <pt x="435" y="636" on="1"/>
        <pt x="450" y="662" on="0"/>
        <pt x="486" y="662" on="1"/>
        <pt x="515" y="662" on="0"/>
        <pt x="550" y="629" on="0"/>
        <pt x="550" y="573" on="0"/>
        <pt x="515" y="539" on="0"/>
      </contour>
      <contour>
        <pt x="518" y="0" on="1"/>
        <pt x="479" y="112" on="1"/>
        <pt x="172" y="112" on="1"/>
        <pt x="133" y="0" on="1"/>
        <pt x="9" y="0" on="1"/>
        <pt x="255" y="660" on="1"/>
        <pt x="399" y="660" on="1"/>
        <pt x="644" y="0" on="1"/>
      </contour>
      <contour>
        <pt x="205" y="206" on="1"/>
        <pt x="446" y="206" on="1"/>
        <pt x="356" y="462" on="1"/>
        <pt x="326" y="559" on="1"/>
        <pt x="324" y="559" on="1"/>
        <pt x="296" y="464" on="1"/>
      </contour>
    </TTGlyph>
    <TTGlyph name="Agrave" xMin="12" yMin="0" xMax="641" yMax="887">
      <contour>
        <pt x="370" y="734" on="1"/>
        <pt x="264" y="734" on="1"/>
        <pt x="201" y="887" on="1"/>
        <pt x="314" y="887" on="1"/>
      </contour>
      <contour>
        <pt x="518" y="0" on="1"/>
        <pt x="471" y="134" on="1"/>
        <pt x="180" y="134" on="1"/>
        <pt x="133" y="0" on="1"/>
        <pt x="12" y="0" on="1"/>
        <pt x="255" y="660" on="1"/>
        <pt x="399" y="660" on="1"/>
        <pt x="641" y="0" on="1"/>
      </contour>
      <contour>
        <pt x="216" y="237" on="1"/>
        <pt x="435" y="237" on="1"/>
        <pt x="356" y="462" on="1"/>
        <pt x="326" y="559" on="1"/>
        <pt x="324" y="559" on="1"/>
        <pt x="296" y="464" on="1"/>
      </contour>
    </TTGlyph>
    <TTGlyph name="Agrave.swsh" xMin="-33" yMin="-110" xMax="859" yMax="887">
      <contour>
        <pt x="585" y="734" on="1"/>
        <pt x="479" y="734" on="1"/>
        <pt x="416" y="887" on="1"/>
        <pt x="529" y="887" on="1"/>
      </contour>
      <contour>
        <pt x="734" y="0" on="1"/>
        <pt x="698" y="100" on="1"/>
        <pt x="379" y="100" on="1"/>
        <pt x="363" y="58" on="1"/>
        <pt x="334" y="-27" on="0"/>
        <pt x="229" y="-110" on="0"/>
        <pt x="141" y="-110" on="1"/>
        <pt x="67" y="-110" on="0"/>
        <pt x="-24" y="-51" on="0"/>
        <pt x="-33" y="4" on="1"/>
        <pt x="24" y="76" on="1"/>
        <pt x="36" y="24" on="0"/>
        <pt x="88" y="-14" on="0"/>
        <pt x="184" y="-14" on="0"/>
        <pt x="238" y="41" on="0"/>
        <pt x="267" y="118" on="1"/>
        <pt x="436" y="568" on="1"/>
        <pt x="309" y="568" on="1"/>
        <pt x="250" y="568" on="0"/>
        <pt x="185" y="516" on="0"/>
        <pt x="185" y="467" on="1"/>
        <pt x="185" y="427" on="0"/>
        <pt x="240" y="372" on="0"/>
        <pt x="286" y="365" on="1"/>
        <pt x="246" y="278" on="1"/>
        <pt x="171" y="287" on="0"/>
        <pt x="72" y="390" on="0"/>
        <pt x="72" y="469" on="1"/>
        <pt x="72" y="559" on="0"/>
        <pt x="190" y="660" on="0"/>
        <pt x="296" y="660" on="1"/>
        <pt x="520" y="660" on="1"/>
        <pt x="614" y="660" on="1"/>
        <pt x="859" y="0" on="1"/>
      </contour>
      <contour>
        <pt x="413" y="194" on="1"/>
        <pt x="666" y="194" on="1"/>
        <pt x="572" y="462" on="1"/>
        <pt x="542" y="559" on="1"/>
        <pt x="539" y="559" on="1"/>
        <pt x="511" y="464" on="1"/>
      </contour>
    </TTGlyph>
    <TTGlyph name="Amacron" xMin="12" yMin="0" xMax="641" yMax="828">
      <contour>
        <pt x="506" y="828" on="1"/>
        <pt x="506" y="744" on="1"/>
        <pt x="147" y="744" on="1"/>
        <pt x="147" y="828" on="1"/>
      </contour>
      <contour>
        <pt x="518" y="0" on="1"/>
        <pt x="471" y="134" on="1"/>
        <pt x="180" y="134" on="1"/>
        <pt x="133" y="0" on="1"/>
        <pt x="12" y="0" on="1"/>
        <pt x="255" y="660" on="1"/>
        <pt x="399" y="660" on="1"/>
        <pt x="641" y="0" on="1"/>
      </contour>
      <contour>
        <pt x="216" y="237" on="1"/>
        <pt x="435" y="237" on="1"/>
        <pt x="356" y="462" on="1"/>
        <pt x="326" y="559" on="1"/>
        <pt x="324" y="559" on="1"/>
        <pt x="296" y="464" on="1"/>
      </contour>
    </TTGlyph>
    <TTGlyph name="Amacron.swsh" xMin="-33" yMin="-110" xMax="859" yMax="828">
      <contour>
        <pt x="721" y="828" on="1"/>
        <pt x="721" y="744" on="1"/>
        <pt x="362" y="744" on="1"/>
        <pt x="362" y="828" on="1"/>
      </contour>
      <contour>
        <pt x="734" y="0" on="1"/>
        <pt x="698" y="100" on="1"/>
        <pt x="379" y="100" on="1"/>
        <pt x="363" y="58" on="1"/>
        <pt x="334" y="-27" on="0"/>
        <pt x="229" y="-110" on="0"/>
        <pt x="141" y="-110" on="1"/>
        <pt x="67" y="-110" on="0"/>
        <pt x="-24" y="-51" on="0"/>
        <pt x="-33" y="4" on="1"/>
        <pt x="24" y="76" on="1"/>
        <pt x="36" y="24" on="0"/>
        <pt x="88" y="-14" on="0"/>
        <pt x="184" y="-14" on="0"/>
        <pt x="238" y="41" on="0"/>
        <pt x="267" y="118" on="1"/>
        <pt x="436" y="568" on="1"/>
        <pt x="309" y="568" on="1"/>
        <pt x="250" y="568" on="0"/>
        <pt x="185" y="516" on="0"/>
        <pt x="185" y="467" on="1"/>
        <pt x="185" y="427" on="0"/>
        <pt x="240" y="372" on="0"/>
        <pt x="286" y="365" on="1"/>
        <pt x="246" y="278" on="1"/>
        <pt x="171" y="287" on="0"/>
        <pt x="72" y="390" on="0"/>
        <pt x="72" y="469" on="1"/>
        <pt x="72" y="559" on="0"/>
        <pt x="190" y="660" on="0"/>
        <pt x="296" y="660" on="1"/>
        <pt x="520" y="660" on="1"/>
        <pt x="614" y="660" on="1"/>
        <pt x="859" y="0" on="1"/>
      </contour>
      <contour>
        <pt x="413" y="194" on="1"/>
        <pt x="666" y="194" on="1"/>
        <pt x="572" y="462" on="1"/>
        <pt x="542" y="559" on="1"/>
        <pt x="539" y="559" on="1"/>
        <pt x="511" y="464" on="1"/>
      </contour>
    </TTGlyph>
    <TTGlyph name="Aogonek" xMin="12" yMin="-215" xMax="653" yMax="660">
      <contour>
        <pt x="634" y="-129" on="1"/>
        <pt x="653" y="-194" on="1"/>
        <pt x="622" y="-215" on="0"/>
        <pt x="561" y="-215" on="1"/>
        <pt x="503" y="-215" on="0"/>
        <pt x="434" y="-159" on="0"/>
        <pt x="434" y="-107" on="1"/>
        <pt x="434" y="-32" on="0"/>
        <pt x="516" y="7" on="1"/>
        <pt x="471" y="134" on="1"/>
        <pt x="180" y="134" on="1"/>
        <pt x="133" y="0" on="1"/>
        <pt x="12" y="0" on="1"/>
        <pt x="255" y="660" on="1"/>
        <pt x="399" y="660" on="1"/>
        <pt x="641" y="1" on="1"/>
        <pt x="643" y="0" on="1"/>
        <pt x="575" y="-18" on="0"/>
        <pt x="522" y="-64" on="0"/>
        <pt x="522" y="-93" on="1"/>
        <pt x="522" y="-115" on="0"/>
        <pt x="554" y="-141" on="0"/>
        <pt x="582" y="-141" on="1"/>
        <pt x="617" y="-141" on="0"/>
      </contour>
      <contour>
        <pt x="216" y="237" on="1"/>
        <pt x="435" y="237" on="1"/>
        <pt x="356" y="462" on="1"/>
        <pt x="326" y="559" on="1"/>
        <pt x="324" y="559" on="1"/>
        <pt x="296" y="464" on="1"/>
      </contour>
    </TTGlyph>
    <TTGlyph name="Aogonek.swsh" xMin="-33" yMin="-215" xMax="869" yMax="660">
      <contour>
        <pt x="850" y="-129" on="1"/>
        <pt x="869" y="-194" on="1"/>
        <pt x="838" y="-215" on="0"/>
        <pt x="777" y="-215" on="1"/>
        <pt x="719" y="-215" on="0"/>
        <pt x="650" y="-159" on="0"/>
        <pt x="650" y="-107" on="1"/>
        <pt x="650" y="-32" on="0"/>
        <pt x="731" y="7" on="1"/>
        <pt x="698" y="100" on="1"/>
        <pt x="379" y="100" on="1"/>
        <pt x="363" y="58" on="1"/>
        <pt x="334" y="-27" on="0"/>
        <pt x="229" y="-110" on="0"/>
        <pt x="141" y="-110" on="1"/>
        <pt x="67" y="-110" on="0"/>
        <pt x="-24" y="-51" on="0"/>
        <pt x="-33" y="4" on="1"/>
        <pt x="24" y="76" on="1"/>
        <pt x="36" y="24" on="0"/>
        <pt x="88" y="-14" on="0"/>
        <pt x="184" y="-14" on="0"/>
        <pt x="238" y="41" on="0"/>
        <pt x="267" y="118" on="1"/>
        <pt x="436" y="568" on="1"/>
        <pt x="309" y="568" on="1"/>
        <pt x="250" y="568" on="0"/>
        <pt x="185" y="516" on="0"/>
        <pt x="185" y="467" on="1"/>
        <pt x="185" y="427" on="0"/>
        <pt x="240" y="372" on="0"/>
        <pt x="286" y="365" on="1"/>
        <pt x="246" y="278" on="1"/>
        <pt x="171" y="287" on="0"/>
        <pt x="72" y="390" on="0"/>
        <pt x="72" y="469" on="1"/>
        <pt x="72" y="559" on="0"/>
        <pt x="190" y="660" on="0"/>
        <pt x="296" y="660" on="1"/>
        <pt x="520" y="660" on="1"/>
        <pt x="614" y="660" on="1"/>
        <pt x="859" y="0" on="1"/>
        <pt x="791" y="-18" on="0"/>
        <pt x="738" y="-64" on="0"/>
        <pt x="738" y="-93" on="1"/>
        <pt x="738" y="-115" on="0"/>
        <pt x="770" y="-141" on="0"/>
        <pt x="798" y="-141" on="1"/>
        <pt x="833" y="-141" on="0"/>
      </contour>
      <contour>
        <pt x="413" y="194" on="1"/>
        <pt x="666" y="194" on="1"/>
        <pt x="572" y="462" on="1"/>
        <pt x="542" y="559" on="1"/>
        <pt x="539" y="559" on="1"/>
        <pt x="511" y="464" on="1"/>
      </contour>
    </TTGlyph>
    <TTGlyph name="Aogonek_j" xMin="12" yMin="-215" xMax="876" yMax="718">
      <contour>
        <pt x="835" y="579" on="0"/>
        <pt x="763" y="579" on="0"/>
        <pt x="722" y="616" on="0"/>
        <pt x="722" y="649" on="1"/>
        <pt x="722" y="681" on="0"/>
        <pt x="763" y="718" on="0"/>
        <pt x="835" y="718" on="0"/>
        <pt x="876" y="681" on="0"/>
        <pt x="876" y="649" on="1"/>
        <pt x="876" y="616" on="0"/>
      </contour>
      <contour>
        <pt x="557" y="-141" on="1"/>
        <pt x="579" y="-141" on="0"/>
        <pt x="594" y="-130" on="1"/>
        <pt x="594" y="-199" on="1"/>
        <pt x="569" y="-215" on="0"/>
        <pt x="524" y="-215" on="1"/>
        <pt x="474" y="-215" on="0"/>
        <pt x="412" y="-161" on="0"/>
        <pt x="412" y="-118" on="1"/>
        <pt x="412" y="-32" on="0"/>
        <pt x="515" y="9" on="1"/>
        <pt x="471" y="134" on="1"/>
        <pt x="180" y="134" on="1"/>
        <pt x="133" y="0" on="1"/>
        <pt x="12" y="0" on="1"/>
        <pt x="255" y="660" on="1"/>
        <pt x="399" y="660" on="1"/>
        <pt x="641" y="1" on="1"/>
        <pt x="644" y="0" on="1"/>
        <pt x="569" y="-17" on="0"/>
        <pt x="500" y="-60" on="0"/>
        <pt x="500" y="-93" on="1"/>
        <pt x="500" y="-115" on="0"/>
        <pt x="531" y="-141" on="0"/>
      </contour>
      <contour>
        <pt x="216" y="237" on="1"/>
        <pt x="435" y="237" on="1"/>
        <pt x="356" y="462" on="1"/>
        <pt x="326" y="559" on="1"/>
        <pt x="324" y="559" on="1"/>
        <pt x="296" y="464" on="1"/>
      </contour>
      <contour>
        <pt x="739" y="-36" on="1"/>
        <pt x="739" y="500" on="1"/>
        <pt x="859" y="500" on="1"/>
        <pt x="859" y="-44" on="1"/>
        <pt x="859" y="-215" on="0"/>
        <pt x="702" y="-215" on="1"/>
        <pt x="660" y="-215" on="0"/>
        <pt x="631" y="-202" on="1"/>
        <pt x="650" y="-106" on="1"/>
        <pt x="665" y="-116" on="0"/>
        <pt x="694" y="-116" on="1"/>
        <pt x="718" y="-116" on="0"/>
        <pt x="739" y="-80" on="0"/>
      </contour>
    </TTGlyph>
    <TTGlyph name="Aogonek_y" xMin="12" yMin="-215" xMax="1147" yMax="660">
      <contour>
        <pt x="644" y="0" on="1"/>
        <pt x="573" y="-17" on="0"/>
        <pt x="510" y="-62" on="0"/>
        <pt x="510" y="-94" on="1"/>
        <pt x="510" y="-141" on="0"/>
        <pt x="560" y="-141" on="1"/>
        <pt x="592" y="-141" on="0"/>
        <pt x="613" y="-128" on="1"/>
        <pt x="622" y="-195" on="1"/>
        <pt x="591" y="-215" on="0"/>
        <pt x="539" y="-215" on="1"/>
        <pt x="485" y="-215" on="0"/>
        <pt x="422" y="-157" on="0"/>
        <pt x="422" y="-108" on="1"/>
        <pt x="422" y="-28" on="0"/>
        <pt x="515" y="10" on="1"/>
        <pt x="471" y="134" on="1"/>
        <pt x="180" y="134" on="1"/>
        <pt x="133" y="0" on="1"/>
        <pt x="12" y="0" on="1"/>
        <pt x="255" y="660" on="1"/>
        <pt x="399" y="660" on="1"/>
        <pt x="641" y="2" on="1"/>
      </contour>
      <contour>
        <pt x="216" y="237" on="1"/>
        <pt x="435" y="237" on="1"/>
        <pt x="356" y="462" on="1"/>
        <pt x="326" y="559" on="1"/>
        <pt x="324" y="559" on="1"/>
        <pt x="296" y="464" on="1"/>
      </contour>
      <contour>
        <pt x="1024" y="500" on="1"/>
        <pt x="1147" y="500" on="1"/>
        <pt x="927" y="-69" on="1"/>
        <pt x="874" y="-215" on="0"/>
        <pt x="746" y="-215" on="1"/>
        <pt x="695" y="-215" on="0"/>
        <pt x="664" y="-195" on="1"/>
        <pt x="683" y="-108" on="1"/>
        <pt x="701" y="-122" on="0"/>
        <pt x="733" y="-122" on="1"/>
        <pt x="789" y="-122" on="0"/>
        <pt x="814" y="-59" on="1"/>
        <pt x="836" y="-4" on="1"/>
        <pt x="783" y="122" on="1"/>
        <pt x="628" y="500" on="1"/>
        <pt x="762" y="500" on="1"/>
        <pt x="865" y="192" on="1"/>
        <pt x="893" y="96" on="1"/>
        <pt x="925" y="200" on="1"/>
      </contour>
    </TTGlyph>
    <TTGlyph name="Aring" xMin="12" yMin="0" xMax="641" yMax="856">
      <contour>
        <pt x="518" y="0" on="1"/>
        <pt x="471" y="134" on="1"/>
        <pt x="180" y="134" on="1"/>
        <pt x="133" y="0" on="1"/>
        <pt x="12" y="0" on="1"/>
        <pt x="245" y="633" on="1"/>
        <pt x="191" y="664" on="0"/>
        <pt x="191" y="733" on="1"/>
        <pt x="191" y="788" on="0"/>
        <pt x="265" y="856" on="0"/>
        <pt x="389" y="856" on="0"/>
        <pt x="463" y="788" on="0"/>
        <pt x="463" y="733" on="1"/>
        <pt x="463" y="665" on="0"/>
        <pt x="409" y="633" on="1"/>
        <pt x="641" y="0" on="1"/>
      </contour>
      <contour>
        <pt x="356" y="794" on="0"/>
        <pt x="298" y="794" on="0"/>
        <pt x="261" y="759" on="0"/>
        <pt x="261" y="703" on="0"/>
        <pt x="298" y="667" on="0"/>
        <pt x="356" y="667" on="0"/>
        <pt x="392" y="703" on="0"/>
        <pt x="392" y="759" on="0"/>
      </contour>
      <contour>
        <pt x="216" y="237" on="1"/>
        <pt x="435" y="237" on="1"/>
        <pt x="356" y="462" on="1"/>
        <pt x="326" y="559" on="1"/>
        <pt x="324" y="559" on="1"/>
        <pt x="296" y="464" on="1"/>
      </contour>
    </TTGlyph>
    <TTGlyph name="Atilde" xMin="12" yMin="0" xMax="641" yMax="878">
      <contour>
        <pt x="259" y="796" on="1"/>
        <pt x="224" y="796" on="0"/>
        <pt x="215" y="732" on="1"/>
        <pt x="137" y="732" on="1"/>
        <pt x="146" y="877" on="0"/>
        <pt x="259" y="877" on="1"/>
        <pt x="284" y="877" on="0"/>
        <pt x="327" y="857" on="0"/>
        <pt x="351" y="834" on="0"/>
        <pt x="379" y="814" on="0"/>
        <pt x="392" y="814" on="1"/>
        <pt x="428" y="814" on="0"/>
        <pt x="437" y="878" on="1"/>
        <pt x="514" y="878" on="1"/>
        <pt x="505" y="732" on="0"/>
        <pt x="393" y="732" on="1"/>
        <pt x="360" y="732" on="0"/>
        <pt x="311" y="764" on="0"/>
        <pt x="275" y="796" on="0"/>
      </contour>
      <contour>
        <pt x="518" y="0" on="1"/>
        <pt x="471" y="134" on="1"/>
        <pt x="180" y="134" on="1"/>
        <pt x="133" y="0" on="1"/>
        <pt x="12" y="0" on="1"/>
        <pt x="255" y="660" on="1"/>
        <pt x="399" y="660" on="1"/>
        <pt x="641" y="0" on="1"/>
      </contour>
      <contour>
        <pt x="216" y="237" on="1"/>
        <pt x="435" y="237" on="1"/>
        <pt x="356" y="462" on="1"/>
        <pt x="326" y="559" on="1"/>
        <pt x="324" y="559" on="1"/>
        <pt x="296" y="464" on="1"/>
      </contour>
    </TTGlyph>
    <TTGlyph name="Atilde.swsh" xMin="-33" yMin="-110" xMax="859" yMax="878">
      <contour>
        <pt x="474" y="796" on="1"/>
        <pt x="439" y="796" on="0"/>
        <pt x="430" y="732" on="1"/>
        <pt x="352" y="732" on="1"/>
        <pt x="361" y="877" on="0"/>
        <pt x="474" y="877" on="1"/>
        <pt x="499" y="877" on="0"/>
        <pt x="542" y="857" on="0"/>
        <pt x="566" y="834" on="0"/>
        <pt x="594" y="814" on="0"/>
        <pt x="607" y="814" on="1"/>
        <pt x="643" y="814" on="0"/>
        <pt x="652" y="878" on="1"/>
        <pt x="729" y="878" on="1"/>
        <pt x="720" y="732" on="0"/>
        <pt x="608" y="732" on="1"/>
        <pt x="575" y="732" on="0"/>
        <pt x="526" y="764" on="0"/>
        <pt x="490" y="796" on="0"/>
      </contour>
      <contour>
        <pt x="734" y="0" on="1"/>
        <pt x="698" y="100" on="1"/>
        <pt x="379" y="100" on="1"/>
        <pt x="363" y="58" on="1"/>
        <pt x="334" y="-27" on="0"/>
        <pt x="229" y="-110" on="0"/>
        <pt x="141" y="-110" on="1"/>
        <pt x="67" y="-110" on="0"/>
        <pt x="-24" y="-51" on="0"/>
        <pt x="-33" y="4" on="1"/>
        <pt x="24" y="76" on="1"/>
        <pt x="36" y="24" on="0"/>
        <pt x="88" y="-14" on="0"/>
        <pt x="184" y="-14" on="0"/>
        <pt x="238" y="41" on="0"/>
        <pt x="267" y="118" on="1"/>
        <pt x="436" y="568" on="1"/>
        <pt x="309" y="568" on="1"/>
        <pt x="250" y="568" on="0"/>
        <pt x="185" y="516" on="0"/>
        <pt x="185" y="467" on="1"/>
        <pt x="185" y="427" on="0"/>
        <pt x="240" y="372" on="0"/>
        <pt x="286" y="365" on="1"/>
        <pt x="246" y="278" on="1"/>
        <pt x="171" y="287" on="0"/>
        <pt x="72" y="390" on="0"/>
        <pt x="72" y="469" on="1"/>
        <pt x="72" y="559" on="0"/>
        <pt x="190" y="660" on="0"/>
        <pt x="296" y="660" on="1"/>
        <pt x="520" y="660" on="1"/>
        <pt x="614" y="660" on="1"/>
        <pt x="859" y="0" on="1"/>
      </contour>
      <contour>
        <pt x="413" y="194" on="1"/>
        <pt x="666" y="194" on="1"/>
        <pt x="572" y="462" on="1"/>
        <pt x="542" y="559" on="1"/>
        <pt x="539" y="559" on="1"/>
        <pt x="511" y="464" on="1"/>
      </contour>
    </TTGlyph>
    <TTGlyph name="B" xMin="85" yMin="0" xMax="606" yMax="660">
      <contour>
        <pt x="85" y="0" on="1"/>
        <pt x="85" y="660" on="1"/>
        <pt x="358" y="660" on="1"/>
        <pt x="474" y="660" on="0"/>
        <pt x="589" y="567" on="0"/>
        <pt x="589" y="485" on="1"/>
        <pt x="589" y="423" on="0"/>
        <pt x="526" y="346" on="0"/>
        <pt x="468" y="335" on="1"/>
        <pt x="468" y="334" on="1"/>
        <pt x="536" y="322" on="0"/>
        <pt x="606" y="240" on="0"/>
        <pt x="606" y="178" on="1"/>
        <pt x="606" y="96" on="0"/>
        <pt x="481" y="0" on="0"/>
        <pt x="365" y="0" on="1"/>
      </contour>
      <contour>
        <pt x="203" y="379" on="1"/>
        <pt x="345" y="379" on="1"/>
        <pt x="464" y="379" on="0"/>
        <pt x="464" y="471" on="1"/>
        <pt x="464" y="562" on="0"/>
        <pt x="345" y="562" on="1"/>
        <pt x="203" y="562" on="1"/>
      </contour>
      <contour>
        <pt x="203" y="96" on="1"/>
        <pt x="362" y="96" on="1"/>
        <pt x="481" y="96" on="0"/>
        <pt x="481" y="282" on="0"/>
        <pt x="362" y="282" on="1"/>
        <pt x="203" y="282" on="1"/>
      </contour>
    </TTGlyph>
    <TTGlyph name="C" xMin="37" yMin="-11" xMax="648" yMax="670">
      <contour>
        <pt x="37" y="330" on="1"/>
        <pt x="37" y="470" on="0"/>
        <pt x="236" y="670" on="0"/>
        <pt x="375" y="670" on="1"/>
        <pt x="457" y="670" on="0"/>
        <pt x="600" y="595" on="0"/>
        <pt x="647" y="531" on="1"/>
        <pt x="554" y="467" on="1"/>
        <pt x="486" y="555" on="0"/>
        <pt x="375" y="555" on="1"/>
        <pt x="283" y="555" on="0"/>
        <pt x="152" y="423" on="0"/>
        <pt x="152" y="329" on="1"/>
        <pt x="152" y="237" on="0"/>
        <pt x="283" y="104" on="0"/>
        <pt x="375" y="104" on="1"/>
        <pt x="429" y="104" on="0"/>
        <pt x="523" y="152" on="0"/>
        <pt x="554" y="194" on="1"/>
        <pt x="648" y="130" on="1"/>
        <pt x="601" y="65" on="0"/>
        <pt x="457" y="-11" on="0"/>
        <pt x="375" y="-11" on="1"/>
        <pt x="235" y="-11" on="0"/>
        <pt x="37" y="189" on="0"/>
      </contour>
    </TTGlyph>
    <TTGlyph name="Cacute" xMin="37" yMin="-11" xMax="648" yMax="887">
      <contour>
        <pt x="363" y="887" on="1"/>
        <pt x="476" y="887" on="1"/>
        <pt x="413" y="734" on="1"/>
        <pt x="307" y="734" on="1"/>
      </contour>
      <contour>
        <pt x="37" y="330" on="1"/>
        <pt x="37" y="470" on="0"/>
        <pt x="236" y="670" on="0"/>
        <pt x="375" y="670" on="1"/>
        <pt x="457" y="670" on="0"/>
        <pt x="600" y="595" on="0"/>
        <pt x="647" y="531" on="1"/>
        <pt x="554" y="467" on="1"/>
        <pt x="486" y="555" on="0"/>
        <pt x="375" y="555" on="1"/>
        <pt x="283" y="555" on="0"/>
        <pt x="152" y="423" on="0"/>
        <pt x="152" y="329" on="1"/>
        <pt x="152" y="237" on="0"/>
        <pt x="283" y="104" on="0"/>
        <pt x="375" y="104" on="1"/>
        <pt x="429" y="104" on="0"/>
        <pt x="523" y="152" on="0"/>
        <pt x="554" y="194" on="1"/>
        <pt x="648" y="130" on="1"/>
        <pt x="601" y="65" on="0"/>
        <pt x="457" y="-11" on="0"/>
        <pt x="375" y="-11" on="1"/>
        <pt x="235" y="-11" on="0"/>
        <pt x="37" y="189" on="0"/>
      </contour>
    </TTGlyph>
    <TTGlyph name="Ccaron" xMin="37" yMin="-11" xMax="648" yMax="897">
      <contour>
        <pt x="546" y="897" on="1"/>
        <pt x="433" y="730" on="1"/>
        <pt x="310" y="730" on="1"/>
        <pt x="198" y="897" on="1"/>
        <pt x="297" y="897" on="1"/>
        <pt x="372" y="795" on="1"/>
        <pt x="446" y="897" on="1"/>
      </contour>
      <contour>
        <pt x="37" y="330" on="1"/>
        <pt x="37" y="470" on="0"/>
        <pt x="236" y="670" on="0"/>
        <pt x="375" y="670" on="1"/>
        <pt x="457" y="670" on="0"/>
        <pt x="600" y="595" on="0"/>
        <pt x="647" y="531" on="1"/>
        <pt x="554" y="467" on="1"/>
        <pt x="486" y="555" on="0"/>
        <pt x="375" y="555" on="1"/>
        <pt x="283" y="555" on="0"/>
        <pt x="152" y="423" on="0"/>
        <pt x="152" y="329" on="1"/>
        <pt x="152" y="237" on="0"/>
        <pt x="283" y="104" on="0"/>
        <pt x="375" y="104" on="1"/>
        <pt x="429" y="104" on="0"/>
        <pt x="523" y="152" on="0"/>
        <pt x="554" y="194" on="1"/>
        <pt x="648" y="130" on="1"/>
        <pt x="601" y="65" on="0"/>
        <pt x="457" y="-11" on="0"/>
        <pt x="375" y="-11" on="1"/>
        <pt x="235" y="-11" on="0"/>
        <pt x="37" y="189" on="0"/>
      </contour>
    </TTGlyph>
    <TTGlyph name="Ccedilla" xMin="37" yMin="-215" xMax="648" yMax="670">
      <contour>
        <pt x="648" y="130" on="1"/>
        <pt x="567" y="16" on="0"/>
        <pt x="429" y="-6" on="1"/>
        <pt x="482" y="-47" on="0"/>
        <pt x="482" y="-103" on="1"/>
        <pt x="482" y="-153" on="0"/>
        <pt x="412" y="-215" on="0"/>
        <pt x="354" y="-215" on="1"/>
        <pt x="280" y="-215" on="0"/>
        <pt x="238" y="-178" on="1"/>
        <pt x="272" y="-112" on="1"/>
        <pt x="299" y="-141" on="0"/>
        <pt x="342" y="-141" on="1"/>
        <pt x="367" y="-141" on="0"/>
        <pt x="398" y="-112" on="0"/>
        <pt x="398" y="-87" on="1"/>
        <pt x="398" y="-61" on="0"/>
        <pt x="364" y="-24" on="0"/>
        <pt x="318" y="-6" on="1"/>
        <pt x="198" y="15" on="0"/>
        <pt x="37" y="204" on="0"/>
        <pt x="37" y="330" on="1"/>
        <pt x="37" y="470" on="0"/>
        <pt x="236" y="670" on="0"/>
        <pt x="375" y="670" on="1"/>
        <pt x="457" y="670" on="0"/>
        <pt x="600" y="595" on="0"/>
        <pt x="647" y="531" on="1"/>
        <pt x="554" y="467" on="1"/>
        <pt x="486" y="555" on="0"/>
        <pt x="375" y="555" on="1"/>
        <pt x="283" y="555" on="0"/>
        <pt x="152" y="423" on="0"/>
        <pt x="152" y="329" on="1"/>
        <pt x="152" y="237" on="0"/>
        <pt x="283" y="104" on="0"/>
        <pt x="375" y="104" on="1"/>
        <pt x="429" y="104" on="0"/>
        <pt x="523" y="152" on="0"/>
        <pt x="554" y="194" on="1"/>
      </contour>
    </TTGlyph>
    <TTGlyph name="D" xMin="85" yMin="0" xMax="677" yMax="660">
      <contour>
        <pt x="351" y="660" on="1"/>
        <pt x="507" y="660" on="0"/>
        <pt x="677" y="488" on="0"/>
        <pt x="677" y="172" on="0"/>
        <pt x="507" y="0" on="0"/>
        <pt x="351" y="0" on="1"/>
        <pt x="159" y="0" on="1"/>
        <pt x="85" y="0" on="1"/>
        <pt x="85" y="660" on="1"/>
        <pt x="206" y="660" on="1"/>
      </contour>
      <contour>
        <pt x="348" y="99" on="1"/>
        <pt x="447" y="99" on="0"/>
        <pt x="555" y="222" on="0"/>
        <pt x="555" y="438" on="0"/>
        <pt x="447" y="561" on="0"/>
        <pt x="348" y="561" on="1"/>
        <pt x="206" y="561" on="1"/>
        <pt x="206" y="99" on="1"/>
      </contour>
    </TTGlyph>
    <TTGlyph name="Dcaron" xMin="85" yMin="0" xMax="677" yMax="897">
      <contour>
        <pt x="395" y="730" on="1"/>
        <pt x="272" y="730" on="1"/>
        <pt x="159" y="897" on="1"/>
        <pt x="258" y="897" on="1"/>
        <pt x="333" y="795" on="1"/>
        <pt x="408" y="897" on="1"/>
        <pt x="507" y="897" on="1"/>
      </contour>
      <contour>
        <pt x="351" y="660" on="1"/>
        <pt x="507" y="660" on="0"/>
        <pt x="677" y="488" on="0"/>
        <pt x="677" y="172" on="0"/>
        <pt x="507" y="0" on="0"/>
        <pt x="351" y="0" on="1"/>
        <pt x="159" y="0" on="1"/>
        <pt x="85" y="0" on="1"/>
        <pt x="85" y="660" on="1"/>
        <pt x="206" y="660" on="1"/>
      </contour>
      <contour>
        <pt x="348" y="99" on="1"/>
        <pt x="447" y="99" on="0"/>
        <pt x="555" y="222" on="0"/>
        <pt x="555" y="438" on="0"/>
        <pt x="447" y="561" on="0"/>
        <pt x="348" y="561" on="1"/>
        <pt x="206" y="561" on="1"/>
        <pt x="206" y="99" on="1"/>
      </contour>
    </TTGlyph>
    <TTGlyph name="Dcroat" xMin="13" yMin="0" xMax="697" yMax="660">
      <contour>
        <pt x="370" y="660" on="1"/>
        <pt x="526" y="660" on="0"/>
        <pt x="697" y="488" on="0"/>
        <pt x="697" y="172" on="0"/>
        <pt x="526" y="0" on="0"/>
        <pt x="370" y="0" on="1"/>
        <pt x="179" y="0" on="1"/>
        <pt x="104" y="0" on="1"/>
        <pt x="104" y="290" on="1"/>
        <pt x="13" y="290" on="1"/>
        <pt x="13" y="374" on="1"/>
        <pt x="104" y="374" on="1"/>
        <pt x="104" y="660" on="1"/>
        <pt x="225" y="660" on="1"/>
      </contour>
      <contour>
        <pt x="367" y="99" on="1"/>
        <pt x="466" y="99" on="0"/>
        <pt x="575" y="222" on="0"/>
        <pt x="575" y="438" on="0"/>
        <pt x="466" y="561" on="0"/>
        <pt x="367" y="561" on="1"/>
        <pt x="225" y="561" on="1"/>
        <pt x="225" y="374" on="1"/>
        <pt x="393" y="374" on="1"/>
        <pt x="393" y="290" on="1"/>
        <pt x="225" y="290" on="1"/>
        <pt x="225" y="99" on="1"/>
      </contour>
    </TTGlyph>
    <TTGlyph name="E" xMin="85" yMin="0" xMax="585" yMax="660">
      <contour>
        <pt x="206" y="101" on="1"/>
        <pt x="585" y="101" on="1"/>
        <pt x="585" y="0" on="1"/>
        <pt x="146" y="0" on="1"/>
        <pt x="85" y="0" on="1"/>
        <pt x="85" y="660" on="1"/>
        <pt x="206" y="660" on="1"/>
        <pt x="571" y="660" on="1"/>
        <pt x="571" y="559" on="1"/>
        <pt x="206" y="559" on="1"/>
        <pt x="206" y="376" on="1"/>
        <pt x="525" y="376" on="1"/>
        <pt x="525" y="277" on="1"/>
        <pt x="206" y="277" on="1"/>
      </contour>
    </TTGlyph>
    <TTGlyph name="E.swsh" xMin="3" yMin="0" xMax="824" yMax="660">
      <contour>
        <pt x="444" y="101" on="1"/>
        <pt x="824" y="101" on="1"/>
        <pt x="824" y="0" on="1"/>
        <pt x="384" y="0" on="1"/>
        <pt x="324" y="0" on="1"/>
        <pt x="324" y="568" on="1"/>
        <pt x="240" y="568" on="1"/>
        <pt x="182" y="568" on="0"/>
        <pt x="116" y="516" on="0"/>
        <pt x="116" y="467" on="1"/>
        <pt x="116" y="427" on="0"/>
        <pt x="171" y="372" on="0"/>
        <pt x="217" y="365" on="1"/>
        <pt x="177" y="278" on="1"/>
        <pt x="102" y="287" on="0"/>
        <pt x="3" y="390" on="0"/>
        <pt x="3" y="469" on="1"/>
        <pt x="3" y="559" on="0"/>
        <pt x="122" y="660" on="0"/>
        <pt x="227" y="660" on="1"/>
        <pt x="384" y="660" on="1"/>
        <pt x="451" y="660" on="1"/>
        <pt x="809" y="660" on="1"/>
        <pt x="809" y="559" on="1"/>
        <pt x="444" y="559" on="1"/>
        <pt x="444" y="376" on="1"/>
        <pt x="763" y="376" on="1"/>
        <pt x="763" y="277" on="1"/>
        <pt x="444" y="277" on="1"/>
      </contour>
    </TTGlyph>
    <TTGlyph name="E.swsh.001" xMin="85" yMin="0" xMax="767" yMax="660">
      <contour>
        <pt x="624" y="355" on="1"/>
        <pt x="689" y="349" on="0"/>
        <pt x="767" y="258" on="0"/>
        <pt x="767" y="184" on="1"/>
        <pt x="767" y="93" on="0"/>
        <pt x="653" y="0" on="0"/>
        <pt x="553" y="0" on="1"/>
        <pt x="378" y="0" on="1"/>
        <pt x="146" y="0" on="1"/>
        <pt x="85" y="0" on="1"/>
        <pt x="85" y="660" on="1"/>
        <pt x="206" y="660" on="1"/>
        <pt x="600" y="660" on="1"/>
        <pt x="600" y="559" on="1"/>
        <pt x="206" y="559" on="1"/>
        <pt x="206" y="375" on="1"/>
        <pt x="418" y="375" on="1"/>
        <pt x="418" y="278" on="1"/>
        <pt x="206" y="278" on="1"/>
        <pt x="206" y="101" on="1"/>
        <pt x="512" y="101" on="1"/>
        <pt x="533" y="101" on="1"/>
        <pt x="596" y="101" on="0"/>
        <pt x="657" y="142" on="0"/>
        <pt x="657" y="186" on="1"/>
        <pt x="657" y="226" on="0"/>
        <pt x="617" y="270" on="0"/>
        <pt x="582" y="272" on="1"/>
      </contour>
    </TTGlyph>
    <TTGlyph name="Eacute" xMin="85" yMin="0" xMax="585" yMax="887">
      <contour>
        <pt x="439" y="887" on="1"/>
        <pt x="376" y="734" on="1"/>
        <pt x="270" y="734" on="1"/>
        <pt x="326" y="887" on="1"/>
      </contour>
      <contour>
        <pt x="206" y="101" on="1"/>
        <pt x="585" y="101" on="1"/>
        <pt x="585" y="0" on="1"/>
        <pt x="146" y="0" on="1"/>
        <pt x="85" y="0" on="1"/>
        <pt x="85" y="660" on="1"/>
        <pt x="206" y="660" on="1"/>
        <pt x="571" y="660" on="1"/>
        <pt x="571" y="559" on="1"/>
        <pt x="206" y="559" on="1"/>
        <pt x="206" y="376" on="1"/>
        <pt x="525" y="376" on="1"/>
        <pt x="525" y="277" on="1"/>
        <pt x="206" y="277" on="1"/>
      </contour>
    </TTGlyph>
    <TTGlyph name="Eacute.swsh" xMin="3" yMin="0" xMax="824" yMax="887">
      <contour>
        <pt x="677" y="887" on="1"/>
        <pt x="614" y="734" on="1"/>
        <pt x="508" y="734" on="1"/>
        <pt x="564" y="887" on="1"/>
      </contour>
      <contour>
        <pt x="444" y="101" on="1"/>
        <pt x="824" y="101" on="1"/>
        <pt x="824" y="0" on="1"/>
        <pt x="384" y="0" on="1"/>
        <pt x="324" y="0" on="1"/>
        <pt x="324" y="568" on="1"/>
        <pt x="240" y="568" on="1"/>
        <pt x="182" y="568" on="0"/>
        <pt x="116" y="516" on="0"/>
        <pt x="116" y="467" on="1"/>
        <pt x="116" y="427" on="0"/>
        <pt x="171" y="372" on="0"/>
        <pt x="217" y="365" on="1"/>
        <pt x="177" y="278" on="1"/>
        <pt x="102" y="287" on="0"/>
        <pt x="3" y="390" on="0"/>
        <pt x="3" y="469" on="1"/>
        <pt x="3" y="559" on="0"/>
        <pt x="122" y="660" on="0"/>
        <pt x="227" y="660" on="1"/>
        <pt x="384" y="660" on="1"/>
        <pt x="451" y="660" on="1"/>
        <pt x="809" y="660" on="1"/>
        <pt x="809" y="559" on="1"/>
        <pt x="444" y="559" on="1"/>
        <pt x="444" y="376" on="1"/>
        <pt x="763" y="376" on="1"/>
        <pt x="763" y="277" on="1"/>
        <pt x="444" y="277" on="1"/>
      </contour>
    </TTGlyph>
    <TTGlyph name="Eacute.swsh.001" xMin="85" yMin="0" xMax="767" yMax="887">
      <contour>
        <pt x="458" y="887" on="1"/>
        <pt x="395" y="734" on="1"/>
        <pt x="289" y="734" on="1"/>
        <pt x="345" y="887" on="1"/>
      </contour>
      <contour>
        <pt x="624" y="355" on="1"/>
        <pt x="689" y="349" on="0"/>
        <pt x="767" y="258" on="0"/>
        <pt x="767" y="184" on="1"/>
        <pt x="767" y="93" on="0"/>
        <pt x="653" y="0" on="0"/>
        <pt x="553" y="0" on="1"/>
        <pt x="378" y="0" on="1"/>
        <pt x="146" y="0" on="1"/>
        <pt x="85" y="0" on="1"/>
        <pt x="85" y="660" on="1"/>
        <pt x="206" y="660" on="1"/>
        <pt x="600" y="660" on="1"/>
        <pt x="600" y="559" on="1"/>
        <pt x="206" y="559" on="1"/>
        <pt x="206" y="375" on="1"/>
        <pt x="418" y="375" on="1"/>
        <pt x="418" y="278" on="1"/>
        <pt x="206" y="278" on="1"/>
        <pt x="206" y="101" on="1"/>
        <pt x="512" y="101" on="1"/>
        <pt x="533" y="101" on="1"/>
        <pt x="596" y="101" on="0"/>
        <pt x="657" y="142" on="0"/>
        <pt x="657" y="186" on="1"/>
        <pt x="657" y="226" on="0"/>
        <pt x="617" y="270" on="0"/>
        <pt x="582" y="272" on="1"/>
      </contour>
    </TTGlyph>
    <TTGlyph name="Ecaron" xMin="85" yMin="0" xMax="585" yMax="897">
      <contour>
        <pt x="384" y="730" on="1"/>
        <pt x="261" y="730" on="1"/>
        <pt x="149" y="897" on="1"/>
        <pt x="248" y="897" on="1"/>
        <pt x="323" y="795" on="1"/>
        <pt x="397" y="897" on="1"/>
        <pt x="497" y="897" on="1"/>
      </contour>
      <contour>
        <pt x="206" y="101" on="1"/>
        <pt x="585" y="101" on="1"/>
        <pt x="585" y="0" on="1"/>
        <pt x="146" y="0" on="1"/>
        <pt x="85" y="0" on="1"/>
        <pt x="85" y="660" on="1"/>
        <pt x="206" y="660" on="1"/>
        <pt x="571" y="660" on="1"/>
        <pt x="571" y="559" on="1"/>
        <pt x="206" y="559" on="1"/>
        <pt x="206" y="376" on="1"/>
        <pt x="525" y="376" on="1"/>
        <pt x="525" y="277" on="1"/>
        <pt x="206" y="277" on="1"/>
      </contour>
    </TTGlyph>
    <TTGlyph name="Ecaron.swsh" xMin="3" yMin="0" xMax="824" yMax="897">
      <contour>
        <pt x="623" y="730" on="1"/>
        <pt x="500" y="730" on="1"/>
        <pt x="388" y="897" on="1"/>
        <pt x="487" y="897" on="1"/>
        <pt x="562" y="795" on="1"/>
        <pt x="636" y="897" on="1"/>
        <pt x="736" y="897" on="1"/>
      </contour>
      <contour>
        <pt x="444" y="101" on="1"/>
        <pt x="824" y="101" on="1"/>
        <pt x="824" y="0" on="1"/>
        <pt x="384" y="0" on="1"/>
        <pt x="324" y="0" on="1"/>
        <pt x="324" y="568" on="1"/>
        <pt x="240" y="568" on="1"/>
        <pt x="182" y="568" on="0"/>
        <pt x="116" y="516" on="0"/>
        <pt x="116" y="467" on="1"/>
        <pt x="116" y="427" on="0"/>
        <pt x="171" y="372" on="0"/>
        <pt x="217" y="365" on="1"/>
        <pt x="177" y="278" on="1"/>
        <pt x="102" y="287" on="0"/>
        <pt x="3" y="390" on="0"/>
        <pt x="3" y="469" on="1"/>
        <pt x="3" y="559" on="0"/>
        <pt x="122" y="660" on="0"/>
        <pt x="227" y="660" on="1"/>
        <pt x="384" y="660" on="1"/>
        <pt x="451" y="660" on="1"/>
        <pt x="809" y="660" on="1"/>
        <pt x="809" y="559" on="1"/>
        <pt x="444" y="559" on="1"/>
        <pt x="444" y="376" on="1"/>
        <pt x="763" y="376" on="1"/>
        <pt x="763" y="277" on="1"/>
        <pt x="444" y="277" on="1"/>
      </contour>
    </TTGlyph>
    <TTGlyph name="Ecaron.swsh.001" xMin="85" yMin="0" xMax="767" yMax="897">
      <contour>
        <pt x="404" y="730" on="1"/>
        <pt x="281" y="730" on="1"/>
        <pt x="169" y="897" on="1"/>
        <pt x="268" y="897" on="1"/>
        <pt x="343" y="795" on="1"/>
        <pt x="417" y="897" on="1"/>
        <pt x="517" y="897" on="1"/>
      </contour>
      <contour>
        <pt x="624" y="355" on="1"/>
        <pt x="689" y="349" on="0"/>
        <pt x="767" y="258" on="0"/>
        <pt x="767" y="184" on="1"/>
        <pt x="767" y="93" on="0"/>
        <pt x="653" y="0" on="0"/>
        <pt x="553" y="0" on="1"/>
        <pt x="378" y="0" on="1"/>
        <pt x="146" y="0" on="1"/>
        <pt x="85" y="0" on="1"/>
        <pt x="85" y="660" on="1"/>
        <pt x="206" y="660" on="1"/>
        <pt x="600" y="660" on="1"/>
        <pt x="600" y="559" on="1"/>
        <pt x="206" y="559" on="1"/>
        <pt x="206" y="375" on="1"/>
        <pt x="418" y="375" on="1"/>
        <pt x="418" y="278" on="1"/>
        <pt x="206" y="278" on="1"/>
        <pt x="206" y="101" on="1"/>
        <pt x="512" y="101" on="1"/>
        <pt x="533" y="101" on="1"/>
        <pt x="596" y="101" on="0"/>
        <pt x="657" y="142" on="0"/>
        <pt x="657" y="186" on="1"/>
        <pt x="657" y="226" on="0"/>
        <pt x="617" y="270" on="0"/>
        <pt x="582" y="272" on="1"/>
      </contour>
    </TTGlyph>
    <TTGlyph name="Ecircumflex" xMin="85" yMin="0" xMax="585" yMax="896">
      <contour>
        <pt x="325" y="831" on="1"/>
        <pt x="250" y="729" on="1"/>
        <pt x="151" y="729" on="1"/>
        <pt x="263" y="896" on="1"/>
        <pt x="386" y="896" on="1"/>
        <pt x="499" y="729" on="1"/>
        <pt x="399" y="729" on="1"/>
      </contour>
      <contour>
        <pt x="206" y="101" on="1"/>
        <pt x="585" y="101" on="1"/>
        <pt x="585" y="0" on="1"/>
        <pt x="146" y="0" on="1"/>
        <pt x="85" y="0" on="1"/>
        <pt x="85" y="660" on="1"/>
        <pt x="206" y="660" on="1"/>
        <pt x="571" y="660" on="1"/>
        <pt x="571" y="559" on="1"/>
        <pt x="206" y="559" on="1"/>
        <pt x="206" y="376" on="1"/>
        <pt x="525" y="376" on="1"/>
        <pt x="525" y="277" on="1"/>
        <pt x="206" y="277" on="1"/>
      </contour>
    </TTGlyph>
    <TTGlyph name="Ecircumflex.swsh" xMin="3" yMin="0" xMax="824" yMax="896">
      <contour>
        <pt x="564" y="831" on="1"/>
        <pt x="489" y="729" on="1"/>
        <pt x="390" y="729" on="1"/>
        <pt x="502" y="896" on="1"/>
        <pt x="625" y="896" on="1"/>
        <pt x="738" y="729" on="1"/>
        <pt x="638" y="729" on="1"/>
      </contour>
      <contour>
        <pt x="444" y="101" on="1"/>
        <pt x="824" y="101" on="1"/>
        <pt x="824" y="0" on="1"/>
        <pt x="384" y="0" on="1"/>
        <pt x="324" y="0" on="1"/>
        <pt x="324" y="568" on="1"/>
        <pt x="240" y="568" on="1"/>
        <pt x="182" y="568" on="0"/>
        <pt x="116" y="516" on="0"/>
        <pt x="116" y="467" on="1"/>
        <pt x="116" y="427" on="0"/>
        <pt x="171" y="372" on="0"/>
        <pt x="217" y="365" on="1"/>
        <pt x="177" y="278" on="1"/>
        <pt x="102" y="287" on="0"/>
        <pt x="3" y="390" on="0"/>
        <pt x="3" y="469" on="1"/>
        <pt x="3" y="559" on="0"/>
        <pt x="122" y="660" on="0"/>
        <pt x="227" y="660" on="1"/>
        <pt x="384" y="660" on="1"/>
        <pt x="451" y="660" on="1"/>
        <pt x="809" y="660" on="1"/>
        <pt x="809" y="559" on="1"/>
        <pt x="444" y="559" on="1"/>
        <pt x="444" y="376" on="1"/>
        <pt x="763" y="376" on="1"/>
        <pt x="763" y="277" on="1"/>
        <pt x="444" y="277" on="1"/>
      </contour>
    </TTGlyph>
    <TTGlyph name="Ecircumflex.swsh.001" xMin="85" yMin="0" xMax="767" yMax="896">
      <contour>
        <pt x="344" y="831" on="1"/>
        <pt x="269" y="729" on="1"/>
        <pt x="170" y="729" on="1"/>
        <pt x="282" y="896" on="1"/>
        <pt x="405" y="896" on="1"/>
        <pt x="518" y="729" on="1"/>
        <pt x="418" y="729" on="1"/>
      </contour>
      <contour>
        <pt x="624" y="355" on="1"/>
        <pt x="689" y="349" on="0"/>
        <pt x="767" y="258" on="0"/>
        <pt x="767" y="184" on="1"/>
        <pt x="767" y="93" on="0"/>
        <pt x="653" y="0" on="0"/>
        <pt x="553" y="0" on="1"/>
        <pt x="378" y="0" on="1"/>
        <pt x="146" y="0" on="1"/>
        <pt x="85" y="0" on="1"/>
        <pt x="85" y="660" on="1"/>
        <pt x="206" y="660" on="1"/>
        <pt x="600" y="660" on="1"/>
        <pt x="600" y="559" on="1"/>
        <pt x="206" y="559" on="1"/>
        <pt x="206" y="375" on="1"/>
        <pt x="418" y="375" on="1"/>
        <pt x="418" y="278" on="1"/>
        <pt x="206" y="278" on="1"/>
        <pt x="206" y="101" on="1"/>
        <pt x="512" y="101" on="1"/>
        <pt x="533" y="101" on="1"/>
        <pt x="596" y="101" on="0"/>
        <pt x="657" y="142" on="0"/>
        <pt x="657" y="186" on="1"/>
        <pt x="657" y="226" on="0"/>
        <pt x="617" y="270" on="0"/>
        <pt x="582" y="272" on="1"/>
      </contour>
    </TTGlyph>
    <TTGlyph name="Edieresis" xMin="85" yMin="0" xMax="585" yMax="868">
      <contour>
        <pt x="222" y="730" on="1"/>
        <pt x="194" y="730" on="0"/>
        <pt x="153" y="770" on="0"/>
        <pt x="153" y="828" on="0"/>
        <pt x="194" y="868" on="0"/>
        <pt x="222" y="868" on="1"/>
        <pt x="251" y="868" on="0"/>
        <pt x="292" y="827" on="0"/>
        <pt x="292" y="771" on="0"/>
        <pt x="251" y="730" on="0"/>
      </contour>
      <contour>
        <pt x="456" y="730" on="0"/>
        <pt x="398" y="730" on="0"/>
        <pt x="358" y="770" on="0"/>
        <pt x="358" y="828" on="0"/>
        <pt x="398" y="868" on="0"/>
        <pt x="456" y="868" on="0"/>
        <pt x="496" y="828" on="0"/>
        <pt x="496" y="770" on="0"/>
      </contour>
      <contour>
        <pt x="206" y="101" on="1"/>
        <pt x="585" y="101" on="1"/>
        <pt x="585" y="0" on="1"/>
        <pt x="146" y="0" on="1"/>
        <pt x="85" y="0" on="1"/>
        <pt x="85" y="660" on="1"/>
        <pt x="206" y="660" on="1"/>
        <pt x="571" y="660" on="1"/>
        <pt x="571" y="559" on="1"/>
        <pt x="206" y="559" on="1"/>
        <pt x="206" y="376" on="1"/>
        <pt x="525" y="376" on="1"/>
        <pt x="525" y="277" on="1"/>
        <pt x="206" y="277" on="1"/>
      </contour>
    </TTGlyph>
    <TTGlyph name="Edieresis.swsh" xMin="3" yMin="0" xMax="824" yMax="868">
      <contour>
        <pt x="460" y="730" on="1"/>
        <pt x="432" y="730" on="0"/>
        <pt x="391" y="770" on="0"/>
        <pt x="391" y="828" on="0"/>
        <pt x="432" y="868" on="0"/>
        <pt x="460" y="868" on="1"/>
        <pt x="489" y="868" on="0"/>
        <pt x="530" y="827" on="0"/>
        <pt x="530" y="771" on="0"/>
        <pt x="489" y="730" on="0"/>
      </contour>
      <contour>
        <pt x="694" y="730" on="0"/>
        <pt x="636" y="730" on="0"/>
        <pt x="596" y="770" on="0"/>
        <pt x="596" y="828" on="0"/>
        <pt x="636" y="868" on="0"/>
        <pt x="694" y="868" on="0"/>
        <pt x="734" y="828" on="0"/>
        <pt x="734" y="770" on="0"/>
      </contour>
      <contour>
        <pt x="444" y="101" on="1"/>
        <pt x="824" y="101" on="1"/>
        <pt x="824" y="0" on="1"/>
        <pt x="384" y="0" on="1"/>
        <pt x="324" y="0" on="1"/>
        <pt x="324" y="568" on="1"/>
        <pt x="240" y="568" on="1"/>
        <pt x="182" y="568" on="0"/>
        <pt x="116" y="516" on="0"/>
        <pt x="116" y="467" on="1"/>
        <pt x="116" y="427" on="0"/>
        <pt x="171" y="372" on="0"/>
        <pt x="217" y="365" on="1"/>
        <pt x="177" y="278" on="1"/>
        <pt x="102" y="287" on="0"/>
        <pt x="3" y="390" on="0"/>
        <pt x="3" y="469" on="1"/>
        <pt x="3" y="559" on="0"/>
        <pt x="122" y="660" on="0"/>
        <pt x="227" y="660" on="1"/>
        <pt x="384" y="660" on="1"/>
        <pt x="451" y="660" on="1"/>
        <pt x="809" y="660" on="1"/>
        <pt x="809" y="559" on="1"/>
        <pt x="444" y="559" on="1"/>
        <pt x="444" y="376" on="1"/>
        <pt x="763" y="376" on="1"/>
        <pt x="763" y="277" on="1"/>
        <pt x="444" y="277" on="1"/>
      </contour>
    </TTGlyph>
    <TTGlyph name="Edieresis.swsh.001" xMin="85" yMin="0" xMax="767" yMax="868">
      <contour>
        <pt x="270" y="730" on="0"/>
        <pt x="212" y="730" on="0"/>
        <pt x="172" y="770" on="0"/>
        <pt x="172" y="828" on="0"/>
        <pt x="212" y="868" on="0"/>
        <pt x="270" y="868" on="0"/>
        <pt x="311" y="827" on="0"/>
        <pt x="311" y="771" on="0"/>
      </contour>
      <contour>
        <pt x="474" y="730" on="0"/>
        <pt x="418" y="730" on="0"/>
        <pt x="377" y="770" on="0"/>
        <pt x="377" y="828" on="0"/>
        <pt x="418" y="868" on="0"/>
        <pt x="474" y="868" on="0"/>
        <pt x="515" y="828" on="0"/>
        <pt x="515" y="770" on="0"/>
      </contour>
      <contour>
        <pt x="624" y="355" on="1"/>
        <pt x="689" y="349" on="0"/>
        <pt x="767" y="258" on="0"/>
        <pt x="767" y="184" on="1"/>
        <pt x="767" y="93" on="0"/>
        <pt x="653" y="0" on="0"/>
        <pt x="553" y="0" on="1"/>
        <pt x="378" y="0" on="1"/>
        <pt x="146" y="0" on="1"/>
        <pt x="85" y="0" on="1"/>
        <pt x="85" y="660" on="1"/>
        <pt x="206" y="660" on="1"/>
        <pt x="600" y="660" on="1"/>
        <pt x="600" y="559" on="1"/>
        <pt x="206" y="559" on="1"/>
        <pt x="206" y="375" on="1"/>
        <pt x="418" y="375" on="1"/>
        <pt x="418" y="278" on="1"/>
        <pt x="206" y="278" on="1"/>
        <pt x="206" y="101" on="1"/>
        <pt x="512" y="101" on="1"/>
        <pt x="533" y="101" on="1"/>
        <pt x="596" y="101" on="0"/>
        <pt x="657" y="142" on="0"/>
        <pt x="657" y="186" on="1"/>
        <pt x="657" y="226" on="0"/>
        <pt x="617" y="270" on="0"/>
        <pt x="582" y="272" on="1"/>
      </contour>
    </TTGlyph>
    <TTGlyph name="Edotaccent" xMin="85" yMin="0" xMax="585" yMax="888">
      <contour>
        <pt x="326" y="740" on="1"/>
        <pt x="295" y="740" on="0"/>
        <pt x="251" y="784" on="0"/>
        <pt x="251" y="815" on="1"/>
        <pt x="251" y="845" on="0"/>
        <pt x="295" y="888" on="0"/>
        <pt x="326" y="888" on="1"/>
        <pt x="356" y="888" on="0"/>
        <pt x="399" y="845" on="0"/>
        <pt x="399" y="815" on="1"/>
        <pt x="399" y="784" on="0"/>
        <pt x="356" y="740" on="0"/>
      </contour>
      <contour>
        <pt x="206" y="101" on="1"/>
        <pt x="585" y="101" on="1"/>
        <pt x="585" y="0" on="1"/>
        <pt x="146" y="0" on="1"/>
        <pt x="85" y="0" on="1"/>
        <pt x="85" y="660" on="1"/>
        <pt x="206" y="660" on="1"/>
        <pt x="571" y="660" on="1"/>
        <pt x="571" y="559" on="1"/>
        <pt x="206" y="559" on="1"/>
        <pt x="206" y="376" on="1"/>
        <pt x="525" y="376" on="1"/>
        <pt x="525" y="277" on="1"/>
        <pt x="206" y="277" on="1"/>
      </contour>
    </TTGlyph>
    <TTGlyph name="Edotaccent.swsh" xMin="3" yMin="0" xMax="824" yMax="888">
      <contour>
        <pt x="565" y="740" on="1"/>
        <pt x="534" y="740" on="0"/>
        <pt x="490" y="784" on="0"/>
        <pt x="490" y="815" on="1"/>
        <pt x="490" y="845" on="0"/>
        <pt x="534" y="888" on="0"/>
        <pt x="565" y="888" on="1"/>
        <pt x="595" y="888" on="0"/>
        <pt x="638" y="845" on="0"/>
        <pt x="638" y="815" on="1"/>
        <pt x="638" y="784" on="0"/>
        <pt x="595" y="740" on="0"/>
      </contour>
      <contour>
        <pt x="444" y="101" on="1"/>
        <pt x="824" y="101" on="1"/>
        <pt x="824" y="0" on="1"/>
        <pt x="384" y="0" on="1"/>
        <pt x="324" y="0" on="1"/>
        <pt x="324" y="568" on="1"/>
        <pt x="240" y="568" on="1"/>
        <pt x="182" y="568" on="0"/>
        <pt x="116" y="516" on="0"/>
        <pt x="116" y="467" on="1"/>
        <pt x="116" y="427" on="0"/>
        <pt x="171" y="372" on="0"/>
        <pt x="217" y="365" on="1"/>
        <pt x="177" y="278" on="1"/>
        <pt x="102" y="287" on="0"/>
        <pt x="3" y="390" on="0"/>
        <pt x="3" y="469" on="1"/>
        <pt x="3" y="559" on="0"/>
        <pt x="122" y="660" on="0"/>
        <pt x="227" y="660" on="1"/>
        <pt x="384" y="660" on="1"/>
        <pt x="451" y="660" on="1"/>
        <pt x="809" y="660" on="1"/>
        <pt x="809" y="559" on="1"/>
        <pt x="444" y="559" on="1"/>
        <pt x="444" y="376" on="1"/>
        <pt x="763" y="376" on="1"/>
        <pt x="763" y="277" on="1"/>
        <pt x="444" y="277" on="1"/>
      </contour>
    </TTGlyph>
    <TTGlyph name="Edotaccent.swsh.001" xMin="85" yMin="0" xMax="767" yMax="888">
      <contour>
        <pt x="345" y="740" on="1"/>
        <pt x="314" y="740" on="0"/>
        <pt x="270" y="784" on="0"/>
        <pt x="270" y="815" on="1"/>
        <pt x="270" y="845" on="0"/>
        <pt x="314" y="888" on="0"/>
        <pt x="345" y="888" on="1"/>
        <pt x="375" y="888" on="0"/>
        <pt x="418" y="845" on="0"/>
        <pt x="418" y="815" on="1"/>
        <pt x="418" y="784" on="0"/>
        <pt x="375" y="740" on="0"/>
      </contour>
      <contour>
        <pt x="624" y="355" on="1"/>
        <pt x="689" y="349" on="0"/>
        <pt x="767" y="258" on="0"/>
        <pt x="767" y="184" on="1"/>
        <pt x="767" y="93" on="0"/>
        <pt x="653" y="0" on="0"/>
        <pt x="553" y="0" on="1"/>
        <pt x="378" y="0" on="1"/>
        <pt x="146" y="0" on="1"/>
        <pt x="85" y="0" on="1"/>
        <pt x="85" y="660" on="1"/>
        <pt x="206" y="660" on="1"/>
        <pt x="600" y="660" on="1"/>
        <pt x="600" y="559" on="1"/>
        <pt x="206" y="559" on="1"/>
        <pt x="206" y="375" on="1"/>
        <pt x="418" y="375" on="1"/>
        <pt x="418" y="278" on="1"/>
        <pt x="206" y="278" on="1"/>
        <pt x="206" y="101" on="1"/>
        <pt x="512" y="101" on="1"/>
        <pt x="533" y="101" on="1"/>
        <pt x="596" y="101" on="0"/>
        <pt x="657" y="142" on="0"/>
        <pt x="657" y="186" on="1"/>
        <pt x="657" y="226" on="0"/>
        <pt x="617" y="270" on="0"/>
        <pt x="582" y="272" on="1"/>
      </contour>
    </TTGlyph>
    <TTGlyph name="Egrave" xMin="85" yMin="0" xMax="585" yMax="887">
      <contour>
        <pt x="387" y="734" on="1"/>
        <pt x="281" y="734" on="1"/>
        <pt x="218" y="887" on="1"/>
        <pt x="331" y="887" on="1"/>
      </contour>
      <contour>
        <pt x="206" y="101" on="1"/>
        <pt x="585" y="101" on="1"/>
        <pt x="585" y="0" on="1"/>
        <pt x="146" y="0" on="1"/>
        <pt x="85" y="0" on="1"/>
        <pt x="85" y="660" on="1"/>
        <pt x="206" y="660" on="1"/>
        <pt x="571" y="660" on="1"/>
        <pt x="571" y="559" on="1"/>
        <pt x="206" y="559" on="1"/>
        <pt x="206" y="376" on="1"/>
        <pt x="525" y="376" on="1"/>
        <pt x="525" y="277" on="1"/>
        <pt x="206" y="277" on="1"/>
      </contour>
    </TTGlyph>
    <TTGlyph name="Egrave.swsh" xMin="3" yMin="0" xMax="824" yMax="887">
      <contour>
        <pt x="607" y="734" on="1"/>
        <pt x="501" y="734" on="1"/>
        <pt x="438" y="887" on="1"/>
        <pt x="551" y="887" on="1"/>
      </contour>
      <contour>
        <pt x="444" y="101" on="1"/>
        <pt x="824" y="101" on="1"/>
        <pt x="824" y="0" on="1"/>
        <pt x="384" y="0" on="1"/>
        <pt x="324" y="0" on="1"/>
        <pt x="324" y="568" on="1"/>
        <pt x="240" y="568" on="1"/>
        <pt x="182" y="568" on="0"/>
        <pt x="116" y="516" on="0"/>
        <pt x="116" y="467" on="1"/>
        <pt x="116" y="427" on="0"/>
        <pt x="171" y="372" on="0"/>
        <pt x="217" y="365" on="1"/>
        <pt x="177" y="278" on="1"/>
        <pt x="102" y="287" on="0"/>
        <pt x="3" y="390" on="0"/>
        <pt x="3" y="469" on="1"/>
        <pt x="3" y="559" on="0"/>
        <pt x="122" y="660" on="0"/>
        <pt x="227" y="660" on="1"/>
        <pt x="384" y="660" on="1"/>
        <pt x="451" y="660" on="1"/>
        <pt x="809" y="660" on="1"/>
        <pt x="809" y="559" on="1"/>
        <pt x="444" y="559" on="1"/>
        <pt x="444" y="376" on="1"/>
        <pt x="763" y="376" on="1"/>
        <pt x="763" y="277" on="1"/>
        <pt x="444" y="277" on="1"/>
      </contour>
    </TTGlyph>
    <TTGlyph name="Egrave.swsh.001" xMin="85" yMin="0" xMax="767" yMax="887">
      <contour>
        <pt x="387" y="734" on="1"/>
        <pt x="281" y="734" on="1"/>
        <pt x="218" y="887" on="1"/>
        <pt x="331" y="887" on="1"/>
      </contour>
      <contour>
        <pt x="624" y="355" on="1"/>
        <pt x="689" y="349" on="0"/>
        <pt x="767" y="258" on="0"/>
        <pt x="767" y="184" on="1"/>
        <pt x="767" y="93" on="0"/>
        <pt x="653" y="0" on="0"/>
        <pt x="553" y="0" on="1"/>
        <pt x="378" y="0" on="1"/>
        <pt x="146" y="0" on="1"/>
        <pt x="85" y="0" on="1"/>
        <pt x="85" y="660" on="1"/>
        <pt x="206" y="660" on="1"/>
        <pt x="600" y="660" on="1"/>
        <pt x="600" y="559" on="1"/>
        <pt x="206" y="559" on="1"/>
        <pt x="206" y="375" on="1"/>
        <pt x="418" y="375" on="1"/>
        <pt x="418" y="278" on="1"/>
        <pt x="206" y="278" on="1"/>
        <pt x="206" y="101" on="1"/>
        <pt x="512" y="101" on="1"/>
        <pt x="533" y="101" on="1"/>
        <pt x="596" y="101" on="0"/>
        <pt x="657" y="142" on="0"/>
        <pt x="657" y="186" on="1"/>
        <pt x="657" y="226" on="0"/>
        <pt x="617" y="270" on="0"/>
        <pt x="582" y="272" on="1"/>
      </contour>
    </TTGlyph>
    <TTGlyph name="Emacron" xMin="85" yMin="0" xMax="585" yMax="828">
      <contour>
        <pt x="504" y="828" on="1"/>
        <pt x="504" y="744" on="1"/>
        <pt x="145" y="744" on="1"/>
        <pt x="145" y="828" on="1"/>
      </contour>
      <contour>
        <pt x="206" y="101" on="1"/>
        <pt x="585" y="101" on="1"/>
        <pt x="585" y="0" on="1"/>
        <pt x="146" y="0" on="1"/>
        <pt x="85" y="0" on="1"/>
        <pt x="85" y="660" on="1"/>
        <pt x="206" y="660" on="1"/>
        <pt x="571" y="660" on="1"/>
        <pt x="571" y="559" on="1"/>
        <pt x="206" y="559" on="1"/>
        <pt x="206" y="376" on="1"/>
        <pt x="525" y="376" on="1"/>
        <pt x="525" y="277" on="1"/>
        <pt x="206" y="277" on="1"/>
      </contour>
    </TTGlyph>
    <TTGlyph name="Emacron.swsh" xMin="3" yMin="0" xMax="824" yMax="828">
      <contour>
        <pt x="743" y="828" on="1"/>
        <pt x="743" y="744" on="1"/>
        <pt x="384" y="744" on="1"/>
        <pt x="384" y="828" on="1"/>
      </contour>
      <contour>
        <pt x="444" y="101" on="1"/>
        <pt x="824" y="101" on="1"/>
        <pt x="824" y="0" on="1"/>
        <pt x="384" y="0" on="1"/>
        <pt x="324" y="0" on="1"/>
        <pt x="324" y="568" on="1"/>
        <pt x="240" y="568" on="1"/>
        <pt x="182" y="568" on="0"/>
        <pt x="116" y="516" on="0"/>
        <pt x="116" y="467" on="1"/>
        <pt x="116" y="427" on="0"/>
        <pt x="171" y="372" on="0"/>
        <pt x="217" y="365" on="1"/>
        <pt x="177" y="278" on="1"/>
        <pt x="102" y="287" on="0"/>
        <pt x="3" y="390" on="0"/>
        <pt x="3" y="469" on="1"/>
        <pt x="3" y="559" on="0"/>
        <pt x="122" y="660" on="0"/>
        <pt x="227" y="660" on="1"/>
        <pt x="384" y="660" on="1"/>
        <pt x="451" y="660" on="1"/>
        <pt x="809" y="660" on="1"/>
        <pt x="809" y="559" on="1"/>
        <pt x="444" y="559" on="1"/>
        <pt x="444" y="376" on="1"/>
        <pt x="763" y="376" on="1"/>
        <pt x="763" y="277" on="1"/>
        <pt x="444" y="277" on="1"/>
      </contour>
    </TTGlyph>
    <TTGlyph name="Emacron.swsh.001" xMin="85" yMin="0" xMax="767" yMax="828">
      <contour>
        <pt x="523" y="828" on="1"/>
        <pt x="523" y="744" on="1"/>
        <pt x="164" y="744" on="1"/>
        <pt x="164" y="828" on="1"/>
      </contour>
      <contour>
        <pt x="624" y="355" on="1"/>
        <pt x="689" y="349" on="0"/>
        <pt x="767" y="258" on="0"/>
        <pt x="767" y="184" on="1"/>
        <pt x="767" y="93" on="0"/>
        <pt x="653" y="0" on="0"/>
        <pt x="553" y="0" on="1"/>
        <pt x="378" y="0" on="1"/>
        <pt x="146" y="0" on="1"/>
        <pt x="85" y="0" on="1"/>
        <pt x="85" y="660" on="1"/>
        <pt x="206" y="660" on="1"/>
        <pt x="600" y="660" on="1"/>
        <pt x="600" y="559" on="1"/>
        <pt x="206" y="559" on="1"/>
        <pt x="206" y="375" on="1"/>
        <pt x="418" y="375" on="1"/>
        <pt x="418" y="278" on="1"/>
        <pt x="206" y="278" on="1"/>
        <pt x="206" y="101" on="1"/>
        <pt x="512" y="101" on="1"/>
        <pt x="533" y="101" on="1"/>
        <pt x="596" y="101" on="0"/>
        <pt x="657" y="142" on="0"/>
        <pt x="657" y="186" on="1"/>
        <pt x="657" y="226" on="0"/>
        <pt x="617" y="270" on="0"/>
        <pt x="582" y="272" on="1"/>
      </contour>
    </TTGlyph>
    <TTGlyph name="Eogonek" xMin="85" yMin="-215" xMax="595" yMax="660">
      <contour>
        <pt x="576" y="-129" on="1"/>
        <pt x="595" y="-194" on="1"/>
        <pt x="563" y="-215" on="0"/>
        <pt x="503" y="-215" on="1"/>
        <pt x="445" y="-215" on="0"/>
        <pt x="376" y="-160" on="0"/>
        <pt x="376" y="-111" on="1"/>
        <pt x="376" y="-36" on="0"/>
        <pt x="460" y="0" on="1"/>
        <pt x="146" y="0" on="1"/>
        <pt x="85" y="0" on="1"/>
        <pt x="85" y="660" on="1"/>
        <pt x="206" y="660" on="1"/>
        <pt x="571" y="660" on="1"/>
        <pt x="571" y="559" on="1"/>
        <pt x="206" y="559" on="1"/>
        <pt x="206" y="376" on="1"/>
        <pt x="525" y="376" on="1"/>
        <pt x="525" y="277" on="1"/>
        <pt x="206" y="277" on="1"/>
        <pt x="206" y="101" on="1"/>
        <pt x="585" y="101" on="1"/>
        <pt x="585" y="0" on="1"/>
        <pt x="517" y="-18" on="0"/>
        <pt x="464" y="-64" on="0"/>
        <pt x="464" y="-93" on="1"/>
        <pt x="464" y="-115" on="0"/>
        <pt x="496" y="-141" on="0"/>
        <pt x="524" y="-141" on="1"/>
        <pt x="559" y="-141" on="0"/>
      </contour>
    </TTGlyph>
    <TTGlyph name="Eogonek.swsh" xMin="3" yMin="-215" xMax="833" yMax="660">
      <contour>
        <pt x="814" y="-129" on="1"/>
        <pt x="833" y="-194" on="1"/>
        <pt x="801" y="-215" on="0"/>
        <pt x="741" y="-215" on="1"/>
        <pt x="683" y="-215" on="0"/>
        <pt x="614" y="-160" on="0"/>
        <pt x="614" y="-111" on="1"/>
        <pt x="614" y="-36" on="0"/>
        <pt x="698" y="0" on="1"/>
        <pt x="384" y="0" on="1"/>
        <pt x="324" y="0" on="1"/>
        <pt x="324" y="568" on="1"/>
        <pt x="240" y="568" on="1"/>
        <pt x="182" y="568" on="0"/>
        <pt x="116" y="516" on="0"/>
        <pt x="116" y="467" on="1"/>
        <pt x="116" y="427" on="0"/>
        <pt x="171" y="372" on="0"/>
        <pt x="217" y="365" on="1"/>
        <pt x="177" y="278" on="1"/>
        <pt x="102" y="287" on="0"/>
        <pt x="3" y="390" on="0"/>
        <pt x="3" y="469" on="1"/>
        <pt x="3" y="559" on="0"/>
        <pt x="122" y="660" on="0"/>
        <pt x="227" y="660" on="1"/>
        <pt x="384" y="660" on="1"/>
        <pt x="451" y="660" on="1"/>
        <pt x="809" y="660" on="1"/>
        <pt x="809" y="559" on="1"/>
        <pt x="444" y="559" on="1"/>
        <pt x="444" y="376" on="1"/>
        <pt x="763" y="376" on="1"/>
        <pt x="763" y="277" on="1"/>
        <pt x="444" y="277" on="1"/>
        <pt x="444" y="101" on="1"/>
        <pt x="824" y="101" on="1"/>
        <pt x="824" y="0" on="1"/>
        <pt x="823" y="0" on="1"/>
        <pt x="755" y="-18" on="0"/>
        <pt x="702" y="-64" on="0"/>
        <pt x="702" y="-93" on="1"/>
        <pt x="702" y="-115" on="0"/>
        <pt x="734" y="-141" on="0"/>
        <pt x="762" y="-141" on="1"/>
        <pt x="797" y="-141" on="0"/>
      </contour>
    </TTGlyph>
    <TTGlyph name="Eth" xMin="13" yMin="0" xMax="696" yMax="660">
      <contour>
        <pt x="370" y="660" on="1"/>
        <pt x="526" y="660" on="0"/>
        <pt x="696" y="488" on="0"/>
        <pt x="696" y="172" on="0"/>
        <pt x="526" y="0" on="0"/>
        <pt x="370" y="0" on="1"/>
        <pt x="178" y="0" on="1"/>
        <pt x="104" y="0" on="1"/>
        <pt x="104" y="290" on="1"/>
        <pt x="13" y="290" on="1"/>
        <pt x="13" y="374" on="1"/>
        <pt x="104" y="374" on="1"/>
        <pt x="104" y="660" on="1"/>
        <pt x="225" y="660" on="1"/>
      </contour>
      <contour>
        <pt x="367" y="99" on="1"/>
        <pt x="466" y="99" on="0"/>
        <pt x="574" y="222" on="0"/>
        <pt x="574" y="438" on="0"/>
        <pt x="466" y="561" on="0"/>
        <pt x="367" y="561" on="1"/>
        <pt x="225" y="561" on="1"/>
        <pt x="225" y="374" on="1"/>
        <pt x="393" y="374" on="1"/>
        <pt x="393" y="290" on="1"/>
        <pt x="225" y="290" on="1"/>
        <pt x="225" y="99" on="1"/>
      </contour>
    </TTGlyph>
    <TTGlyph name="Euro" xMin="-56" yMin="-17" xMax="657" yMax="677">
      <contour>
        <pt x="561" y="191" on="1"/>
        <pt x="657" y="126" on="1"/>
        <pt x="610" y="60" on="0"/>
        <pt x="463" y="-17" on="0"/>
        <pt x="378" y="-17" on="1"/>
        <pt x="265" y="-17" on="0"/>
        <pt x="86" y="113" on="0"/>
        <pt x="50" y="216" on="1"/>
        <pt x="-56" y="216" on="1"/>
        <pt x="-26" y="287" on="1"/>
        <pt x="33" y="287" on="1"/>
        <pt x="30" y="308" on="0"/>
        <pt x="30" y="331" on="1"/>
        <pt x="30" y="336" on="0"/>
        <pt x="31" y="354" on="0"/>
        <pt x="31" y="358" on="1"/>
        <pt x="-56" y="358" on="1"/>
        <pt x="-26" y="429" on="1"/>
        <pt x="44" y="429" on="1"/>
        <pt x="77" y="538" on="0"/>
        <pt x="262" y="677" on="0"/>
        <pt x="378" y="677" on="1"/>
        <pt x="462" y="677" on="0"/>
        <pt x="609" y="601" on="0"/>
        <pt x="657" y="535" on="1"/>
        <pt x="561" y="471" on="1"/>
        <pt x="529" y="513" on="0"/>
        <pt x="433" y="562" on="0"/>
        <pt x="378" y="562" on="1"/>
        <pt x="310" y="562" on="0"/>
        <pt x="197" y="489" on="0"/>
        <pt x="168" y="429" on="1"/>
        <pt x="452" y="429" on="1"/>
        <pt x="429" y="358" on="1"/>
        <pt x="148" y="358" on="1"/>
        <pt x="146" y="340" on="0"/>
        <pt x="146" y="330" on="1"/>
        <pt x="146" y="315" on="0"/>
        <pt x="150" y="287" on="1"/>
        <pt x="412" y="287" on="1"/>
        <pt x="391" y="216" on="1"/>
        <pt x="177" y="216" on="1"/>
        <pt x="208" y="163" on="0"/>
        <pt x="315" y="99" on="0"/>
        <pt x="378" y="99" on="1"/>
        <pt x="492" y="99" on="0"/>
      </contour>
    </TTGlyph>
    <TTGlyph name="Euro.tf" xMin="9" yMin="-10" xMax="580" yMax="670">
      <contour>
        <pt x="482" y="201" on="1"/>
        <pt x="580" y="170" on="1"/>
        <pt x="561" y="86" on="0"/>
        <pt x="437" y="-10" on="0"/>
        <pt x="345" y="-10" on="1"/>
        <pt x="247" y="-10" on="0"/>
        <pt x="119" y="106" on="0"/>
        <pt x="96" y="212" on="1"/>
        <pt x="9" y="212" on="1"/>
        <pt x="9" y="282" on="1"/>
        <pt x="86" y="282" on="1"/>
        <pt x="84" y="314" on="0"/>
        <pt x="84" y="330" on="1"/>
        <pt x="84" y="348" on="0"/>
        <pt x="85" y="357" on="1"/>
        <pt x="9" y="357" on="1"/>
        <pt x="9" y="428" on="1"/>
        <pt x="92" y="428" on="1"/>
        <pt x="112" y="543" on="0"/>
        <pt x="247" y="670" on="0"/>
        <pt x="350" y="670" on="1"/>
        <pt x="531" y="670" on="0"/>
        <pt x="569" y="518" on="1"/>
        <pt x="474" y="472" on="1"/>
        <pt x="467" y="523" on="0"/>
        <pt x="405" y="578" on="0"/>
        <pt x="356" y="578" on="1"/>
        <pt x="300" y="578" on="0"/>
        <pt x="218" y="500" on="0"/>
        <pt x="201" y="428" on="1"/>
        <pt x="403" y="428" on="1"/>
        <pt x="384" y="357" on="1"/>
        <pt x="192" y="357" on="1"/>
        <pt x="191" y="348" on="0"/>
        <pt x="191" y="330" on="1"/>
        <pt x="191" y="314" on="0"/>
        <pt x="193" y="282" on="1"/>
        <pt x="366" y="282" on="1"/>
        <pt x="347" y="212" on="1"/>
        <pt x="205" y="212" on="1"/>
        <pt x="243" y="82" on="0"/>
        <pt x="347" y="82" on="1"/>
        <pt x="404" y="82" on="0"/>
        <pt x="475" y="143" on="0"/>
      </contour>
    </TTGlyph>
    <TTGlyph name="F" xMin="79" yMin="0" xMax="564" yMax="660">
      <contour>
        <pt x="564" y="552" on="1"/>
        <pt x="200" y="552" on="1"/>
        <pt x="200" y="362" on="1"/>
        <pt x="518" y="362" on="1"/>
        <pt x="518" y="253" on="1"/>
        <pt x="200" y="253" on="1"/>
        <pt x="200" y="0" on="1"/>
        <pt x="79" y="0" on="1"/>
        <pt x="79" y="660" on="1"/>
        <pt x="200" y="660" on="1"/>
        <pt x="564" y="660" on="1"/>
      </contour>
    </TTGlyph>
    <TTGlyph name="F.swsh" xMin="3" yMin="0" xMax="796" yMax="660">
      <contour>
        <pt x="796" y="552" on="1"/>
        <pt x="432" y="552" on="1"/>
        <pt x="432" y="362" on="1"/>
        <pt x="750" y="362" on="1"/>
        <pt x="750" y="253" on="1"/>
        <pt x="432" y="253" on="1"/>
        <pt x="432" y="0" on="1"/>
        <pt x="311" y="0" on="1"/>
        <pt x="311" y="568" on="1"/>
        <pt x="240" y="568" on="1"/>
        <pt x="182" y="568" on="0"/>
        <pt x="116" y="516" on="0"/>
        <pt x="116" y="467" on="1"/>
        <pt x="116" y="427" on="0"/>
        <pt x="171" y="372" on="0"/>
        <pt x="217" y="365" on="1"/>
        <pt x="177" y="278" on="1"/>
        <pt x="102" y="287" on="0"/>
        <pt x="3" y="390" on="0"/>
        <pt x="3" y="469" on="1"/>
        <pt x="3" y="559" on="0"/>
        <pt x="122" y="660" on="0"/>
        <pt x="227" y="660" on="1"/>
        <pt x="372" y="660" on="1"/>
        <pt x="451" y="660" on="1"/>
        <pt x="796" y="660" on="1"/>
      </contour>
    </TTGlyph>
    <TTGlyph name="G" xMin="33" yMin="-11" xMax="715" yMax="671">
      <contour>
        <pt x="410" y="332" on="1"/>
        <pt x="715" y="332" on="1"/>
        <pt x="715" y="311" on="1"/>
        <pt x="708" y="175" on="0"/>
        <pt x="509" y="-11" on="0"/>
        <pt x="372" y="-11" on="1"/>
        <pt x="231" y="-11" on="0"/>
        <pt x="33" y="187" on="0"/>
        <pt x="33" y="330" on="1"/>
        <pt x="33" y="472" on="0"/>
        <pt x="231" y="671" on="0"/>
        <pt x="372" y="671" on="1"/>
        <pt x="453" y="671" on="0"/>
        <pt x="595" y="600" on="0"/>
        <pt x="643" y="538" on="1"/>
        <pt x="549" y="470" on="1"/>
        <pt x="518" y="510" on="0"/>
        <pt x="424" y="557" on="0"/>
        <pt x="372" y="557" on="1"/>
        <pt x="279" y="557" on="0"/>
        <pt x="150" y="424" on="0"/>
        <pt x="150" y="329" on="1"/>
        <pt x="150" y="235" on="0"/>
        <pt x="279" y="103" on="0"/>
        <pt x="372" y="103" on="1"/>
        <pt x="438" y="103" on="0"/>
        <pt x="549" y="173" on="0"/>
        <pt x="577" y="230" on="1"/>
        <pt x="410" y="230" on="1"/>
      </contour>
    </TTGlyph>
    <TTGlyph name="G.ss04" xMin="30" yMin="-17" xMax="725" yMax="677">
      <contour>
        <pt x="415" y="328" on="1"/>
        <pt x="725" y="328" on="1"/>
        <pt x="725" y="312" on="1"/>
        <pt x="717" y="174" on="0"/>
        <pt x="517" y="-17" on="0"/>
        <pt x="378" y="-17" on="1"/>
        <pt x="234" y="-17" on="0"/>
        <pt x="30" y="187" on="0"/>
        <pt x="30" y="331" on="1"/>
        <pt x="30" y="474" on="0"/>
        <pt x="234" y="677" on="0"/>
        <pt x="378" y="677" on="1"/>
        <pt x="460" y="677" on="0"/>
        <pt x="603" y="606" on="0"/>
        <pt x="652" y="543" on="1"/>
        <pt x="556" y="474" on="1"/>
        <pt x="525" y="514" on="0"/>
        <pt x="431" y="561" on="0"/>
        <pt x="378" y="561" on="1"/>
        <pt x="284" y="561" on="0"/>
        <pt x="149" y="425" on="0"/>
        <pt x="149" y="235" on="0"/>
        <pt x="284" y="99" on="0"/>
        <pt x="378" y="99" on="1"/>
        <pt x="443" y="99" on="0"/>
        <pt x="553" y="168" on="0"/>
        <pt x="582" y="225" on="1"/>
        <pt x="415" y="225" on="1"/>
      </contour>
    </TTGlyph>
    <TTGlyph name="Gbreve" xMin="33" yMin="-11" xMax="715" yMax="882">
      <contour>
        <pt x="373" y="727" on="1"/>
        <pt x="301" y="727" on="0"/>
        <pt x="215" y="811" on="0"/>
        <pt x="215" y="882" on="1"/>
        <pt x="301" y="882" on="1"/>
        <pt x="301" y="848" on="0"/>
        <pt x="341" y="803" on="0"/>
        <pt x="373" y="803" on="1"/>
        <pt x="404" y="803" on="0"/>
        <pt x="445" y="849" on="0"/>
        <pt x="445" y="882" on="1"/>
        <pt x="530" y="882" on="1"/>
        <pt x="530" y="812" on="0"/>
        <pt x="444" y="727" on="0"/>
      </contour>
      <contour>
        <pt x="410" y="332" on="1"/>
        <pt x="715" y="332" on="1"/>
        <pt x="715" y="311" on="1"/>
        <pt x="708" y="175" on="0"/>
        <pt x="509" y="-11" on="0"/>
        <pt x="372" y="-11" on="1"/>
        <pt x="231" y="-11" on="0"/>
        <pt x="33" y="187" on="0"/>
        <pt x="33" y="330" on="1"/>
        <pt x="33" y="472" on="0"/>
        <pt x="231" y="671" on="0"/>
        <pt x="372" y="671" on="1"/>
        <pt x="453" y="671" on="0"/>
        <pt x="595" y="600" on="0"/>
        <pt x="643" y="538" on="1"/>
        <pt x="549" y="470" on="1"/>
        <pt x="518" y="510" on="0"/>
        <pt x="424" y="557" on="0"/>
        <pt x="372" y="557" on="1"/>
        <pt x="279" y="557" on="0"/>
        <pt x="150" y="424" on="0"/>
        <pt x="150" y="329" on="1"/>
        <pt x="150" y="235" on="0"/>
        <pt x="279" y="103" on="0"/>
        <pt x="372" y="103" on="1"/>
        <pt x="438" y="103" on="0"/>
        <pt x="549" y="173" on="0"/>
        <pt x="577" y="230" on="1"/>
        <pt x="410" y="230" on="1"/>
      </contour>
    </TTGlyph>
    <TTGlyph name="Gbreve.ss04" xMin="30" yMin="-17" xMax="725" yMax="882">
      <contour>
        <pt x="364" y="727" on="1"/>
        <pt x="292" y="727" on="0"/>
        <pt x="206" y="811" on="0"/>
        <pt x="206" y="882" on="1"/>
        <pt x="292" y="882" on="1"/>
        <pt x="292" y="848" on="0"/>
        <pt x="332" y="803" on="0"/>
        <pt x="364" y="803" on="1"/>
        <pt x="395" y="803" on="0"/>
        <pt x="436" y="849" on="0"/>
        <pt x="436" y="882" on="1"/>
        <pt x="521" y="882" on="1"/>
        <pt x="521" y="812" on="0"/>
        <pt x="435" y="727" on="0"/>
      </contour>
      <contour>
        <pt x="415" y="328" on="1"/>
        <pt x="725" y="328" on="1"/>
        <pt x="725" y="312" on="1"/>
        <pt x="717" y="174" on="0"/>
        <pt x="517" y="-17" on="0"/>
        <pt x="378" y="-17" on="1"/>
        <pt x="234" y="-17" on="0"/>
        <pt x="30" y="187" on="0"/>
        <pt x="30" y="331" on="1"/>
        <pt x="30" y="474" on="0"/>
        <pt x="234" y="677" on="0"/>
        <pt x="378" y="677" on="1"/>
        <pt x="460" y="677" on="0"/>
        <pt x="603" y="606" on="0"/>
        <pt x="652" y="543" on="1"/>
        <pt x="556" y="474" on="1"/>
        <pt x="525" y="514" on="0"/>
        <pt x="431" y="561" on="0"/>
        <pt x="378" y="561" on="1"/>
        <pt x="284" y="561" on="0"/>
        <pt x="149" y="425" on="0"/>
        <pt x="149" y="235" on="0"/>
        <pt x="284" y="99" on="0"/>
        <pt x="378" y="99" on="1"/>
        <pt x="443" y="99" on="0"/>
        <pt x="553" y="168" on="0"/>
        <pt x="582" y="225" on="1"/>
        <pt x="415" y="225" on="1"/>
      </contour>
    </TTGlyph>
    <TTGlyph name="Gcommaaccent.sc" xMin="31" yMin="-240" xMax="618" yMax="572">
      <contour>
        <pt x="618" y="282" on="1"/>
        <pt x="618" y="267" on="1"/>
        <pt x="612" y="150" on="0"/>
        <pt x="443" y="-12" on="0"/>
        <pt x="325" y="-12" on="1"/>
        <pt x="203" y="-12" on="0"/>
        <pt x="31" y="160" on="0"/>
        <pt x="31" y="282" on="1"/>
        <pt x="31" y="403" on="0"/>
        <pt x="203" y="572" on="0"/>
        <pt x="325" y="572" on="1"/>
        <pt x="401" y="572" on="0"/>
        <pt x="529" y="504" on="0"/>
        <pt x="568" y="444" on="1"/>
        <pt x="485" y="382" on="1"/>
        <pt x="460" y="422" on="0"/>
        <pt x="376" y="467" on="0"/>
        <pt x="325" y="467" on="1"/>
        <pt x="246" y="467" on="0"/>
        <pt x="136" y="360" on="0"/>
        <pt x="136" y="204" on="0"/>
        <pt x="246" y="94" on="0"/>
        <pt x="325" y="94" on="1"/>
        <pt x="382" y="94" on="0"/>
        <pt x="474" y="154" on="0"/>
        <pt x="497" y="204" on="1"/>
        <pt x="353" y="204" on="1"/>
        <pt x="353" y="282" on="1"/>
      </contour>
      <contour>
        <pt x="211" y="-240" on="1"/>
        <pt x="272" y="-70" on="1"/>
        <pt x="366" y="-70" on="1"/>
        <pt x="305" y="-240" on="1"/>
      </contour>
    </TTGlyph>
    <TTGlyph name="Gcommaaccent.sc.ss04" xMin="31" yMin="-239" xMax="618" yMax="572">
      <contour>
        <pt x="618" y="282" on="1"/>
        <pt x="618" y="267" on="1"/>
        <pt x="612" y="150" on="0"/>
        <pt x="443" y="-12" on="0"/>
        <pt x="325" y="-12" on="1"/>
        <pt x="203" y="-12" on="0"/>
        <pt x="31" y="160" on="0"/>
        <pt x="31" y="282" on="1"/>
        <pt x="31" y="403" on="0"/>
        <pt x="203" y="572" on="0"/>
        <pt x="325" y="572" on="1"/>
        <pt x="401" y="572" on="0"/>
        <pt x="529" y="504" on="0"/>
        <pt x="568" y="444" on="1"/>
        <pt x="485" y="382" on="1"/>
        <pt x="460" y="422" on="0"/>
        <pt x="376" y="467" on="0"/>
        <pt x="325" y="467" on="1"/>
        <pt x="246" y="467" on="0"/>
        <pt x="136" y="360" on="0"/>
        <pt x="136" y="204" on="0"/>
        <pt x="246" y="94" on="0"/>
        <pt x="325" y="94" on="1"/>
        <pt x="382" y="94" on="0"/>
        <pt x="474" y="154" on="0"/>
        <pt x="497" y="204" on="1"/>
        <pt x="353" y="204" on="1"/>
        <pt x="353" y="282" on="1"/>
      </contour>
      <contour>
        <pt x="229" y="-239" on="1"/>
        <pt x="291" y="-69" on="1"/>
        <pt x="384" y="-69" on="1"/>
        <pt x="323" y="-239" on="1"/>
      </contour>
    </TTGlyph>
    <TTGlyph name="Gcommaaccent.ss04" xMin="30" yMin="-234" xMax="725" yMax="677">
      <contour>
        <pt x="415" y="328" on="1"/>
        <pt x="725" y="328" on="1"/>
        <pt x="725" y="312" on="1"/>
        <pt x="717" y="174" on="0"/>
        <pt x="517" y="-17" on="0"/>
        <pt x="378" y="-17" on="1"/>
        <pt x="234" y="-17" on="0"/>
        <pt x="30" y="187" on="0"/>
        <pt x="30" y="331" on="1"/>
        <pt x="30" y="474" on="0"/>
        <pt x="234" y="677" on="0"/>
        <pt x="378" y="677" on="1"/>
        <pt x="460" y="677" on="0"/>
        <pt x="603" y="606" on="0"/>
        <pt x="652" y="543" on="1"/>
        <pt x="556" y="474" on="1"/>
        <pt x="525" y="514" on="0"/>
        <pt x="431" y="561" on="0"/>
        <pt x="378" y="561" on="1"/>
        <pt x="284" y="561" on="0"/>
        <pt x="149" y="425" on="0"/>
        <pt x="149" y="235" on="0"/>
        <pt x="284" y="99" on="0"/>
        <pt x="378" y="99" on="1"/>
        <pt x="443" y="99" on="0"/>
        <pt x="553" y="168" on="0"/>
        <pt x="582" y="225" on="1"/>
        <pt x="415" y="225" on="1"/>
      </contour>
      <contour>
        <pt x="281" y="-234" on="1"/>
        <pt x="342" y="-64" on="1"/>
        <pt x="436" y="-64" on="1"/>
        <pt x="375" y="-234" on="1"/>
      </contour>
    </TTGlyph>
    <TTGlyph name="H" xMin="88" yMin="0" xMax="635" yMax="660">
      <contour>
        <pt x="514" y="660" on="1"/>
        <pt x="635" y="660" on="1"/>
        <pt x="635" y="0" on="1"/>
        <pt x="514" y="0" on="1"/>
        <pt x="514" y="267" on="1"/>
        <pt x="209" y="267" on="1"/>
        <pt x="209" y="0" on="1"/>
        <pt x="88" y="0" on="1"/>
        <pt x="88" y="660" on="1"/>
        <pt x="209" y="660" on="1"/>
        <pt x="209" y="380" on="1"/>
        <pt x="514" y="380" on="1"/>
      </contour>
    </TTGlyph>
    <TTGlyph name="Hinferior" xMin="42" yMin="-189" xMax="413" yMax="208">
      <contour>
        <pt x="318" y="208" on="1"/>
        <pt x="413" y="208" on="1"/>
        <pt x="413" y="-189" on="1"/>
        <pt x="318" y="-189" on="1"/>
        <pt x="318" y="-24" on="1"/>
        <pt x="136" y="-24" on="1"/>
        <pt x="136" y="-189" on="1"/>
        <pt x="42" y="-189" on="1"/>
        <pt x="42" y="208" on="1"/>
        <pt x="136" y="208" on="1"/>
        <pt x="136" y="49" on="1"/>
        <pt x="318" y="49" on="1"/>
      </contour>
    </TTGlyph>
    <TTGlyph name="Hsuperior" xMin="42" yMin="333" xMax="413" yMax="730">
      <contour>
        <pt x="318" y="730" on="1"/>
        <pt x="413" y="730" on="1"/>
        <pt x="413" y="333" on="1"/>
        <pt x="318" y="333" on="1"/>
        <pt x="318" y="498" on="1"/>
        <pt x="136" y="498" on="1"/>
        <pt x="136" y="333" on="1"/>
        <pt x="42" y="333" on="1"/>
        <pt x="42" y="730" on="1"/>
        <pt x="136" y="730" on="1"/>
        <pt x="136" y="571" on="1"/>
        <pt x="318" y="571" on="1"/>
      </contour>
    </TTGlyph>
    <TTGlyph name="I" xMin="84" yMin="0" xMax="207" yMax="660">
      <contour>
        <pt x="207" y="660" on="1"/>
        <pt x="207" y="0" on="1"/>
        <pt x="84" y="0" on="1"/>
        <pt x="84" y="660" on="1"/>
      </contour>
    </TTGlyph>
    <TTGlyph name="IJ" xMin="84" yMin="-10" xMax="791" yMax="660">
      <contour>
        <pt x="207" y="660" on="1"/>
        <pt x="207" y="0" on="1"/>
        <pt x="84" y="0" on="1"/>
        <pt x="84" y="660" on="1"/>
      </contour>
      <contour>
        <pt x="791" y="660" on="1"/>
        <pt x="791" y="235" on="1"/>
        <pt x="791" y="119" on="0"/>
        <pt x="660" y="-10" on="0"/>
        <pt x="549" y="-10" on="1"/>
        <pt x="448" y="-10" on="0"/>
        <pt x="329" y="108" on="0"/>
        <pt x="323" y="216" on="1"/>
        <pt x="322" y="231" on="0"/>
        <pt x="322" y="259" on="1"/>
        <pt x="440" y="259" on="1"/>
        <pt x="440" y="225" on="0"/>
        <pt x="441" y="207" on="1"/>
        <pt x="446" y="153" on="0"/>
        <pt x="504" y="92" on="0"/>
        <pt x="547" y="92" on="1"/>
        <pt x="652" y="92" on="0"/>
        <pt x="667" y="202" on="1"/>
        <pt x="670" y="234" on="0"/>
        <pt x="670" y="268" on="1"/>
        <pt x="670" y="660" on="1"/>
      </contour>
    </TTGlyph>
    <TTGlyph name="IJ.ss05" xMin="85" yMin="-10" xMax="555" yMax="660">
      <contour>
        <pt x="555" y="660" on="1"/>
        <pt x="555" y="238" on="1"/>
        <pt x="555" y="122" on="0"/>
        <pt x="425" y="-10" on="0"/>
        <pt x="313" y="-10" on="1"/>
        <pt x="194" y="-10" on="0"/>
        <pt x="76" y="102" on="0"/>
        <pt x="88" y="206" on="1"/>
        <pt x="207" y="206" on="1"/>
        <pt x="198" y="149" on="0"/>
        <pt x="255" y="92" on="0"/>
        <pt x="315" y="92" on="1"/>
        <pt x="373" y="92" on="0"/>
        <pt x="435" y="172" on="0"/>
        <pt x="435" y="251" on="1"/>
        <pt x="435" y="660" on="1"/>
      </contour>
      <contour>
        <pt x="206" y="660" on="1"/>
        <pt x="206" y="288" on="1"/>
        <pt x="85" y="288" on="1"/>
        <pt x="85" y="660" on="1"/>
      </contour>
    </TTGlyph>
    <TTGlyph name="Iacute" xMin="84" yMin="0" xMax="268" yMax="887">
      <contour>
        <pt x="155" y="887" on="1"/>
        <pt x="268" y="887" on="1"/>
        <pt x="206" y="734" on="1"/>
        <pt x="99" y="734" on="1"/>
      </contour>
      <contour>
        <pt x="207" y="660" on="1"/>
        <pt x="207" y="0" on="1"/>
        <pt x="84" y="0" on="1"/>
        <pt x="84" y="660" on="1"/>
      </contour>
    </TTGlyph>
    <TTGlyph name="Iacute_J.loclNLD" xMin="84" yMin="-10" xMax="868" yMax="887">
      <contour>
        <pt x="147" y="887" on="1"/>
        <pt x="260" y="887" on="1"/>
        <pt x="197" y="734" on="1"/>
        <pt x="91" y="734" on="1"/>
      </contour>
      <contour>
        <pt x="755" y="887" on="1"/>
        <pt x="868" y="887" on="1"/>
        <pt x="805" y="734" on="1"/>
        <pt x="699" y="734" on="1"/>
      </contour>
      <contour>
        <pt x="207" y="660" on="1"/>
        <pt x="207" y="0" on="1"/>
        <pt x="84" y="0" on="1"/>
        <pt x="84" y="660" on="1"/>
      </contour>
      <contour>
        <pt x="791" y="660" on="1"/>
        <pt x="791" y="235" on="1"/>
        <pt x="791" y="119" on="0"/>
        <pt x="660" y="-10" on="0"/>
        <pt x="549" y="-10" on="1"/>
        <pt x="448" y="-10" on="0"/>
        <pt x="329" y="108" on="0"/>
        <pt x="323" y="216" on="1"/>
        <pt x="322" y="231" on="0"/>
        <pt x="322" y="259" on="1"/>
        <pt x="440" y="259" on="1"/>
        <pt x="440" y="225" on="0"/>
        <pt x="441" y="207" on="1"/>
        <pt x="446" y="153" on="0"/>
        <pt x="504" y="92" on="0"/>
        <pt x="547" y="92" on="1"/>
        <pt x="652" y="92" on="0"/>
        <pt x="667" y="202" on="1"/>
        <pt x="670" y="234" on="0"/>
        <pt x="670" y="268" on="1"/>
        <pt x="670" y="660" on="1"/>
      </contour>
    </TTGlyph>
    <TTGlyph name="Iacute_J.loclNLD.ss05" xMin="76" yMin="-10" xMax="609" yMax="887">
      <contour>
        <pt x="137" y="887" on="1"/>
        <pt x="250" y="887" on="1"/>
        <pt x="188" y="734" on="1"/>
        <pt x="81" y="734" on="1"/>
      </contour>
      <contour>
        <pt x="496" y="887" on="1"/>
        <pt x="609" y="887" on="1"/>
        <pt x="546" y="734" on="1"/>
        <pt x="440" y="734" on="1"/>
      </contour>
      <contour>
        <pt x="546" y="660" on="1"/>
        <pt x="546" y="238" on="1"/>
        <pt x="546" y="122" on="0"/>
        <pt x="416" y="-10" on="0"/>
        <pt x="304" y="-10" on="1"/>
        <pt x="185" y="-10" on="0"/>
        <pt x="66" y="102" on="0"/>
        <pt x="79" y="206" on="1"/>
        <pt x="198" y="206" on="1"/>
        <pt x="188" y="149" on="0"/>
        <pt x="246" y="92" on="0"/>
        <pt x="306" y="92" on="1"/>
        <pt x="425" y="92" on="0"/>
        <pt x="425" y="251" on="1"/>
        <pt x="425" y="660" on="1"/>
      </contour>
      <contour>
        <pt x="197" y="660" on="1"/>
        <pt x="197" y="288" on="1"/>
        <pt x="76" y="288" on="1"/>
        <pt x="76" y="660" on="1"/>
      </contour>
    </TTGlyph>
    <TTGlyph name="Icircumflex" xMin="-28" yMin="0" xMax="320" yMax="896">
      <contour>
        <pt x="320" y="729" on="1"/>
        <pt x="220" y="729" on="1"/>
        <pt x="146" y="831" on="1"/>
        <pt x="71" y="729" on="1"/>
        <pt x="-28" y="729" on="1"/>
        <pt x="84" y="896" on="1"/>
        <pt x="207" y="896" on="1"/>
      </contour>
      <contour>
        <pt x="207" y="660" on="1"/>
        <pt x="207" y="0" on="1"/>
        <pt x="84" y="0" on="1"/>
        <pt x="84" y="660" on="1"/>
      </contour>
    </TTGlyph>
    <TTGlyph name="Idieresis" xMin="-16" yMin="0" xMax="307" yMax="862">
      <contour>
        <pt x="52" y="862" on="1"/>
        <pt x="84" y="862" on="0"/>
        <pt x="121" y="827" on="0"/>
        <pt x="121" y="796" on="1"/>
        <pt x="121" y="766" on="0"/>
        <pt x="83" y="730" on="0"/>
        <pt x="21" y="730" on="0"/>
        <pt x="-16" y="766" on="0"/>
        <pt x="-16" y="796" on="1"/>
        <pt x="-16" y="827" on="0"/>
        <pt x="21" y="862" on="0"/>
      </contour>
      <contour>
        <pt x="238" y="862" on="1"/>
        <pt x="270" y="862" on="0"/>
        <pt x="307" y="827" on="0"/>
        <pt x="307" y="796" on="1"/>
        <pt x="307" y="766" on="0"/>
        <pt x="269" y="730" on="0"/>
        <pt x="207" y="730" on="0"/>
        <pt x="170" y="766" on="0"/>
        <pt x="170" y="796" on="1"/>
        <pt x="170" y="827" on="0"/>
        <pt x="207" y="862" on="0"/>
      </contour>
      <contour>
        <pt x="207" y="660" on="1"/>
        <pt x="207" y="0" on="1"/>
        <pt x="84" y="0" on="1"/>
        <pt x="84" y="660" on="1"/>
      </contour>
    </TTGlyph>
    <TTGlyph name="Idotaccent" xMin="72" yMin="0" xMax="220" yMax="888">
      <contour>
        <pt x="147" y="740" on="1"/>
        <pt x="116" y="740" on="0"/>
        <pt x="72" y="784" on="0"/>
        <pt x="72" y="815" on="1"/>
        <pt x="72" y="845" on="0"/>
        <pt x="116" y="888" on="0"/>
        <pt x="147" y="888" on="1"/>
        <pt x="177" y="888" on="0"/>
        <pt x="220" y="845" on="0"/>
        <pt x="220" y="815" on="1"/>
        <pt x="220" y="784" on="0"/>
        <pt x="177" y="740" on="0"/>
      </contour>
      <contour>
        <pt x="207" y="660" on="1"/>
        <pt x="207" y="0" on="1"/>
        <pt x="84" y="0" on="1"/>
        <pt x="84" y="660" on="1"/>
      </contour>
    </TTGlyph>
    <TTGlyph name="Igrave" xMin="20" yMin="0" xMax="207" yMax="887">
      <contour>
        <pt x="133" y="887" on="1"/>
        <pt x="189" y="734" on="1"/>
        <pt x="83" y="734" on="1"/>
        <pt x="20" y="887" on="1"/>
      </contour>
      <contour>
        <pt x="207" y="660" on="1"/>
        <pt x="207" y="0" on="1"/>
        <pt x="84" y="0" on="1"/>
        <pt x="84" y="660" on="1"/>
      </contour>
    </TTGlyph>
    <TTGlyph name="Imacron" xMin="22" yMin="0" xMax="268" yMax="828">
      <contour>
        <pt x="268" y="828" on="1"/>
        <pt x="268" y="744" on="1"/>
        <pt x="22" y="744" on="1"/>
        <pt x="22" y="828" on="1"/>
      </contour>
      <contour>
        <pt x="207" y="660" on="1"/>
        <pt x="207" y="0" on="1"/>
        <pt x="84" y="0" on="1"/>
        <pt x="84" y="660" on="1"/>
      </contour>
    </TTGlyph>
    <TTGlyph name="Iogonek" xMin="9" yMin="-215" xMax="229" yMax="660">
      <contour>
        <pt x="207" y="-127" on="1"/>
        <pt x="229" y="-192" on="1"/>
        <pt x="193" y="-215" on="0"/>
        <pt x="135" y="-215" on="1"/>
        <pt x="78" y="-215" on="0"/>
        <pt x="9" y="-160" on="0"/>
        <pt x="9" y="-111" on="1"/>
        <pt x="9" y="-41" on="0"/>
        <pt x="84" y="0" on="1"/>
        <pt x="84" y="660" on="1"/>
        <pt x="207" y="660" on="1"/>
        <pt x="207" y="0" on="1"/>
        <pt x="206" y="0" on="1"/>
        <pt x="97" y="-39" on="0"/>
        <pt x="97" y="-90" on="1"/>
        <pt x="97" y="-140" on="0"/>
        <pt x="154" y="-140" on="1"/>
        <pt x="189" y="-140" on="0"/>
      </contour>
    </TTGlyph>
    <TTGlyph name="J" xMin="31" yMin="-10" xMax="500" yMax="660">
      <contour>
        <pt x="500" y="660" on="1"/>
        <pt x="500" y="235" on="1"/>
        <pt x="500" y="119" on="0"/>
        <pt x="369" y="-10" on="0"/>
        <pt x="258" y="-10" on="1"/>
        <pt x="157" y="-10" on="0"/>
        <pt x="38" y="108" on="0"/>
        <pt x="32" y="216" on="1"/>
        <pt x="31" y="231" on="0"/>
        <pt x="31" y="259" on="1"/>
        <pt x="149" y="259" on="1"/>
        <pt x="149" y="225" on="0"/>
        <pt x="150" y="207" on="1"/>
        <pt x="155" y="153" on="0"/>
        <pt x="213" y="92" on="0"/>
        <pt x="256" y="92" on="1"/>
        <pt x="361" y="92" on="0"/>
        <pt x="376" y="202" on="1"/>
        <pt x="379" y="234" on="0"/>
        <pt x="379" y="268" on="1"/>
        <pt x="379" y="660" on="1"/>
      </contour>
    </TTGlyph>
    <TTGlyph name="K" xMin="85" yMin="0" xMax="645" yMax="660">
      <contour>
        <pt x="505" y="0" on="1"/>
        <pt x="307" y="311" on="1"/>
        <pt x="206" y="200" on="1"/>
        <pt x="206" y="0" on="1"/>
        <pt x="85" y="0" on="1"/>
        <pt x="85" y="660" on="1"/>
        <pt x="206" y="660" on="1"/>
        <pt x="206" y="338" on="1"/>
        <pt x="495" y="660" on="1"/>
        <pt x="638" y="660" on="1"/>
        <pt x="394" y="390" on="1"/>
        <pt x="645" y="0" on="1"/>
      </contour>
    </TTGlyph>
    <TTGlyph name="Kcommaaccent.sc" xMin="76" yMin="-239" xMax="595" yMax="560">
      <contour>
        <pt x="372" y="328" on="1"/>
        <pt x="595" y="0" on="1"/>
        <pt x="455" y="0" on="1"/>
        <pt x="286" y="255" on="1"/>
        <pt x="196" y="164" on="1"/>
        <pt x="196" y="0" on="1"/>
        <pt x="76" y="0" on="1"/>
        <pt x="76" y="560" on="1"/>
        <pt x="196" y="560" on="1"/>
        <pt x="196" y="292" on="1"/>
        <pt x="454" y="560" on="1"/>
        <pt x="590" y="560" on="1"/>
      </contour>
      <contour>
        <pt x="221" y="-239" on="1"/>
        <pt x="282" y="-69" on="1"/>
        <pt x="376" y="-69" on="1"/>
        <pt x="315" y="-239" on="1"/>
      </contour>
    </TTGlyph>
    <TTGlyph name="L" xMin="79" yMin="0" xMax="557" yMax="660">
      <contour>
        <pt x="200" y="104" on="1"/>
        <pt x="557" y="104" on="1"/>
        <pt x="557" y="0" on="1"/>
        <pt x="140" y="0" on="1"/>
        <pt x="79" y="0" on="1"/>
        <pt x="79" y="660" on="1"/>
        <pt x="200" y="660" on="1"/>
      </contour>
    </TTGlyph>
    <TTGlyph name="L.swsh" xMin="85" yMin="0" xMax="647" yMax="660">
      <contour>
        <pt x="475" y="372" on="1"/>
        <pt x="556" y="369" on="0"/>
        <pt x="647" y="269" on="0"/>
        <pt x="647" y="191" on="1"/>
        <pt x="647" y="97" on="0"/>
        <pt x="529" y="0" on="0"/>
        <pt x="422" y="0" on="1"/>
        <pt x="282" y="0" on="1"/>
        <pt x="146" y="0" on="1"/>
        <pt x="85" y="0" on="1"/>
        <pt x="85" y="660" on="1"/>
        <pt x="206" y="660" on="1"/>
        <pt x="206" y="101" on="1"/>
        <pt x="355" y="101" on="1"/>
        <pt x="410" y="101" on="1"/>
        <pt x="536" y="101" on="0"/>
        <pt x="536" y="193" on="1"/>
        <pt x="536" y="238" on="0"/>
        <pt x="482" y="286" on="0"/>
        <pt x="435" y="288" on="1"/>
      </contour>
    </TTGlyph>
    <TTGlyph name="Lacute" xMin="79" yMin="0" xMax="557" yMax="887">
      <contour>
        <pt x="254" y="887" on="1"/>
        <pt x="191" y="734" on="1"/>
        <pt x="85" y="734" on="1"/>
        <pt x="141" y="887" on="1"/>
      </contour>
      <contour>
        <pt x="200" y="104" on="1"/>
        <pt x="557" y="104" on="1"/>
        <pt x="557" y="0" on="1"/>
        <pt x="140" y="0" on="1"/>
        <pt x="79" y="0" on="1"/>
        <pt x="79" y="660" on="1"/>
        <pt x="200" y="660" on="1"/>
      </contour>
    </TTGlyph>
    <TTGlyph name="Lacute.swsh" xMin="85" yMin="0" xMax="647" yMax="887">
      <contour>
        <pt x="260" y="887" on="1"/>
        <pt x="197" y="734" on="1"/>
        <pt x="91" y="734" on="1"/>
        <pt x="147" y="887" on="1"/>
      </contour>
      <contour>
        <pt x="475" y="372" on="1"/>
        <pt x="556" y="369" on="0"/>
        <pt x="647" y="269" on="0"/>
        <pt x="647" y="191" on="1"/>
        <pt x="647" y="97" on="0"/>
        <pt x="529" y="0" on="0"/>
        <pt x="422" y="0" on="1"/>
        <pt x="282" y="0" on="1"/>
        <pt x="146" y="0" on="1"/>
        <pt x="85" y="0" on="1"/>
        <pt x="85" y="660" on="1"/>
        <pt x="206" y="660" on="1"/>
        <pt x="206" y="101" on="1"/>
        <pt x="355" y="101" on="1"/>
        <pt x="410" y="101" on="1"/>
        <pt x="536" y="101" on="0"/>
        <pt x="536" y="193" on="1"/>
        <pt x="536" y="238" on="0"/>
        <pt x="482" y="286" on="0"/>
        <pt x="435" y="288" on="1"/>
      </contour>
    </TTGlyph>
    <TTGlyph name="Lcaron" xMin="79" yMin="0" xMax="557" yMax="700">
      <contour>
        <pt x="420" y="700" on="1"/>
        <pt x="373" y="484" on="1"/>
        <pt x="275" y="484" on="1"/>
        <pt x="320" y="700" on="1"/>
      </contour>
      <contour>
        <pt x="200" y="104" on="1"/>
        <pt x="557" y="104" on="1"/>
        <pt x="557" y="0" on="1"/>
        <pt x="140" y="0" on="1"/>
        <pt x="79" y="0" on="1"/>
        <pt x="79" y="660" on="1"/>
        <pt x="200" y="660" on="1"/>
      </contour>
    </TTGlyph>
    <TTGlyph name="Lcaron.swsh" xMin="-30" yMin="0" xMax="647" yMax="897">
      <contour>
        <pt x="318" y="897" on="1"/>
        <pt x="205" y="730" on="1"/>
        <pt x="82" y="730" on="1"/>
        <pt x="-30" y="897" on="1"/>
        <pt x="69" y="897" on="1"/>
        <pt x="144" y="795" on="1"/>
        <pt x="218" y="897" on="1"/>
      </contour>
      <contour>
        <pt x="475" y="372" on="1"/>
        <pt x="556" y="369" on="0"/>
        <pt x="647" y="269" on="0"/>
        <pt x="647" y="191" on="1"/>
        <pt x="647" y="97" on="0"/>
        <pt x="529" y="0" on="0"/>
        <pt x="422" y="0" on="1"/>
        <pt x="282" y="0" on="1"/>
        <pt x="146" y="0" on="1"/>
        <pt x="85" y="0" on="1"/>
        <pt x="85" y="660" on="1"/>
        <pt x="206" y="660" on="1"/>
        <pt x="206" y="101" on="1"/>
        <pt x="355" y="101" on="1"/>
        <pt x="410" y="101" on="1"/>
        <pt x="536" y="101" on="0"/>
        <pt x="536" y="193" on="1"/>
        <pt x="536" y="238" on="0"/>
        <pt x="482" y="286" on="0"/>
        <pt x="435" y="288" on="1"/>
      </contour>
    </TTGlyph>
    <TTGlyph name="Lcommaaccent.sc" xMin="76" yMin="-239" xMax="512" yMax="560">
      <contour>
        <pt x="196" y="95" on="1"/>
        <pt x="512" y="95" on="1"/>
        <pt x="512" y="0" on="1"/>
        <pt x="136" y="0" on="1"/>
        <pt x="76" y="0" on="1"/>
        <pt x="76" y="560" on="1"/>
        <pt x="196" y="560" on="1"/>
      </contour>
      <contour>
        <pt x="208" y="-239" on="1"/>
        <pt x="269" y="-69" on="1"/>
        <pt x="363" y="-69" on="1"/>
        <pt x="302" y="-239" on="1"/>
      </contour>
    </TTGlyph>
    <TTGlyph name="Lcommaaccent.swsh" xMin="85" yMin="-239" xMax="647" yMax="660">
      <contour>
        <pt x="475" y="372" on="1"/>
        <pt x="556" y="369" on="0"/>
        <pt x="647" y="269" on="0"/>
        <pt x="647" y="191" on="1"/>
        <pt x="647" y="97" on="0"/>
        <pt x="529" y="0" on="0"/>
        <pt x="422" y="0" on="1"/>
        <pt x="282" y="0" on="1"/>
        <pt x="146" y="0" on="1"/>
        <pt x="85" y="0" on="1"/>
        <pt x="85" y="660" on="1"/>
        <pt x="206" y="660" on="1"/>
        <pt x="206" y="101" on="1"/>
        <pt x="355" y="101" on="1"/>
        <pt x="410" y="101" on="1"/>
        <pt x="536" y="101" on="0"/>
        <pt x="536" y="193" on="1"/>
        <pt x="536" y="238" on="0"/>
        <pt x="482" y="286" on="0"/>
        <pt x="435" y="288" on="1"/>
      </contour>
      <contour>
        <pt x="257" y="-239" on="1"/>
        <pt x="318" y="-69" on="1"/>
        <pt x="412" y="-69" on="1"/>
        <pt x="351" y="-239" on="1"/>
      </contour>
    </TTGlyph>
    <TTGlyph name="Ldot" xMin="79" yMin="0" xMax="594" yMax="660">
      <contour>
        <pt x="200" y="660" on="1"/>
        <pt x="200" y="104" on="1"/>
        <pt x="557" y="104" on="1"/>
        <pt x="557" y="0" on="1"/>
        <pt x="140" y="0" on="1"/>
        <pt x="79" y="0" on="1"/>
        <pt x="79" y="660" on="1"/>
      </contour>
      <contour>
        <pt x="483" y="426" on="0"/>
        <pt x="547" y="426" on="0"/>
        <pt x="594" y="380" on="0"/>
        <pt x="594" y="316" on="0"/>
        <pt x="547" y="270" on="0"/>
        <pt x="483" y="270" on="0"/>
        <pt x="437" y="316" on="0"/>
        <pt x="437" y="380" on="0"/>
      </contour>
    </TTGlyph>
    <TTGlyph name="Lslash" xMin="13" yMin="0" xMax="592" yMax="660">
      <contour>
        <pt x="235" y="104" on="1"/>
        <pt x="592" y="104" on="1"/>
        <pt x="592" y="0" on="1"/>
        <pt x="175" y="0" on="1"/>
        <pt x="115" y="0" on="1"/>
        <pt x="115" y="235" on="1"/>
        <pt x="13" y="183" on="1"/>
        <pt x="13" y="284" on="1"/>
        <pt x="115" y="337" on="1"/>
        <pt x="115" y="660" on="1"/>
        <pt x="235" y="660" on="1"/>
        <pt x="235" y="399" on="1"/>
        <pt x="415" y="493" on="1"/>
        <pt x="415" y="391" on="1"/>
        <pt x="235" y="298" on="1"/>
      </contour>
    </TTGlyph>
    <TTGlyph name="Lslash.swsh" xMin="13" yMin="0" xMax="682" yMax="660">
      <contour>
        <pt x="510" y="372" on="1"/>
        <pt x="591" y="369" on="0"/>
        <pt x="682" y="269" on="0"/>
        <pt x="682" y="191" on="1"/>
        <pt x="682" y="97" on="0"/>
        <pt x="564" y="0" on="0"/>
        <pt x="457" y="0" on="1"/>
        <pt x="317" y="0" on="1"/>
        <pt x="181" y="0" on="1"/>
        <pt x="121" y="0" on="1"/>
        <pt x="121" y="239" on="1"/>
        <pt x="13" y="183" on="1"/>
        <pt x="13" y="284" on="1"/>
        <pt x="121" y="340" on="1"/>
        <pt x="121" y="660" on="1"/>
        <pt x="241" y="660" on="1"/>
        <pt x="241" y="402" on="1"/>
        <pt x="415" y="493" on="1"/>
        <pt x="415" y="391" on="1"/>
        <pt x="241" y="301" on="1"/>
        <pt x="241" y="101" on="1"/>
        <pt x="390" y="101" on="1"/>
        <pt x="445" y="101" on="1"/>
        <pt x="572" y="101" on="0"/>
        <pt x="572" y="193" on="1"/>
        <pt x="572" y="238" on="0"/>
        <pt x="518" y="286" on="0"/>
        <pt x="471" y="288" on="1"/>
      </contour>
    </TTGlyph>
    <TTGlyph name="M" xMin="76" yMin="0" xMax="769" yMax="660">
      <contour>
        <pt x="769" y="660" on="1"/>
        <pt x="769" y="0" on="1"/>
        <pt x="660" y="0" on="1"/>
        <pt x="660" y="365" on="1"/>
        <pt x="667" y="542" on="1"/>
        <pt x="665" y="542" on="1"/>
        <pt x="472" y="0" on="1"/>
        <pt x="373" y="0" on="1"/>
        <pt x="180" y="542" on="1"/>
        <pt x="178" y="542" on="1"/>
        <pt x="186" y="365" on="1"/>
        <pt x="186" y="0" on="1"/>
        <pt x="76" y="0" on="1"/>
        <pt x="76" y="660" on="1"/>
        <pt x="253" y="660" on="1"/>
        <pt x="379" y="288" on="1"/>
        <pt x="424" y="134" on="1"/>
        <pt x="426" y="134" on="1"/>
        <pt x="471" y="287" on="1"/>
        <pt x="597" y="660" on="1"/>
      </contour>
    </TTGlyph>
    <TTGlyph name="M.swsh" xMin="3" yMin="-110" xMax="1011" yMax="660">
      <contour>
        <pt x="838" y="660" on="1"/>
        <pt x="1011" y="660" on="1"/>
        <pt x="1011" y="0" on="1"/>
        <pt x="901" y="0" on="1"/>
        <pt x="901" y="365" on="1"/>
        <pt x="909" y="552" on="1"/>
        <pt x="907" y="552" on="1"/>
        <pt x="714" y="0" on="1"/>
        <pt x="614" y="0" on="1"/>
        <pt x="422" y="552" on="1"/>
        <pt x="420" y="552" on="1"/>
        <pt x="427" y="365" on="1"/>
        <pt x="427" y="198" on="1"/>
        <pt x="427" y="85" on="1"/>
        <pt x="427" y="-4" on="0"/>
        <pt x="317" y="-110" on="0"/>
        <pt x="219" y="-110" on="1"/>
        <pt x="71" y="-110" on="0"/>
        <pt x="36" y="8" on="1"/>
        <pt x="97" y="78" on="1"/>
        <pt x="108" y="29" on="0"/>
        <pt x="161" y="-15" on="0"/>
        <pt x="210" y="-15" on="1"/>
        <pt x="260" y="-15" on="0"/>
        <pt x="317" y="47" on="0"/>
        <pt x="317" y="99" on="1"/>
        <pt x="317" y="202" on="1"/>
        <pt x="317" y="568" on="1"/>
        <pt x="240" y="568" on="1"/>
        <pt x="182" y="568" on="0"/>
        <pt x="116" y="516" on="0"/>
        <pt x="116" y="467" on="1"/>
        <pt x="116" y="427" on="0"/>
        <pt x="171" y="372" on="0"/>
        <pt x="217" y="365" on="1"/>
        <pt x="177" y="278" on="1"/>
        <pt x="102" y="287" on="0"/>
        <pt x="3" y="390" on="0"/>
        <pt x="3" y="469" on="1"/>
        <pt x="3" y="559" on="0"/>
        <pt x="122" y="660" on="0"/>
        <pt x="227" y="660" on="1"/>
        <pt x="451" y="660" on="1"/>
        <pt x="494" y="660" on="1"/>
        <pt x="621" y="288" on="1"/>
        <pt x="665" y="134" on="1"/>
        <pt x="667" y="134" on="1"/>
        <pt x="712" y="287" on="1"/>
      </contour>
    </TTGlyph>
    <TTGlyph name="M.swsh.001" xMin="3" yMin="0" xMax="1001" yMax="660">
      <contour>
        <pt x="828" y="660" on="1"/>
        <pt x="1001" y="660" on="1"/>
        <pt x="1001" y="0" on="1"/>
        <pt x="891" y="0" on="1"/>
        <pt x="891" y="365" on="1"/>
        <pt x="899" y="542" on="1"/>
        <pt x="897" y="542" on="1"/>
        <pt x="704" y="0" on="1"/>
        <pt x="604" y="0" on="1"/>
        <pt x="412" y="542" on="1"/>
        <pt x="410" y="542" on="1"/>
        <pt x="417" y="365" on="1"/>
        <pt x="417" y="0" on="1"/>
        <pt x="307" y="0" on="1"/>
        <pt x="307" y="568" on="1"/>
        <pt x="240" y="568" on="1"/>
        <pt x="182" y="568" on="0"/>
        <pt x="116" y="516" on="0"/>
        <pt x="116" y="467" on="1"/>
        <pt x="116" y="427" on="0"/>
        <pt x="171" y="372" on="0"/>
        <pt x="217" y="365" on="1"/>
        <pt x="177" y="278" on="1"/>
        <pt x="102" y="287" on="0"/>
        <pt x="3" y="390" on="0"/>
        <pt x="3" y="469" on="1"/>
        <pt x="3" y="559" on="0"/>
        <pt x="122" y="660" on="0"/>
        <pt x="227" y="660" on="1"/>
        <pt x="451" y="660" on="1"/>
        <pt x="484" y="660" on="1"/>
        <pt x="611" y="288" on="1"/>
        <pt x="655" y="134" on="1"/>
        <pt x="657" y="134" on="1"/>
        <pt x="702" y="287" on="1"/>
      </contour>
    </TTGlyph>
    <TTGlyph name="N" xMin="85" yMin="0" xMax="637" yMax="660">
      <contour>
        <pt x="637" y="660" on="1"/>
        <pt x="637" y="0" on="1"/>
        <pt x="498" y="0" on="1"/>
        <pt x="253" y="401" on="1"/>
        <pt x="192" y="517" on="1"/>
        <pt x="191" y="517" on="1"/>
        <pt x="195" y="404" on="1"/>
        <pt x="195" y="0" on="1"/>
        <pt x="85" y="0" on="1"/>
        <pt x="85" y="660" on="1"/>
        <pt x="225" y="660" on="1"/>
        <pt x="469" y="260" on="1"/>
        <pt x="530" y="145" on="1"/>
        <pt x="532" y="145" on="1"/>
        <pt x="528" y="256" on="1"/>
        <pt x="528" y="660" on="1"/>
      </contour>
    </TTGlyph>
    <TTGlyph name="N.swsh" xMin="85" yMin="0" xMax="919" yMax="731">
      <contour>
        <pt x="737" y="731" on="1"/>
        <pt x="885" y="731" on="0"/>
        <pt x="919" y="615" on="1"/>
        <pt x="857" y="546" on="1"/>
        <pt x="845" y="594" on="0"/>
        <pt x="795" y="636" on="0"/>
        <pt x="746" y="636" on="1"/>
        <pt x="695" y="636" on="0"/>
        <pt x="637" y="570" on="0"/>
        <pt x="637" y="514" on="1"/>
        <pt x="637" y="406" on="1"/>
        <pt x="637" y="0" on="1"/>
        <pt x="498" y="0" on="1"/>
        <pt x="253" y="404" on="1"/>
        <pt x="192" y="521" on="1"/>
        <pt x="191" y="521" on="1"/>
        <pt x="195" y="407" on="1"/>
        <pt x="195" y="0" on="1"/>
        <pt x="85" y="0" on="1"/>
        <pt x="85" y="660" on="1"/>
        <pt x="225" y="660" on="1"/>
        <pt x="469" y="257" on="1"/>
        <pt x="530" y="139" on="1"/>
        <pt x="532" y="139" on="1"/>
        <pt x="528" y="253" on="1"/>
        <pt x="528" y="478" on="1"/>
        <pt x="528" y="536" on="1"/>
        <pt x="528" y="624" on="0"/>
        <pt x="639" y="731" on="0"/>
      </contour>
    </TTGlyph>
    <TTGlyph name="Nacute" xMin="85" yMin="0" xMax="637" yMax="887">
      <contour>
        <pt x="365" y="887" on="1"/>
        <pt x="478" y="887" on="1"/>
        <pt x="415" y="734" on="1"/>
        <pt x="309" y="734" on="1"/>
      </contour>
      <contour>
        <pt x="637" y="660" on="1"/>
        <pt x="637" y="0" on="1"/>
        <pt x="498" y="0" on="1"/>
        <pt x="253" y="401" on="1"/>
        <pt x="192" y="517" on="1"/>
        <pt x="191" y="517" on="1"/>
        <pt x="195" y="404" on="1"/>
        <pt x="195" y="0" on="1"/>
        <pt x="85" y="0" on="1"/>
        <pt x="85" y="660" on="1"/>
        <pt x="225" y="660" on="1"/>
        <pt x="469" y="260" on="1"/>
        <pt x="530" y="145" on="1"/>
        <pt x="532" y="145" on="1"/>
        <pt x="528" y="256" on="1"/>
        <pt x="528" y="660" on="1"/>
      </contour>
    </TTGlyph>
    <TTGlyph name="Nacute.swsh" xMin="85" yMin="0" xMax="919" yMax="887">
      <contour>
        <pt x="478" y="887" on="1"/>
        <pt x="415" y="734" on="1"/>
        <pt x="309" y="734" on="1"/>
        <pt x="365" y="887" on="1"/>
      </contour>
      <contour>
        <pt x="737" y="731" on="1"/>
        <pt x="885" y="731" on="0"/>
        <pt x="919" y="615" on="1"/>
        <pt x="857" y="546" on="1"/>
        <pt x="845" y="594" on="0"/>
        <pt x="795" y="636" on="0"/>
        <pt x="746" y="636" on="1"/>
        <pt x="695" y="636" on="0"/>
        <pt x="637" y="570" on="0"/>
        <pt x="637" y="514" on="1"/>
        <pt x="637" y="406" on="1"/>
        <pt x="637" y="0" on="1"/>
        <pt x="498" y="0" on="1"/>
        <pt x="253" y="404" on="1"/>
        <pt x="192" y="521" on="1"/>
        <pt x="191" y="521" on="1"/>
        <pt x="195" y="407" on="1"/>
        <pt x="195" y="0" on="1"/>
        <pt x="85" y="0" on="1"/>
        <pt x="85" y="660" on="1"/>
        <pt x="225" y="660" on="1"/>
        <pt x="469" y="257" on="1"/>
        <pt x="530" y="139" on="1"/>
        <pt x="532" y="139" on="1"/>
        <pt x="528" y="253" on="1"/>
        <pt x="528" y="478" on="1"/>
        <pt x="528" y="536" on="1"/>
        <pt x="528" y="624" on="0"/>
        <pt x="639" y="731" on="0"/>
      </contour>
    </TTGlyph>
    <TTGlyph name="Ncaron" xMin="85" yMin="0" xMax="637" yMax="897">
      <contour>
        <pt x="537" y="897" on="1"/>
        <pt x="424" y="730" on="1"/>
        <pt x="301" y="730" on="1"/>
        <pt x="189" y="897" on="1"/>
        <pt x="288" y="897" on="1"/>
        <pt x="363" y="795" on="1"/>
        <pt x="437" y="897" on="1"/>
      </contour>
      <contour>
        <pt x="637" y="660" on="1"/>
        <pt x="637" y="0" on="1"/>
        <pt x="498" y="0" on="1"/>
        <pt x="253" y="401" on="1"/>
        <pt x="192" y="517" on="1"/>
        <pt x="191" y="517" on="1"/>
        <pt x="195" y="404" on="1"/>
        <pt x="195" y="0" on="1"/>
        <pt x="85" y="0" on="1"/>
        <pt x="85" y="660" on="1"/>
        <pt x="225" y="660" on="1"/>
        <pt x="469" y="260" on="1"/>
        <pt x="530" y="145" on="1"/>
        <pt x="532" y="145" on="1"/>
        <pt x="528" y="256" on="1"/>
        <pt x="528" y="660" on="1"/>
      </contour>
    </TTGlyph>
    <TTGlyph name="Ncaron.swsh" xMin="85" yMin="0" xMax="919" yMax="897">
      <contour>
        <pt x="424" y="730" on="1"/>
        <pt x="301" y="730" on="1"/>
        <pt x="189" y="897" on="1"/>
        <pt x="288" y="897" on="1"/>
        <pt x="363" y="795" on="1"/>
        <pt x="437" y="897" on="1"/>
        <pt x="537" y="897" on="1"/>
      </contour>
      <contour>
        <pt x="737" y="731" on="1"/>
        <pt x="885" y="731" on="0"/>
        <pt x="919" y="615" on="1"/>
        <pt x="857" y="546" on="1"/>
        <pt x="845" y="594" on="0"/>
        <pt x="795" y="636" on="0"/>
        <pt x="746" y="636" on="1"/>
        <pt x="695" y="636" on="0"/>
        <pt x="637" y="570" on="0"/>
        <pt x="637" y="514" on="1"/>
        <pt x="637" y="406" on="1"/>
        <pt x="637" y="0" on="1"/>
        <pt x="498" y="0" on="1"/>
        <pt x="253" y="404" on="1"/>
        <pt x="192" y="521" on="1"/>
        <pt x="191" y="521" on="1"/>
        <pt x="195" y="407" on="1"/>
        <pt x="195" y="0" on="1"/>
        <pt x="85" y="0" on="1"/>
        <pt x="85" y="660" on="1"/>
        <pt x="225" y="660" on="1"/>
        <pt x="469" y="257" on="1"/>
        <pt x="530" y="139" on="1"/>
        <pt x="532" y="139" on="1"/>
        <pt x="528" y="253" on="1"/>
        <pt x="528" y="478" on="1"/>
        <pt x="528" y="536" on="1"/>
        <pt x="528" y="624" on="0"/>
        <pt x="639" y="731" on="0"/>
      </contour>
    </TTGlyph>
    <TTGlyph name="Ncommaaccent.sc" xMin="76" yMin="-239" xMax="584" yMax="560">
      <contour>
        <pt x="584" y="560" on="1"/>
        <pt x="584" y="0" on="1"/>
        <pt x="439" y="0" on="1"/>
        <pt x="231" y="348" on="1"/>
        <pt x="185" y="435" on="1"/>
        <pt x="183" y="435" on="1"/>
        <pt x="188" y="341" on="1"/>
        <pt x="188" y="0" on="1"/>
        <pt x="76" y="0" on="1"/>
        <pt x="76" y="560" on="1"/>
        <pt x="220" y="560" on="1"/>
        <pt x="429" y="212" on="1"/>
        <pt x="475" y="125" on="1"/>
        <pt x="476" y="125" on="1"/>
        <pt x="471" y="219" on="1"/>
        <pt x="471" y="560" on="1"/>
      </contour>
      <contour>
        <pt x="390" y="-69" on="1"/>
        <pt x="329" y="-239" on="1"/>
        <pt x="235" y="-239" on="1"/>
        <pt x="296" y="-69" on="1"/>
      </contour>
    </TTGlyph>
    <TTGlyph name="Ncommaaccent.swsh" xMin="85" yMin="-239" xMax="919" yMax="731">
      <contour>
        <pt x="737" y="731" on="1"/>
        <pt x="885" y="731" on="0"/>
        <pt x="919" y="615" on="1"/>
        <pt x="857" y="546" on="1"/>
        <pt x="845" y="594" on="0"/>
        <pt x="795" y="636" on="0"/>
        <pt x="746" y="636" on="1"/>
        <pt x="695" y="636" on="0"/>
        <pt x="637" y="570" on="0"/>
        <pt x="637" y="514" on="1"/>
        <pt x="637" y="406" on="1"/>
        <pt x="637" y="0" on="1"/>
        <pt x="498" y="0" on="1"/>
        <pt x="253" y="404" on="1"/>
        <pt x="192" y="521" on="1"/>
        <pt x="191" y="521" on="1"/>
        <pt x="195" y="407" on="1"/>
        <pt x="195" y="0" on="1"/>
        <pt x="85" y="0" on="1"/>
        <pt x="85" y="660" on="1"/>
        <pt x="225" y="660" on="1"/>
        <pt x="469" y="257" on="1"/>
        <pt x="530" y="139" on="1"/>
        <pt x="532" y="139" on="1"/>
        <pt x="528" y="253" on="1"/>
        <pt x="528" y="478" on="1"/>
        <pt x="528" y="536" on="1"/>
        <pt x="528" y="624" on="0"/>
        <pt x="639" y="731" on="0"/>
      </contour>
      <contour>
        <pt x="274" y="-239" on="1"/>
        <pt x="335" y="-69" on="1"/>
        <pt x="429" y="-69" on="1"/>
        <pt x="368" y="-239" on="1"/>
      </contour>
    </TTGlyph>
    <TTGlyph name="Ntilde" xMin="85" yMin="0" xMax="637" yMax="878">
      <contour>
        <pt x="552" y="878" on="1"/>
        <pt x="543" y="732" on="0"/>
        <pt x="431" y="732" on="1"/>
        <pt x="398" y="732" on="0"/>
        <pt x="349" y="764" on="0"/>
        <pt x="313" y="796" on="0"/>
        <pt x="297" y="796" on="1"/>
        <pt x="262" y="796" on="0"/>
        <pt x="253" y="732" on="1"/>
        <pt x="175" y="732" on="1"/>
        <pt x="184" y="877" on="0"/>
        <pt x="297" y="877" on="1"/>
        <pt x="322" y="877" on="0"/>
        <pt x="365" y="857" on="0"/>
        <pt x="389" y="834" on="0"/>
        <pt x="417" y="814" on="0"/>
        <pt x="430" y="814" on="1"/>
        <pt x="466" y="814" on="0"/>
        <pt x="475" y="878" on="1"/>
      </contour>
      <contour>
        <pt x="637" y="660" on="1"/>
        <pt x="637" y="0" on="1"/>
        <pt x="498" y="0" on="1"/>
        <pt x="253" y="401" on="1"/>
        <pt x="192" y="517" on="1"/>
        <pt x="191" y="517" on="1"/>
        <pt x="195" y="404" on="1"/>
        <pt x="195" y="0" on="1"/>
        <pt x="85" y="0" on="1"/>
        <pt x="85" y="660" on="1"/>
        <pt x="225" y="660" on="1"/>
        <pt x="469" y="260" on="1"/>
        <pt x="530" y="145" on="1"/>
        <pt x="532" y="145" on="1"/>
        <pt x="528" y="256" on="1"/>
        <pt x="528" y="660" on="1"/>
      </contour>
    </TTGlyph>
    <TTGlyph name="Ntilde.swsh" xMin="85" yMin="0" xMax="919" yMax="878">
      <contour>
        <pt x="297" y="796" on="1"/>
        <pt x="262" y="796" on="0"/>
        <pt x="253" y="732" on="1"/>
        <pt x="175" y="732" on="1"/>
        <pt x="184" y="877" on="0"/>
        <pt x="297" y="877" on="1"/>
        <pt x="322" y="877" on="0"/>
        <pt x="365" y="857" on="0"/>
        <pt x="389" y="834" on="0"/>
        <pt x="417" y="814" on="0"/>
        <pt x="430" y="814" on="1"/>
        <pt x="466" y="814" on="0"/>
        <pt x="475" y="878" on="1"/>
        <pt x="552" y="878" on="1"/>
        <pt x="543" y="732" on="0"/>
        <pt x="431" y="732" on="1"/>
        <pt x="398" y="732" on="0"/>
        <pt x="349" y="764" on="0"/>
        <pt x="313" y="796" on="0"/>
      </contour>
      <contour>
        <pt x="737" y="731" on="1"/>
        <pt x="885" y="731" on="0"/>
        <pt x="919" y="615" on="1"/>
        <pt x="857" y="546" on="1"/>
        <pt x="845" y="594" on="0"/>
        <pt x="795" y="636" on="0"/>
        <pt x="746" y="636" on="1"/>
        <pt x="695" y="636" on="0"/>
        <pt x="637" y="570" on="0"/>
        <pt x="637" y="514" on="1"/>
        <pt x="637" y="406" on="1"/>
        <pt x="637" y="0" on="1"/>
        <pt x="498" y="0" on="1"/>
        <pt x="253" y="404" on="1"/>
        <pt x="192" y="521" on="1"/>
        <pt x="191" y="521" on="1"/>
        <pt x="195" y="407" on="1"/>
        <pt x="195" y="0" on="1"/>
        <pt x="85" y="0" on="1"/>
        <pt x="85" y="660" on="1"/>
        <pt x="225" y="660" on="1"/>
        <pt x="469" y="257" on="1"/>
        <pt x="530" y="139" on="1"/>
        <pt x="532" y="139" on="1"/>
        <pt x="528" y="253" on="1"/>
        <pt x="528" y="478" on="1"/>
        <pt x="528" y="536" on="1"/>
        <pt x="528" y="624" on="0"/>
        <pt x="639" y="731" on="0"/>
      </contour>
    </TTGlyph>
    <TTGlyph name="O" xMin="33" yMin="-11" xMax="712" yMax="670">
      <contour>
        <pt x="33" y="330" on="1"/>
        <pt x="33" y="470" on="0"/>
        <pt x="233" y="670" on="0"/>
        <pt x="513" y="670" on="0"/>
        <pt x="712" y="470" on="0"/>
        <pt x="712" y="330" on="1"/>
        <pt x="712" y="189" on="0"/>
        <pt x="513" y="-11" on="0"/>
        <pt x="233" y="-11" on="0"/>
        <pt x="33" y="189" on="0"/>
      </contour>
      <contour>
        <pt x="147" y="329" on="1"/>
        <pt x="147" y="237" on="0"/>
        <pt x="280" y="103" on="0"/>
        <pt x="466" y="103" on="0"/>
        <pt x="599" y="237" on="0"/>
        <pt x="599" y="329" on="1"/>
        <pt x="599" y="423" on="0"/>
        <pt x="466" y="557" on="0"/>
        <pt x="280" y="557" on="0"/>
        <pt x="147" y="423" on="0"/>
      </contour>
    </TTGlyph>
    <TTGlyph name="OE" xMin="50" yMin="-10" xMax="1016" yMax="670">
      <contour>
        <pt x="659" y="101" on="1"/>
        <pt x="1016" y="101" on="1"/>
        <pt x="1016" y="0" on="1"/>
        <pt x="604" y="0" on="1"/>
        <pt x="567" y="0" on="1"/>
        <pt x="567" y="89" on="1"/>
        <pt x="489" y="-10" on="0"/>
        <pt x="357" y="-10" on="1"/>
        <pt x="215" y="-10" on="0"/>
        <pt x="50" y="172" on="0"/>
        <pt x="50" y="488" on="0"/>
        <pt x="215" y="670" on="0"/>
        <pt x="360" y="670" on="1"/>
        <pt x="491" y="670" on="0"/>
        <pt x="567" y="573" on="1"/>
        <pt x="567" y="660" on="1"/>
        <pt x="659" y="660" on="1"/>
        <pt x="1002" y="660" on="1"/>
        <pt x="1002" y="559" on="1"/>
        <pt x="659" y="559" on="1"/>
        <pt x="659" y="381" on="1"/>
        <pt x="923" y="381" on="1"/>
        <pt x="923" y="284" on="1"/>
        <pt x="659" y="284" on="1"/>
      </contour>
      <contour>
        <pt x="363" y="92" on="1"/>
        <pt x="446" y="92" on="0"/>
        <pt x="543" y="217" on="0"/>
        <pt x="543" y="443" on="0"/>
        <pt x="446" y="568" on="0"/>
        <pt x="363" y="568" on="1"/>
        <pt x="272" y="568" on="0"/>
        <pt x="174" y="444" on="0"/>
        <pt x="174" y="216" on="0"/>
        <pt x="272" y="92" on="0"/>
      </contour>
    </TTGlyph>
    <TTGlyph name="Oacute" xMin="33" yMin="-11" xMax="712" yMax="887">
      <contour>
        <pt x="374" y="887" on="1"/>
        <pt x="487" y="887" on="1"/>
        <pt x="424" y="734" on="1"/>
        <pt x="318" y="734" on="1"/>
      </contour>
      <contour>
        <pt x="33" y="330" on="1"/>
        <pt x="33" y="470" on="0"/>
        <pt x="233" y="670" on="0"/>
        <pt x="513" y="670" on="0"/>
        <pt x="712" y="470" on="0"/>
        <pt x="712" y="330" on="1"/>
        <pt x="712" y="189" on="0"/>
        <pt x="513" y="-11" on="0"/>
        <pt x="233" y="-11" on="0"/>
        <pt x="33" y="189" on="0"/>
      </contour>
      <contour>
        <pt x="147" y="329" on="1"/>
        <pt x="147" y="237" on="0"/>
        <pt x="280" y="103" on="0"/>
        <pt x="466" y="103" on="0"/>
        <pt x="599" y="237" on="0"/>
        <pt x="599" y="329" on="1"/>
        <pt x="599" y="423" on="0"/>
        <pt x="466" y="557" on="0"/>
        <pt x="280" y="557" on="0"/>
        <pt x="147" y="423" on="0"/>
      </contour>
    </TTGlyph>
    <TTGlyph name="Ocircumflex" xMin="33" yMin="-11" xMax="712" yMax="896">
      <contour>
        <pt x="548" y="729" on="1"/>
        <pt x="448" y="729" on="1"/>
        <pt x="374" y="831" on="1"/>
        <pt x="299" y="729" on="1"/>
        <pt x="200" y="729" on="1"/>
        <pt x="312" y="896" on="1"/>
        <pt x="435" y="896" on="1"/>
      </contour>
      <contour>
        <pt x="33" y="330" on="1"/>
        <pt x="33" y="470" on="0"/>
        <pt x="233" y="670" on="0"/>
        <pt x="513" y="670" on="0"/>
        <pt x="712" y="470" on="0"/>
        <pt x="712" y="330" on="1"/>
        <pt x="712" y="189" on="0"/>
        <pt x="513" y="-11" on="0"/>
        <pt x="233" y="-11" on="0"/>
        <pt x="33" y="189" on="0"/>
      </contour>
      <contour>
        <pt x="147" y="329" on="1"/>
        <pt x="147" y="237" on="0"/>
        <pt x="280" y="103" on="0"/>
        <pt x="466" y="103" on="0"/>
        <pt x="599" y="237" on="0"/>
        <pt x="599" y="329" on="1"/>
        <pt x="599" y="423" on="0"/>
        <pt x="466" y="557" on="0"/>
        <pt x="280" y="557" on="0"/>
        <pt x="147" y="423" on="0"/>
      </contour>
    </TTGlyph>
    <TTGlyph name="Odieresis" xMin="33" yMin="-11" xMax="712" yMax="868">
      <contour>
        <pt x="270" y="730" on="1"/>
        <pt x="242" y="730" on="0"/>
        <pt x="201" y="770" on="0"/>
        <pt x="201" y="828" on="0"/>
        <pt x="242" y="868" on="0"/>
        <pt x="270" y="868" on="1"/>
        <pt x="299" y="868" on="0"/>
        <pt x="340" y="827" on="0"/>
        <pt x="340" y="771" on="0"/>
        <pt x="299" y="730" on="0"/>
      </contour>
      <contour>
        <pt x="504" y="730" on="0"/>
        <pt x="446" y="730" on="0"/>
        <pt x="406" y="770" on="0"/>
        <pt x="406" y="828" on="0"/>
        <pt x="446" y="868" on="0"/>
        <pt x="504" y="868" on="0"/>
        <pt x="544" y="828" on="0"/>
        <pt x="544" y="770" on="0"/>
      </contour>
      <contour>
        <pt x="33" y="330" on="1"/>
        <pt x="33" y="470" on="0"/>
        <pt x="233" y="670" on="0"/>
        <pt x="513" y="670" on="0"/>
        <pt x="712" y="470" on="0"/>
        <pt x="712" y="330" on="1"/>
        <pt x="712" y="189" on="0"/>
        <pt x="513" y="-11" on="0"/>
        <pt x="233" y="-11" on="0"/>
        <pt x="33" y="189" on="0"/>
      </contour>
      <contour>
        <pt x="147" y="329" on="1"/>
        <pt x="147" y="237" on="0"/>
        <pt x="280" y="103" on="0"/>
        <pt x="466" y="103" on="0"/>
        <pt x="599" y="237" on="0"/>
        <pt x="599" y="329" on="1"/>
        <pt x="599" y="423" on="0"/>
        <pt x="466" y="557" on="0"/>
        <pt x="280" y="557" on="0"/>
        <pt x="147" y="423" on="0"/>
      </contour>
    </TTGlyph>
    <TTGlyph name="Odieresis.titl" xMin="50" yMin="-10" xMax="732" yMax="670">
      <contour>
        <pt x="50" y="331" on="1"/>
        <pt x="50" y="470" on="0"/>
        <pt x="251" y="670" on="0"/>
        <pt x="531" y="670" on="0"/>
        <pt x="732" y="470" on="0"/>
        <pt x="732" y="331" on="1"/>
        <pt x="732" y="190" on="0"/>
        <pt x="531" y="-10" on="0"/>
        <pt x="251" y="-10" on="0"/>
        <pt x="50" y="190" on="0"/>
      </contour>
      <contour>
        <pt x="191" y="642" on="1"/>
        <pt x="138" y="610" on="0"/>
        <pt x="103" y="560" on="1"/>
        <pt x="76" y="576" on="0"/>
        <pt x="76" y="611" on="1"/>
        <pt x="76" y="638" on="0"/>
        <pt x="109" y="670" on="0"/>
        <pt x="137" y="670" on="1"/>
        <pt x="175" y="670" on="0"/>
      </contour>
      <contour>
        <pt x="667" y="560" on="1"/>
        <pt x="632" y="610" on="0"/>
        <pt x="580" y="642" on="1"/>
        <pt x="595" y="670" on="0"/>
        <pt x="633" y="670" on="1"/>
        <pt x="661" y="670" on="0"/>
        <pt x="695" y="638" on="0"/>
        <pt x="695" y="611" on="1"/>
        <pt x="695" y="576" on="0"/>
      </contour>
      <contour>
        <pt x="157" y="330" on="1"/>
        <pt x="157" y="234" on="0"/>
        <pt x="295" y="96" on="0"/>
        <pt x="391" y="96" on="1"/>
        <pt x="488" y="96" on="0"/>
        <pt x="625" y="234" on="0"/>
        <pt x="625" y="330" on="1"/>
        <pt x="625" y="427" on="0"/>
        <pt x="488" y="565" on="0"/>
        <pt x="391" y="565" on="1"/>
        <pt x="295" y="565" on="0"/>
        <pt x="157" y="427" on="0"/>
      </contour>
    </TTGlyph>
    <TTGlyph name="Ograve" xMin="33" yMin="-11" xMax="712" yMax="887">
      <contour>
        <pt x="361" y="887" on="1"/>
        <pt x="417" y="734" on="1"/>
        <pt x="311" y="734" on="1"/>
        <pt x="248" y="887" on="1"/>
      </contour>
      <contour>
        <pt x="33" y="330" on="1"/>
        <pt x="33" y="470" on="0"/>
        <pt x="233" y="670" on="0"/>
        <pt x="513" y="670" on="0"/>
        <pt x="712" y="470" on="0"/>
        <pt x="712" y="330" on="1"/>
        <pt x="712" y="189" on="0"/>
        <pt x="513" y="-11" on="0"/>
        <pt x="233" y="-11" on="0"/>
        <pt x="33" y="189" on="0"/>
      </contour>
      <contour>
        <pt x="147" y="329" on="1"/>
        <pt x="147" y="237" on="0"/>
        <pt x="280" y="103" on="0"/>
        <pt x="466" y="103" on="0"/>
        <pt x="599" y="237" on="0"/>
        <pt x="599" y="329" on="1"/>
        <pt x="599" y="423" on="0"/>
        <pt x="466" y="557" on="0"/>
        <pt x="280" y="557" on="0"/>
        <pt x="147" y="423" on="0"/>
      </contour>
    </TTGlyph>
    <TTGlyph name="Ohungarumlaut" xMin="33" yMin="-11" xMax="712" yMax="887">
      <contour>
        <pt x="275" y="887" on="1"/>
        <pt x="388" y="887" on="1"/>
        <pt x="325" y="734" on="1"/>
        <pt x="219" y="734" on="1"/>
      </contour>
      <contour>
        <pt x="473" y="887" on="1"/>
        <pt x="586" y="887" on="1"/>
        <pt x="523" y="734" on="1"/>
        <pt x="417" y="734" on="1"/>
      </contour>
      <contour>
        <pt x="33" y="330" on="1"/>
        <pt x="33" y="470" on="0"/>
        <pt x="233" y="670" on="0"/>
        <pt x="513" y="670" on="0"/>
        <pt x="712" y="470" on="0"/>
        <pt x="712" y="330" on="1"/>
        <pt x="712" y="189" on="0"/>
        <pt x="513" y="-11" on="0"/>
        <pt x="233" y="-11" on="0"/>
        <pt x="33" y="189" on="0"/>
      </contour>
      <contour>
        <pt x="147" y="329" on="1"/>
        <pt x="147" y="237" on="0"/>
        <pt x="280" y="103" on="0"/>
        <pt x="466" y="103" on="0"/>
        <pt x="599" y="237" on="0"/>
        <pt x="599" y="329" on="1"/>
        <pt x="599" y="423" on="0"/>
        <pt x="466" y="557" on="0"/>
        <pt x="280" y="557" on="0"/>
        <pt x="147" y="423" on="0"/>
      </contour>
    </TTGlyph>
    <TTGlyph name="Oinferior" xMin="31" yMin="-196" xMax="439" yMax="212">
      <contour>
        <pt x="31" y="-76" on="0"/>
        <pt x="31" y="92" on="0"/>
        <pt x="150" y="212" on="0"/>
        <pt x="235" y="212" on="1"/>
        <pt x="319" y="212" on="0"/>
        <pt x="439" y="92" on="0"/>
        <pt x="439" y="-76" on="0"/>
        <pt x="319" y="-196" on="0"/>
        <pt x="235" y="-196" on="1"/>
        <pt x="150" y="-196" on="0"/>
      </contour>
      <contour>
        <pt x="101" y="64" on="0"/>
        <pt x="101" y="-48" on="0"/>
        <pt x="180" y="-126" on="0"/>
        <pt x="235" y="-126" on="1"/>
        <pt x="291" y="-126" on="0"/>
        <pt x="370" y="-47" on="0"/>
        <pt x="370" y="8" on="1"/>
        <pt x="370" y="64" on="0"/>
        <pt x="290" y="143" on="0"/>
        <pt x="180" y="143" on="0"/>
      </contour>
    </TTGlyph>
    <TTGlyph name="Omacron" xMin="33" yMin="-11" xMax="712" yMax="828">
      <contour>
        <pt x="553" y="828" on="1"/>
        <pt x="553" y="744" on="1"/>
        <pt x="194" y="744" on="1"/>
        <pt x="194" y="828" on="1"/>
      </contour>
      <contour>
        <pt x="33" y="330" on="1"/>
        <pt x="33" y="470" on="0"/>
        <pt x="233" y="670" on="0"/>
        <pt x="513" y="670" on="0"/>
        <pt x="712" y="470" on="0"/>
        <pt x="712" y="330" on="1"/>
        <pt x="712" y="189" on="0"/>
        <pt x="513" y="-11" on="0"/>
        <pt x="233" y="-11" on="0"/>
        <pt x="33" y="189" on="0"/>
      </contour>
      <contour>
        <pt x="147" y="329" on="1"/>
        <pt x="147" y="237" on="0"/>
        <pt x="280" y="103" on="0"/>
        <pt x="466" y="103" on="0"/>
        <pt x="599" y="237" on="0"/>
        <pt x="599" y="329" on="1"/>
        <pt x="599" y="423" on="0"/>
        <pt x="466" y="557" on="0"/>
        <pt x="280" y="557" on="0"/>
        <pt x="147" y="423" on="0"/>
      </contour>
    </TTGlyph>
    <TTGlyph name="Oslash" xMin="33" yMin="-33" xMax="712" yMax="682">
      <contour>
        <pt x="607" y="576" on="1"/>
        <pt x="712" y="476" on="0"/>
        <pt x="712" y="330" on="1"/>
        <pt x="712" y="189" on="0"/>
        <pt x="513" y="-11" on="0"/>
        <pt x="373" y="-11" on="1"/>
        <pt x="288" y="-11" on="0"/>
        <pt x="215" y="28" on="1"/>
        <pt x="172" y="-33" on="1"/>
        <pt x="94" y="-33" on="1"/>
        <pt x="162" y="63" on="1"/>
        <pt x="102" y="110" on="0"/>
        <pt x="33" y="251" on="0"/>
        <pt x="33" y="330" on="1"/>
        <pt x="33" y="470" on="0"/>
        <pt x="233" y="670" on="0"/>
        <pt x="373" y="670" on="1"/>
        <pt x="471" y="670" on="0"/>
        <pt x="557" y="615" on="1"/>
        <pt x="605" y="682" on="1"/>
        <pt x="683" y="682" on="1"/>
      </contour>
      <contour>
        <pt x="373" y="557" on="1"/>
        <pt x="280" y="557" on="0"/>
        <pt x="147" y="423" on="0"/>
        <pt x="147" y="329" on="1"/>
        <pt x="147" y="223" on="0"/>
        <pt x="231" y="154" on="1"/>
        <pt x="490" y="524" on="1"/>
        <pt x="434" y="557" on="0"/>
      </contour>
      <contour>
        <pt x="373" y="103" on="1"/>
        <pt x="466" y="103" on="0"/>
        <pt x="599" y="237" on="0"/>
        <pt x="599" y="329" on="1"/>
        <pt x="599" y="417" on="0"/>
        <pt x="539" y="483" on="1"/>
        <pt x="286" y="121" on="1"/>
        <pt x="326" y="103" on="0"/>
      </contour>
    </TTGlyph>
    <TTGlyph name="Osuperior" xMin="31" yMin="326" xMax="439" yMax="734">
      <contour>
        <pt x="31" y="446" on="0"/>
        <pt x="31" y="614" on="0"/>
        <pt x="150" y="734" on="0"/>
        <pt x="235" y="734" on="1"/>
        <pt x="319" y="734" on="0"/>
        <pt x="439" y="614" on="0"/>
        <pt x="439" y="446" on="0"/>
        <pt x="319" y="326" on="0"/>
        <pt x="235" y="326" on="1"/>
        <pt x="150" y="326" on="0"/>
      </contour>
      <contour>
        <pt x="101" y="586" on="0"/>
        <pt x="101" y="474" on="0"/>
        <pt x="180" y="396" on="0"/>
        <pt x="235" y="396" on="1"/>
        <pt x="291" y="396" on="0"/>
        <pt x="370" y="475" on="0"/>
        <pt x="370" y="530" on="1"/>
        <pt x="370" y="586" on="0"/>
        <pt x="290" y="665" on="0"/>
        <pt x="180" y="665" on="0"/>
      </contour>
    </TTGlyph>
    <TTGlyph name="Otilde" xMin="33" yMin="-11" xMax="712" yMax="878">
      <contour>
        <pt x="561" y="878" on="1"/>
        <pt x="552" y="732" on="0"/>
        <pt x="440" y="732" on="1"/>
        <pt x="407" y="732" on="0"/>
        <pt x="358" y="764" on="0"/>
        <pt x="322" y="796" on="0"/>
        <pt x="306" y="796" on="1"/>
        <pt x="271" y="796" on="0"/>
        <pt x="262" y="732" on="1"/>
        <pt x="184" y="732" on="1"/>
        <pt x="193" y="877" on="0"/>
        <pt x="306" y="877" on="1"/>
        <pt x="331" y="877" on="0"/>
        <pt x="374" y="857" on="0"/>
        <pt x="398" y="834" on="0"/>
        <pt x="426" y="814" on="0"/>
        <pt x="439" y="814" on="1"/>
        <pt x="475" y="814" on="0"/>
        <pt x="484" y="878" on="1"/>
      </contour>
      <contour>
        <pt x="33" y="330" on="1"/>
        <pt x="33" y="470" on="0"/>
        <pt x="233" y="670" on="0"/>
        <pt x="513" y="670" on="0"/>
        <pt x="712" y="470" on="0"/>
        <pt x="712" y="330" on="1"/>
        <pt x="712" y="189" on="0"/>
        <pt x="513" y="-11" on="0"/>
        <pt x="233" y="-11" on="0"/>
        <pt x="33" y="189" on="0"/>
      </contour>
      <contour>
        <pt x="147" y="329" on="1"/>
        <pt x="147" y="237" on="0"/>
        <pt x="280" y="103" on="0"/>
        <pt x="466" y="103" on="0"/>
        <pt x="599" y="237" on="0"/>
        <pt x="599" y="329" on="1"/>
        <pt x="599" y="423" on="0"/>
        <pt x="466" y="557" on="0"/>
        <pt x="280" y="557" on="0"/>
        <pt x="147" y="423" on="0"/>
      </contour>
    </TTGlyph>
    <TTGlyph name="P" xMin="85" yMin="0" xMax="611" yMax="660">
      <contour>
        <pt x="364" y="660" on="1"/>
        <pt x="471" y="660" on="0"/>
        <pt x="611" y="530" on="0"/>
        <pt x="611" y="338" on="0"/>
        <pt x="471" y="202" on="0"/>
        <pt x="364" y="202" on="1"/>
        <pt x="205" y="202" on="1"/>
        <pt x="205" y="0" on="1"/>
        <pt x="85" y="0" on="1"/>
        <pt x="85" y="660" on="1"/>
        <pt x="205" y="660" on="1"/>
      </contour>
      <contour>
        <pt x="351" y="300" on="1"/>
        <pt x="412" y="300" on="0"/>
        <pt x="488" y="378" on="0"/>
        <pt x="488" y="486" on="0"/>
        <pt x="412" y="561" on="0"/>
        <pt x="351" y="561" on="1"/>
        <pt x="205" y="561" on="1"/>
        <pt x="205" y="300" on="1"/>
      </contour>
    </TTGlyph>
    <TTGlyph name="Q" xMin="33" yMin="-86" xMax="712" yMax="670">
      <contour>
        <pt x="712" y="330" on="1"/>
        <pt x="712" y="194" on="0"/>
        <pt x="619" y="96" on="1"/>
        <pt x="701" y="-20" on="1"/>
        <pt x="608" y="-86" on="1"/>
        <pt x="526" y="26" on="1"/>
        <pt x="452" y="-11" on="0"/>
        <pt x="373" y="-11" on="1"/>
        <pt x="233" y="-11" on="0"/>
        <pt x="33" y="189" on="0"/>
        <pt x="33" y="330" on="1"/>
        <pt x="33" y="470" on="0"/>
        <pt x="233" y="670" on="0"/>
        <pt x="513" y="670" on="0"/>
        <pt x="712" y="470" on="0"/>
      </contour>
      <contour>
        <pt x="147" y="329" on="1"/>
        <pt x="147" y="237" on="0"/>
        <pt x="280" y="103" on="0"/>
        <pt x="466" y="103" on="0"/>
        <pt x="599" y="237" on="0"/>
        <pt x="599" y="329" on="1"/>
        <pt x="599" y="423" on="0"/>
        <pt x="466" y="557" on="0"/>
        <pt x="280" y="557" on="0"/>
        <pt x="147" y="423" on="0"/>
      </contour>
    </TTGlyph>
    <TTGlyph name="R" xMin="85" yMin="0" xMax="627" yMax="660">
      <contour>
        <pt x="627" y="0" on="1"/>
        <pt x="493" y="0" on="1"/>
        <pt x="371" y="199" on="1"/>
        <pt x="364" y="199" on="1"/>
        <pt x="205" y="199" on="1"/>
        <pt x="205" y="0" on="1"/>
        <pt x="85" y="0" on="1"/>
        <pt x="85" y="660" on="1"/>
        <pt x="205" y="660" on="1"/>
        <pt x="364" y="660" on="1"/>
        <pt x="471" y="660" on="0"/>
        <pt x="611" y="530" on="0"/>
        <pt x="611" y="434" on="1"/>
        <pt x="611" y="370" on="0"/>
        <pt x="544" y="259" on="0"/>
        <pt x="487" y="229" on="1"/>
      </contour>
      <contour>
        <pt x="205" y="561" on="1"/>
        <pt x="205" y="300" on="1"/>
        <pt x="351" y="300" on="1"/>
        <pt x="412" y="300" on="0"/>
        <pt x="488" y="378" on="0"/>
        <pt x="488" y="486" on="0"/>
        <pt x="412" y="561" on="0"/>
        <pt x="351" y="561" on="1"/>
      </contour>
    </TTGlyph>
    <TTGlyph name="R.ss03" xMin="85" yMin="0" xMax="638" yMax="660">
      <contour>
        <pt x="638" y="0" on="1"/>
        <pt x="501" y="0" on="1"/>
        <pt x="376" y="205" on="1"/>
        <pt x="372" y="204" on="0"/>
        <pt x="364" y="204" on="1"/>
        <pt x="205" y="204" on="1"/>
        <pt x="205" y="0" on="1"/>
        <pt x="85" y="0" on="1"/>
        <pt x="85" y="660" on="1"/>
        <pt x="205" y="660" on="1"/>
        <pt x="364" y="660" on="1"/>
        <pt x="471" y="660" on="0"/>
        <pt x="611" y="530" on="0"/>
        <pt x="611" y="434" on="1"/>
        <pt x="611" y="370" on="0"/>
        <pt x="545" y="263" on="0"/>
        <pt x="488" y="233" on="1"/>
      </contour>
      <contour>
        <pt x="205" y="300" on="1"/>
        <pt x="351" y="300" on="1"/>
        <pt x="412" y="300" on="0"/>
        <pt x="488" y="378" on="0"/>
        <pt x="488" y="486" on="0"/>
        <pt x="412" y="561" on="0"/>
        <pt x="351" y="561" on="1"/>
        <pt x="205" y="561" on="1"/>
      </contour>
    </TTGlyph>
    <TTGlyph name="R.swsh" xMin="3" yMin="-110" xMax="870" yMax="660">
      <contour>
        <pt x="733" y="0" on="1"/>
        <pt x="606" y="204" on="1"/>
        <pt x="436" y="204" on="1"/>
        <pt x="436" y="88" on="1"/>
        <pt x="436" y="-3" on="0"/>
        <pt x="322" y="-110" on="0"/>
        <pt x="221" y="-110" on="1"/>
        <pt x="69" y="-110" on="0"/>
        <pt x="36" y="11" on="1"/>
        <pt x="100" y="78" on="1"/>
        <pt x="112" y="28" on="0"/>
        <pt x="164" y="-15" on="0"/>
        <pt x="260" y="-15" on="0"/>
        <pt x="317" y="50" on="0"/>
        <pt x="317" y="102" on="1"/>
        <pt x="317" y="205" on="1"/>
        <pt x="317" y="568" on="1"/>
        <pt x="240" y="568" on="1"/>
        <pt x="182" y="568" on="0"/>
        <pt x="116" y="516" on="0"/>
        <pt x="116" y="467" on="1"/>
        <pt x="116" y="427" on="0"/>
        <pt x="171" y="372" on="0"/>
        <pt x="217" y="365" on="1"/>
        <pt x="177" y="278" on="1"/>
        <pt x="102" y="287" on="0"/>
        <pt x="3" y="390" on="0"/>
        <pt x="3" y="469" on="1"/>
        <pt x="3" y="559" on="0"/>
        <pt x="122" y="660" on="0"/>
        <pt x="227" y="660" on="1"/>
        <pt x="409" y="660" on="1"/>
        <pt x="451" y="660" on="1"/>
        <pt x="616" y="660" on="1"/>
        <pt x="723" y="660" on="0"/>
        <pt x="863" y="530" on="0"/>
        <pt x="863" y="434" on="1"/>
        <pt x="863" y="365" on="0"/>
        <pt x="788" y="253" on="0"/>
        <pt x="723" y="225" on="1"/>
        <pt x="870" y="0" on="1"/>
      </contour>
      <contour>
        <pt x="603" y="561" on="1"/>
        <pt x="436" y="561" on="1"/>
        <pt x="436" y="300" on="1"/>
        <pt x="603" y="300" on="1"/>
        <pt x="664" y="300" on="0"/>
        <pt x="740" y="378" on="0"/>
        <pt x="740" y="486" on="0"/>
        <pt x="664" y="561" on="0"/>
      </contour>
    </TTGlyph>
    <TTGlyph name="R.swsh.001" xMin="85" yMin="-90" xMax="703" yMax="660">
      <contour>
        <pt x="550" y="102" on="1"/>
        <pt x="580" y="62" on="0"/>
        <pt x="666" y="-6" on="0"/>
        <pt x="703" y="-16" on="1"/>
        <pt x="638" y="-90" on="1"/>
        <pt x="565" y="-61" on="0"/>
        <pt x="491" y="1" on="0"/>
        <pt x="458" y="49" on="1"/>
        <pt x="349" y="204" on="1"/>
        <pt x="205" y="204" on="1"/>
        <pt x="205" y="0" on="1"/>
        <pt x="85" y="0" on="1"/>
        <pt x="85" y="660" on="1"/>
        <pt x="205" y="660" on="1"/>
        <pt x="364" y="660" on="1"/>
        <pt x="471" y="660" on="0"/>
        <pt x="611" y="530" on="0"/>
        <pt x="611" y="434" on="1"/>
        <pt x="611" y="363" on="0"/>
        <pt x="531" y="248" on="0"/>
        <pt x="463" y="222" on="1"/>
      </contour>
      <contour>
        <pt x="205" y="561" on="1"/>
        <pt x="205" y="300" on="1"/>
        <pt x="351" y="300" on="1"/>
        <pt x="412" y="300" on="0"/>
        <pt x="488" y="378" on="0"/>
        <pt x="488" y="486" on="0"/>
        <pt x="412" y="561" on="0"/>
        <pt x="351" y="561" on="1"/>
      </contour>
    </TTGlyph>
    <TTGlyph name="Racute" xMin="85" yMin="0" xMax="627" yMax="887">
      <contour>
        <pt x="432" y="887" on="1"/>
        <pt x="369" y="734" on="1"/>
        <pt x="263" y="734" on="1"/>
        <pt x="319" y="887" on="1"/>
      </contour>
      <contour>
        <pt x="627" y="0" on="1"/>
        <pt x="493" y="0" on="1"/>
        <pt x="371" y="199" on="1"/>
        <pt x="364" y="199" on="1"/>
        <pt x="205" y="199" on="1"/>
        <pt x="205" y="0" on="1"/>
        <pt x="85" y="0" on="1"/>
        <pt x="85" y="660" on="1"/>
        <pt x="205" y="660" on="1"/>
        <pt x="364" y="660" on="1"/>
        <pt x="471" y="660" on="0"/>
        <pt x="611" y="530" on="0"/>
        <pt x="611" y="434" on="1"/>
        <pt x="611" y="370" on="0"/>
        <pt x="544" y="259" on="0"/>
        <pt x="487" y="229" on="1"/>
      </contour>
      <contour>
        <pt x="205" y="561" on="1"/>
        <pt x="205" y="300" on="1"/>
        <pt x="351" y="300" on="1"/>
        <pt x="412" y="300" on="0"/>
        <pt x="488" y="378" on="0"/>
        <pt x="488" y="486" on="0"/>
        <pt x="412" y="561" on="0"/>
        <pt x="351" y="561" on="1"/>
      </contour>
    </TTGlyph>
    <TTGlyph name="Racute.ss03" xMin="85" yMin="0" xMax="638" yMax="887">
      <contour>
        <pt x="432" y="887" on="1"/>
        <pt x="369" y="734" on="1"/>
        <pt x="263" y="734" on="1"/>
        <pt x="319" y="887" on="1"/>
      </contour>
      <contour>
        <pt x="638" y="0" on="1"/>
        <pt x="501" y="0" on="1"/>
        <pt x="376" y="205" on="1"/>
        <pt x="372" y="204" on="0"/>
        <pt x="364" y="204" on="1"/>
        <pt x="205" y="204" on="1"/>
        <pt x="205" y="0" on="1"/>
        <pt x="85" y="0" on="1"/>
        <pt x="85" y="660" on="1"/>
        <pt x="205" y="660" on="1"/>
        <pt x="364" y="660" on="1"/>
        <pt x="471" y="660" on="0"/>
        <pt x="611" y="530" on="0"/>
        <pt x="611" y="434" on="1"/>
        <pt x="611" y="370" on="0"/>
        <pt x="545" y="263" on="0"/>
        <pt x="488" y="233" on="1"/>
      </contour>
      <contour>
        <pt x="205" y="300" on="1"/>
        <pt x="351" y="300" on="1"/>
        <pt x="412" y="300" on="0"/>
        <pt x="488" y="378" on="0"/>
        <pt x="488" y="486" on="0"/>
        <pt x="412" y="561" on="0"/>
        <pt x="351" y="561" on="1"/>
        <pt x="205" y="561" on="1"/>
      </contour>
    </TTGlyph>
    <TTGlyph name="Racute.swsh" xMin="3" yMin="-110" xMax="870" yMax="887">
      <contour>
        <pt x="664" y="887" on="1"/>
        <pt x="601" y="734" on="1"/>
        <pt x="495" y="734" on="1"/>
        <pt x="551" y="887" on="1"/>
      </contour>
      <contour>
        <pt x="733" y="0" on="1"/>
        <pt x="606" y="204" on="1"/>
        <pt x="436" y="204" on="1"/>
        <pt x="436" y="88" on="1"/>
        <pt x="436" y="-3" on="0"/>
        <pt x="322" y="-110" on="0"/>
        <pt x="221" y="-110" on="1"/>
        <pt x="69" y="-110" on="0"/>
        <pt x="36" y="11" on="1"/>
        <pt x="100" y="78" on="1"/>
        <pt x="112" y="28" on="0"/>
        <pt x="164" y="-15" on="0"/>
        <pt x="260" y="-15" on="0"/>
        <pt x="317" y="50" on="0"/>
        <pt x="317" y="102" on="1"/>
        <pt x="317" y="205" on="1"/>
        <pt x="317" y="568" on="1"/>
        <pt x="240" y="568" on="1"/>
        <pt x="182" y="568" on="0"/>
        <pt x="116" y="516" on="0"/>
        <pt x="116" y="467" on="1"/>
        <pt x="116" y="427" on="0"/>
        <pt x="171" y="372" on="0"/>
        <pt x="217" y="365" on="1"/>
        <pt x="177" y="278" on="1"/>
        <pt x="102" y="287" on="0"/>
        <pt x="3" y="390" on="0"/>
        <pt x="3" y="469" on="1"/>
        <pt x="3" y="559" on="0"/>
        <pt x="122" y="660" on="0"/>
        <pt x="227" y="660" on="1"/>
        <pt x="409" y="660" on="1"/>
        <pt x="451" y="660" on="1"/>
        <pt x="616" y="660" on="1"/>
        <pt x="723" y="660" on="0"/>
        <pt x="863" y="530" on="0"/>
        <pt x="863" y="434" on="1"/>
        <pt x="863" y="365" on="0"/>
        <pt x="788" y="253" on="0"/>
        <pt x="723" y="225" on="1"/>
        <pt x="870" y="0" on="1"/>
      </contour>
      <contour>
        <pt x="603" y="561" on="1"/>
        <pt x="436" y="561" on="1"/>
        <pt x="436" y="300" on="1"/>
        <pt x="603" y="300" on="1"/>
        <pt x="664" y="300" on="0"/>
        <pt x="740" y="378" on="0"/>
        <pt x="740" y="486" on="0"/>
        <pt x="664" y="561" on="0"/>
      </contour>
    </TTGlyph>
    <TTGlyph name="Racute.swsh.001" xMin="85" yMin="-90" xMax="703" yMax="887">
      <contour>
        <pt x="432" y="887" on="1"/>
        <pt x="369" y="734" on="1"/>
        <pt x="263" y="734" on="1"/>
        <pt x="319" y="887" on="1"/>
      </contour>
      <contour>
        <pt x="550" y="102" on="1"/>
        <pt x="580" y="62" on="0"/>
        <pt x="666" y="-6" on="0"/>
        <pt x="703" y="-16" on="1"/>
        <pt x="638" y="-90" on="1"/>
        <pt x="565" y="-61" on="0"/>
        <pt x="491" y="1" on="0"/>
        <pt x="458" y="49" on="1"/>
        <pt x="349" y="204" on="1"/>
        <pt x="205" y="204" on="1"/>
        <pt x="205" y="0" on="1"/>
        <pt x="85" y="0" on="1"/>
        <pt x="85" y="660" on="1"/>
        <pt x="205" y="660" on="1"/>
        <pt x="364" y="660" on="1"/>
        <pt x="471" y="660" on="0"/>
        <pt x="611" y="530" on="0"/>
        <pt x="611" y="434" on="1"/>
        <pt x="611" y="363" on="0"/>
        <pt x="531" y="248" on="0"/>
        <pt x="463" y="222" on="1"/>
      </contour>
      <contour>
        <pt x="205" y="561" on="1"/>
        <pt x="205" y="300" on="1"/>
        <pt x="351" y="300" on="1"/>
        <pt x="412" y="300" on="0"/>
        <pt x="488" y="378" on="0"/>
        <pt x="488" y="486" on="0"/>
        <pt x="412" y="561" on="0"/>
        <pt x="351" y="561" on="1"/>
      </contour>
    </TTGlyph>
    <TTGlyph name="Rcaron" xMin="85" yMin="0" xMax="627" yMax="897">
      <contour>
        <pt x="378" y="730" on="1"/>
        <pt x="255" y="730" on="1"/>
        <pt x="143" y="897" on="1"/>
        <pt x="242" y="897" on="1"/>
        <pt x="317" y="795" on="1"/>
        <pt x="391" y="897" on="1"/>
        <pt x="491" y="897" on="1"/>
      </contour>
      <contour>
        <pt x="627" y="0" on="1"/>
        <pt x="493" y="0" on="1"/>
        <pt x="371" y="199" on="1"/>
        <pt x="364" y="199" on="1"/>
        <pt x="205" y="199" on="1"/>
        <pt x="205" y="0" on="1"/>
        <pt x="85" y="0" on="1"/>
        <pt x="85" y="660" on="1"/>
        <pt x="205" y="660" on="1"/>
        <pt x="364" y="660" on="1"/>
        <pt x="471" y="660" on="0"/>
        <pt x="611" y="530" on="0"/>
        <pt x="611" y="434" on="1"/>
        <pt x="611" y="370" on="0"/>
        <pt x="544" y="259" on="0"/>
        <pt x="487" y="229" on="1"/>
      </contour>
      <contour>
        <pt x="205" y="561" on="1"/>
        <pt x="205" y="300" on="1"/>
        <pt x="351" y="300" on="1"/>
        <pt x="412" y="300" on="0"/>
        <pt x="488" y="378" on="0"/>
        <pt x="488" y="486" on="0"/>
        <pt x="412" y="561" on="0"/>
        <pt x="351" y="561" on="1"/>
      </contour>
    </TTGlyph>
    <TTGlyph name="Rcaron.ss03" xMin="85" yMin="0" xMax="638" yMax="897">
      <contour>
        <pt x="378" y="730" on="1"/>
        <pt x="255" y="730" on="1"/>
        <pt x="143" y="897" on="1"/>
        <pt x="242" y="897" on="1"/>
        <pt x="317" y="795" on="1"/>
        <pt x="391" y="897" on="1"/>
        <pt x="491" y="897" on="1"/>
      </contour>
      <contour>
        <pt x="638" y="0" on="1"/>
        <pt x="501" y="0" on="1"/>
        <pt x="376" y="205" on="1"/>
        <pt x="372" y="204" on="0"/>
        <pt x="364" y="204" on="1"/>
        <pt x="205" y="204" on="1"/>
        <pt x="205" y="0" on="1"/>
        <pt x="85" y="0" on="1"/>
        <pt x="85" y="660" on="1"/>
        <pt x="205" y="660" on="1"/>
        <pt x="364" y="660" on="1"/>
        <pt x="471" y="660" on="0"/>
        <pt x="611" y="530" on="0"/>
        <pt x="611" y="434" on="1"/>
        <pt x="611" y="370" on="0"/>
        <pt x="545" y="263" on="0"/>
        <pt x="488" y="233" on="1"/>
      </contour>
      <contour>
        <pt x="205" y="300" on="1"/>
        <pt x="351" y="300" on="1"/>
        <pt x="412" y="300" on="0"/>
        <pt x="488" y="378" on="0"/>
        <pt x="488" y="486" on="0"/>
        <pt x="412" y="561" on="0"/>
        <pt x="351" y="561" on="1"/>
        <pt x="205" y="561" on="1"/>
      </contour>
    </TTGlyph>
    <TTGlyph name="Rcaron.swsh" xMin="3" yMin="-110" xMax="870" yMax="897">
      <contour>
        <pt x="609" y="730" on="1"/>
        <pt x="486" y="730" on="1"/>
        <pt x="374" y="897" on="1"/>
        <pt x="473" y="897" on="1"/>
        <pt x="548" y="795" on="1"/>
        <pt x="622" y="897" on="1"/>
        <pt x="722" y="897" on="1"/>
      </contour>
      <contour>
        <pt x="733" y="0" on="1"/>
        <pt x="606" y="204" on="1"/>
        <pt x="436" y="204" on="1"/>
        <pt x="436" y="88" on="1"/>
        <pt x="436" y="-3" on="0"/>
        <pt x="322" y="-110" on="0"/>
        <pt x="221" y="-110" on="1"/>
        <pt x="69" y="-110" on="0"/>
        <pt x="36" y="11" on="1"/>
        <pt x="100" y="78" on="1"/>
        <pt x="112" y="28" on="0"/>
        <pt x="164" y="-15" on="0"/>
        <pt x="260" y="-15" on="0"/>
        <pt x="317" y="50" on="0"/>
        <pt x="317" y="102" on="1"/>
        <pt x="317" y="205" on="1"/>
        <pt x="317" y="568" on="1"/>
        <pt x="240" y="568" on="1"/>
        <pt x="182" y="568" on="0"/>
        <pt x="116" y="516" on="0"/>
        <pt x="116" y="467" on="1"/>
        <pt x="116" y="427" on="0"/>
        <pt x="171" y="372" on="0"/>
        <pt x="217" y="365" on="1"/>
        <pt x="177" y="278" on="1"/>
        <pt x="102" y="287" on="0"/>
        <pt x="3" y="390" on="0"/>
        <pt x="3" y="469" on="1"/>
        <pt x="3" y="559" on="0"/>
        <pt x="122" y="660" on="0"/>
        <pt x="227" y="660" on="1"/>
        <pt x="409" y="660" on="1"/>
        <pt x="451" y="660" on="1"/>
        <pt x="616" y="660" on="1"/>
        <pt x="723" y="660" on="0"/>
        <pt x="863" y="530" on="0"/>
        <pt x="863" y="434" on="1"/>
        <pt x="863" y="365" on="0"/>
        <pt x="788" y="253" on="0"/>
        <pt x="723" y="225" on="1"/>
        <pt x="870" y="0" on="1"/>
      </contour>
      <contour>
        <pt x="603" y="561" on="1"/>
        <pt x="436" y="561" on="1"/>
        <pt x="436" y="300" on="1"/>
        <pt x="603" y="300" on="1"/>
        <pt x="664" y="300" on="0"/>
        <pt x="740" y="378" on="0"/>
        <pt x="740" y="486" on="0"/>
        <pt x="664" y="561" on="0"/>
      </contour>
    </TTGlyph>
    <TTGlyph name="Rcaron.swsh.001" xMin="85" yMin="-90" xMax="703" yMax="897">
      <contour>
        <pt x="378" y="730" on="1"/>
        <pt x="255" y="730" on="1"/>
        <pt x="143" y="897" on="1"/>
        <pt x="242" y="897" on="1"/>
        <pt x="317" y="795" on="1"/>
        <pt x="391" y="897" on="1"/>
        <pt x="491" y="897" on="1"/>
      </contour>
      <contour>
        <pt x="550" y="102" on="1"/>
        <pt x="580" y="62" on="0"/>
        <pt x="666" y="-6" on="0"/>
        <pt x="703" y="-16" on="1"/>
        <pt x="638" y="-90" on="1"/>
        <pt x="565" y="-61" on="0"/>
        <pt x="491" y="1" on="0"/>
        <pt x="458" y="49" on="1"/>
        <pt x="349" y="204" on="1"/>
        <pt x="205" y="204" on="1"/>
        <pt x="205" y="0" on="1"/>
        <pt x="85" y="0" on="1"/>
        <pt x="85" y="660" on="1"/>
        <pt x="205" y="660" on="1"/>
        <pt x="364" y="660" on="1"/>
        <pt x="471" y="660" on="0"/>
        <pt x="611" y="530" on="0"/>
        <pt x="611" y="434" on="1"/>
        <pt x="611" y="363" on="0"/>
        <pt x="531" y="248" on="0"/>
        <pt x="463" y="222" on="1"/>
      </contour>
      <contour>
        <pt x="205" y="561" on="1"/>
        <pt x="205" y="300" on="1"/>
        <pt x="351" y="300" on="1"/>
        <pt x="412" y="300" on="0"/>
        <pt x="488" y="378" on="0"/>
        <pt x="488" y="486" on="0"/>
        <pt x="412" y="561" on="0"/>
        <pt x="351" y="561" on="1"/>
      </contour>
    </TTGlyph>
    <TTGlyph name="Rcommaaccent.sc" xMin="76" yMin="-239" xMax="577" yMax="560">
      <contour>
        <pt x="449" y="191" on="1"/>
        <pt x="577" y="0" on="1"/>
        <pt x="444" y="0" on="1"/>
        <pt x="345" y="163" on="1"/>
        <pt x="343" y="163" on="0"/>
        <pt x="334" y="162" on="0"/>
        <pt x="331" y="162" on="1"/>
        <pt x="195" y="162" on="1"/>
        <pt x="195" y="0" on="1"/>
        <pt x="76" y="0" on="1"/>
        <pt x="76" y="560" on="1"/>
        <pt x="195" y="560" on="1"/>
        <pt x="331" y="560" on="1"/>
        <pt x="429" y="560" on="0"/>
        <pt x="551" y="446" on="0"/>
        <pt x="551" y="362" on="1"/>
        <pt x="551" y="307" on="0"/>
        <pt x="497" y="217" on="0"/>
      </contour>
      <contour>
        <pt x="195" y="247" on="1"/>
        <pt x="321" y="247" on="1"/>
        <pt x="372" y="247" on="0"/>
        <pt x="432" y="314" on="0"/>
        <pt x="432" y="404" on="0"/>
        <pt x="372" y="469" on="0"/>
        <pt x="321" y="469" on="1"/>
        <pt x="195" y="469" on="1"/>
      </contour>
      <contour>
        <pt x="214" y="-239" on="1"/>
        <pt x="275" y="-69" on="1"/>
        <pt x="369" y="-69" on="1"/>
        <pt x="308" y="-239" on="1"/>
      </contour>
    </TTGlyph>
    <TTGlyph name="Rcommaaccent.sc.ss03" xMin="76" yMin="-239" xMax="555" yMax="560">
      <contour>
        <pt x="76" y="0" on="1"/>
        <pt x="76" y="560" on="1"/>
        <pt x="331" y="560" on="1"/>
        <pt x="431" y="560" on="0"/>
        <pt x="546" y="470" on="0"/>
        <pt x="546" y="392" on="1"/>
        <pt x="546" y="333" on="0"/>
        <pt x="481" y="259" on="0"/>
        <pt x="423" y="247" on="1"/>
        <pt x="423" y="245" on="1"/>
        <pt x="516" y="228" on="0"/>
        <pt x="523" y="143" on="1"/>
        <pt x="534" y="38" on="0"/>
        <pt x="555" y="4" on="1"/>
        <pt x="555" y="0" on="1"/>
        <pt x="428" y="0" on="1"/>
        <pt x="417" y="26" on="0"/>
        <pt x="406" y="131" on="1"/>
        <pt x="402" y="174" on="0"/>
        <pt x="346" y="213" on="0"/>
        <pt x="291" y="213" on="1"/>
        <pt x="195" y="213" on="1"/>
        <pt x="195" y="0" on="1"/>
      </contour>
      <contour>
        <pt x="195" y="298" on="1"/>
        <pt x="318" y="298" on="1"/>
        <pt x="427" y="298" on="0"/>
        <pt x="427" y="383" on="1"/>
        <pt x="427" y="469" on="0"/>
        <pt x="318" y="469" on="1"/>
        <pt x="195" y="469" on="1"/>
      </contour>
      <contour>
        <pt x="366" y="-69" on="1"/>
        <pt x="305" y="-239" on="1"/>
        <pt x="211" y="-239" on="1"/>
        <pt x="272" y="-69" on="1"/>
      </contour>
    </TTGlyph>
    <TTGlyph name="Rcommaaccent.ss03" xMin="85" yMin="-239" xMax="638" yMax="660">
      <contour>
        <pt x="488" y="233" on="1"/>
        <pt x="638" y="0" on="1"/>
        <pt x="501" y="0" on="1"/>
        <pt x="376" y="205" on="1"/>
        <pt x="372" y="204" on="0"/>
        <pt x="364" y="204" on="1"/>
        <pt x="205" y="204" on="1"/>
        <pt x="205" y="0" on="1"/>
        <pt x="85" y="0" on="1"/>
        <pt x="85" y="660" on="1"/>
        <pt x="205" y="660" on="1"/>
        <pt x="364" y="660" on="1"/>
        <pt x="471" y="660" on="0"/>
        <pt x="611" y="530" on="0"/>
        <pt x="611" y="434" on="1"/>
        <pt x="611" y="370" on="0"/>
        <pt x="545" y="263" on="0"/>
      </contour>
      <contour>
        <pt x="205" y="300" on="1"/>
        <pt x="351" y="300" on="1"/>
        <pt x="412" y="300" on="0"/>
        <pt x="488" y="378" on="0"/>
        <pt x="488" y="486" on="0"/>
        <pt x="412" y="561" on="0"/>
        <pt x="351" y="561" on="1"/>
        <pt x="205" y="561" on="1"/>
      </contour>
      <contour>
        <pt x="247" y="-239" on="1"/>
        <pt x="308" y="-69" on="1"/>
        <pt x="402" y="-69" on="1"/>
        <pt x="341" y="-239" on="1"/>
      </contour>
    </TTGlyph>
    <TTGlyph name="Rcommaaccent.swsh" xMin="3" yMin="-239" xMax="870" yMax="660">
      <contour>
        <pt x="723" y="225" on="1"/>
        <pt x="870" y="0" on="1"/>
        <pt x="733" y="0" on="1"/>
        <pt x="606" y="204" on="1"/>
        <pt x="436" y="204" on="1"/>
        <pt x="436" y="88" on="1"/>
        <pt x="436" y="-3" on="0"/>
        <pt x="322" y="-110" on="0"/>
        <pt x="221" y="-110" on="1"/>
        <pt x="69" y="-110" on="0"/>
        <pt x="36" y="11" on="1"/>
        <pt x="100" y="78" on="1"/>
        <pt x="112" y="28" on="0"/>
        <pt x="164" y="-15" on="0"/>
        <pt x="260" y="-15" on="0"/>
        <pt x="317" y="50" on="0"/>
        <pt x="317" y="102" on="1"/>
        <pt x="317" y="205" on="1"/>
        <pt x="317" y="568" on="1"/>
        <pt x="240" y="568" on="1"/>
        <pt x="182" y="568" on="0"/>
        <pt x="116" y="516" on="0"/>
        <pt x="116" y="467" on="1"/>
        <pt x="116" y="427" on="0"/>
        <pt x="171" y="372" on="0"/>
        <pt x="217" y="365" on="1"/>
        <pt x="177" y="278" on="1"/>
        <pt x="102" y="287" on="0"/>
        <pt x="3" y="390" on="0"/>
        <pt x="3" y="469" on="1"/>
        <pt x="3" y="559" on="0"/>
        <pt x="122" y="660" on="0"/>
        <pt x="227" y="660" on="1"/>
        <pt x="409" y="660" on="1"/>
        <pt x="451" y="660" on="1"/>
        <pt x="616" y="660" on="1"/>
        <pt x="723" y="660" on="0"/>
        <pt x="863" y="530" on="0"/>
        <pt x="863" y="434" on="1"/>
        <pt x="863" y="365" on="0"/>
        <pt x="788" y="253" on="0"/>
      </contour>
      <contour>
        <pt x="603" y="561" on="1"/>
        <pt x="436" y="561" on="1"/>
        <pt x="436" y="300" on="1"/>
        <pt x="603" y="300" on="1"/>
        <pt x="664" y="300" on="0"/>
        <pt x="740" y="378" on="0"/>
        <pt x="740" y="486" on="0"/>
        <pt x="664" y="561" on="0"/>
      </contour>
      <contour>
        <pt x="479" y="-239" on="1"/>
        <pt x="540" y="-69" on="1"/>
        <pt x="634" y="-69" on="1"/>
        <pt x="573" y="-239" on="1"/>
      </contour>
    </TTGlyph>
    <TTGlyph name="Rcommaaccent.swsh.001" xMin="85" yMin="-239" xMax="703" yMax="660">
      <contour>
        <pt x="550" y="102" on="1"/>
        <pt x="580" y="62" on="0"/>
        <pt x="666" y="-6" on="0"/>
        <pt x="703" y="-16" on="1"/>
        <pt x="638" y="-90" on="1"/>
        <pt x="565" y="-61" on="0"/>
        <pt x="491" y="1" on="0"/>
        <pt x="458" y="49" on="1"/>
        <pt x="349" y="204" on="1"/>
        <pt x="205" y="204" on="1"/>
        <pt x="205" y="0" on="1"/>
        <pt x="85" y="0" on="1"/>
        <pt x="85" y="660" on="1"/>
        <pt x="205" y="660" on="1"/>
        <pt x="364" y="660" on="1"/>
        <pt x="471" y="660" on="0"/>
        <pt x="611" y="530" on="0"/>
        <pt x="611" y="434" on="1"/>
        <pt x="611" y="363" on="0"/>
        <pt x="531" y="248" on="0"/>
        <pt x="463" y="222" on="1"/>
      </contour>
      <contour>
        <pt x="205" y="561" on="1"/>
        <pt x="205" y="300" on="1"/>
        <pt x="351" y="300" on="1"/>
        <pt x="412" y="300" on="0"/>
        <pt x="488" y="378" on="0"/>
        <pt x="488" y="486" on="0"/>
        <pt x="412" y="561" on="0"/>
        <pt x="351" y="561" on="1"/>
      </contour>
      <contour>
        <pt x="247" y="-239" on="1"/>
        <pt x="308" y="-69" on="1"/>
        <pt x="402" y="-69" on="1"/>
        <pt x="341" y="-239" on="1"/>
      </contour>
    </TTGlyph>
    <TTGlyph name="S" xMin="51" yMin="-11" xMax="533" yMax="671">
      <contour>
        <pt x="293" y="-11" on="1"/>
        <pt x="182" y="-11" on="0"/>
        <pt x="51" y="94" on="0"/>
        <pt x="51" y="165" on="1"/>
        <pt x="51" y="190" on="0"/>
        <pt x="54" y="211" on="1"/>
        <pt x="152" y="211" on="1"/>
        <pt x="152" y="177" on="1"/>
        <pt x="152" y="142" on="0"/>
        <pt x="225" y="81" on="0"/>
        <pt x="291" y="81" on="1"/>
        <pt x="351" y="81" on="0"/>
        <pt x="416" y="132" on="0"/>
        <pt x="416" y="173" on="1"/>
        <pt x="416" y="198" on="0"/>
        <pt x="392" y="236" on="0"/>
        <pt x="343" y="262" on="0"/>
        <pt x="306" y="275" on="0"/>
        <pt x="274" y="284" on="1"/>
        <pt x="222" y="299" on="0"/>
        <pt x="153" y="327" on="0"/>
        <pt x="90" y="370" on="0"/>
        <pt x="60" y="433" on="0"/>
        <pt x="60" y="475" on="1"/>
        <pt x="60" y="564" on="0"/>
        <pt x="188" y="671" on="0"/>
        <pt x="390" y="671" on="0"/>
        <pt x="517" y="561" on="0"/>
        <pt x="517" y="462" on="1"/>
        <pt x="412" y="462" on="1"/>
        <pt x="411" y="520" on="0"/>
        <pt x="348" y="577" on="0"/>
        <pt x="292" y="577" on="1"/>
        <pt x="239" y="577" on="0"/>
        <pt x="177" y="528" on="0"/>
        <pt x="177" y="483" on="1"/>
        <pt x="177" y="464" on="0"/>
        <pt x="193" y="434" on="0"/>
        <pt x="213" y="415" on="0"/>
        <pt x="258" y="395" on="0"/>
        <pt x="292" y="384" on="0"/>
        <pt x="325" y="375" on="1"/>
        <pt x="371" y="362" on="0"/>
        <pt x="436" y="336" on="0"/>
        <pt x="500" y="292" on="0"/>
        <pt x="533" y="225" on="0"/>
        <pt x="533" y="182" on="1"/>
        <pt x="533" y="92" on="0"/>
        <pt x="400" y="-11" on="0"/>
      </contour>
    </TTGlyph>
    <TTGlyph name="S.swsh" xMin="46" yMin="-110" xMax="589" yMax="670">
      <contour>
        <pt x="312" y="-110" on="1"/>
        <pt x="188" y="-110" on="0"/>
        <pt x="46" y="1" on="0"/>
        <pt x="46" y="93" on="1"/>
        <pt x="46" y="120" on="0"/>
        <pt x="50" y="146" on="1"/>
        <pt x="159" y="146" on="1"/>
        <pt x="155" y="126" on="0"/>
        <pt x="155" y="107" on="1"/>
        <pt x="155" y="-8" on="0"/>
        <pt x="471" y="-8" on="0"/>
        <pt x="471" y="104" on="1"/>
        <pt x="471" y="156" on="0"/>
        <pt x="398" y="202" on="0"/>
        <pt x="302" y="228" on="1"/>
        <pt x="254" y="241" on="0"/>
        <pt x="200" y="258" on="0"/>
        <pt x="126" y="294" on="0"/>
        <pt x="87" y="335" on="0"/>
        <pt x="58" y="401" on="0"/>
        <pt x="58" y="444" on="1"/>
        <pt x="58" y="548" on="0"/>
        <pt x="203" y="670" on="0"/>
        <pt x="443" y="670" on="0"/>
        <pt x="577" y="546" on="0"/>
        <pt x="577" y="434" on="1"/>
        <pt x="464" y="434" on="1"/>
        <pt x="463" y="568" on="0"/>
        <pt x="328" y="568" on="1"/>
        <pt x="258" y="568" on="0"/>
        <pt x="183" y="508" on="0"/>
        <pt x="183" y="454" on="1"/>
        <pt x="183" y="430" on="0"/>
        <pt x="200" y="393" on="0"/>
        <pt x="223" y="370" on="0"/>
        <pt x="276" y="346" on="0"/>
        <pt x="316" y="334" on="0"/>
        <pt x="357" y="322" on="1"/>
        <pt x="396" y="311" on="0"/>
        <pt x="443" y="296" on="0"/>
        <pt x="505" y="271" on="0"/>
        <pt x="540" y="242" on="0"/>
        <pt x="574" y="202" on="0"/>
        <pt x="589" y="149" on="0"/>
        <pt x="589" y="115" on="1"/>
        <pt x="589" y="10" on="0"/>
        <pt x="439" y="-110" on="0"/>
      </contour>
    </TTGlyph>
    <TTGlyph name="Sacute" xMin="51" yMin="-11" xMax="533" yMax="887">
      <contour>
        <pt x="293" y="887" on="1"/>
        <pt x="406" y="887" on="1"/>
        <pt x="343" y="734" on="1"/>
        <pt x="237" y="734" on="1"/>
      </contour>
      <contour>
        <pt x="293" y="-11" on="1"/>
        <pt x="182" y="-11" on="0"/>
        <pt x="51" y="94" on="0"/>
        <pt x="51" y="165" on="1"/>
        <pt x="51" y="190" on="0"/>
        <pt x="54" y="211" on="1"/>
        <pt x="152" y="211" on="1"/>
        <pt x="152" y="177" on="1"/>
        <pt x="152" y="142" on="0"/>
        <pt x="225" y="81" on="0"/>
        <pt x="291" y="81" on="1"/>
        <pt x="351" y="81" on="0"/>
        <pt x="416" y="132" on="0"/>
        <pt x="416" y="173" on="1"/>
        <pt x="416" y="198" on="0"/>
        <pt x="392" y="236" on="0"/>
        <pt x="343" y="262" on="0"/>
        <pt x="306" y="275" on="0"/>
        <pt x="274" y="284" on="1"/>
        <pt x="222" y="299" on="0"/>
        <pt x="153" y="327" on="0"/>
        <pt x="90" y="370" on="0"/>
        <pt x="60" y="433" on="0"/>
        <pt x="60" y="475" on="1"/>
        <pt x="60" y="564" on="0"/>
        <pt x="188" y="671" on="0"/>
        <pt x="390" y="671" on="0"/>
        <pt x="517" y="561" on="0"/>
        <pt x="517" y="462" on="1"/>
        <pt x="412" y="462" on="1"/>
        <pt x="411" y="520" on="0"/>
        <pt x="348" y="577" on="0"/>
        <pt x="292" y="577" on="1"/>
        <pt x="239" y="577" on="0"/>
        <pt x="177" y="528" on="0"/>
        <pt x="177" y="483" on="1"/>
        <pt x="177" y="464" on="0"/>
        <pt x="193" y="434" on="0"/>
        <pt x="213" y="415" on="0"/>
        <pt x="258" y="395" on="0"/>
        <pt x="292" y="384" on="0"/>
        <pt x="325" y="375" on="1"/>
        <pt x="371" y="362" on="0"/>
        <pt x="436" y="336" on="0"/>
        <pt x="500" y="292" on="0"/>
        <pt x="533" y="225" on="0"/>
        <pt x="533" y="182" on="1"/>
        <pt x="533" y="92" on="0"/>
        <pt x="400" y="-11" on="0"/>
      </contour>
    </TTGlyph>
    <TTGlyph name="Sacute.swsh" xMin="46" yMin="-110" xMax="589" yMax="887">
      <contour>
        <pt x="321" y="887" on="1"/>
        <pt x="434" y="887" on="1"/>
        <pt x="371" y="734" on="1"/>
        <pt x="265" y="734" on="1"/>
      </contour>
      <contour>
        <pt x="312" y="-110" on="1"/>
        <pt x="188" y="-110" on="0"/>
        <pt x="46" y="1" on="0"/>
        <pt x="46" y="93" on="1"/>
        <pt x="46" y="120" on="0"/>
        <pt x="50" y="146" on="1"/>
        <pt x="159" y="146" on="1"/>
        <pt x="155" y="126" on="0"/>
        <pt x="155" y="107" on="1"/>
        <pt x="155" y="-8" on="0"/>
        <pt x="471" y="-8" on="0"/>
        <pt x="471" y="104" on="1"/>
        <pt x="471" y="156" on="0"/>
        <pt x="398" y="202" on="0"/>
        <pt x="302" y="228" on="1"/>
        <pt x="254" y="241" on="0"/>
        <pt x="200" y="258" on="0"/>
        <pt x="126" y="294" on="0"/>
        <pt x="87" y="335" on="0"/>
        <pt x="58" y="401" on="0"/>
        <pt x="58" y="444" on="1"/>
        <pt x="58" y="548" on="0"/>
        <pt x="203" y="670" on="0"/>
        <pt x="443" y="670" on="0"/>
        <pt x="577" y="546" on="0"/>
        <pt x="577" y="434" on="1"/>
        <pt x="464" y="434" on="1"/>
        <pt x="463" y="568" on="0"/>
        <pt x="328" y="568" on="1"/>
        <pt x="258" y="568" on="0"/>
        <pt x="183" y="508" on="0"/>
        <pt x="183" y="454" on="1"/>
        <pt x="183" y="430" on="0"/>
        <pt x="200" y="393" on="0"/>
        <pt x="223" y="370" on="0"/>
        <pt x="276" y="346" on="0"/>
        <pt x="316" y="334" on="0"/>
        <pt x="357" y="322" on="1"/>
        <pt x="396" y="311" on="0"/>
        <pt x="443" y="296" on="0"/>
        <pt x="505" y="271" on="0"/>
        <pt x="540" y="242" on="0"/>
        <pt x="574" y="202" on="0"/>
        <pt x="589" y="149" on="0"/>
        <pt x="589" y="115" on="1"/>
        <pt x="589" y="10" on="0"/>
        <pt x="439" y="-110" on="0"/>
      </contour>
    </TTGlyph>
    <TTGlyph name="Scaron" xMin="51" yMin="-11" xMax="533" yMax="897">
      <contour>
        <pt x="464" y="897" on="1"/>
        <pt x="351" y="730" on="1"/>
        <pt x="228" y="730" on="1"/>
        <pt x="116" y="897" on="1"/>
        <pt x="215" y="897" on="1"/>
        <pt x="290" y="795" on="1"/>
        <pt x="364" y="897" on="1"/>
      </contour>
      <contour>
        <pt x="293" y="-11" on="1"/>
        <pt x="182" y="-11" on="0"/>
        <pt x="51" y="94" on="0"/>
        <pt x="51" y="165" on="1"/>
        <pt x="51" y="190" on="0"/>
        <pt x="54" y="211" on="1"/>
        <pt x="152" y="211" on="1"/>
        <pt x="152" y="177" on="1"/>
        <pt x="152" y="142" on="0"/>
        <pt x="225" y="81" on="0"/>
        <pt x="291" y="81" on="1"/>
        <pt x="351" y="81" on="0"/>
        <pt x="416" y="132" on="0"/>
        <pt x="416" y="173" on="1"/>
        <pt x="416" y="198" on="0"/>
        <pt x="392" y="236" on="0"/>
        <pt x="343" y="262" on="0"/>
        <pt x="306" y="275" on="0"/>
        <pt x="274" y="284" on="1"/>
        <pt x="222" y="299" on="0"/>
        <pt x="153" y="327" on="0"/>
        <pt x="90" y="370" on="0"/>
        <pt x="60" y="433" on="0"/>
        <pt x="60" y="475" on="1"/>
        <pt x="60" y="564" on="0"/>
        <pt x="188" y="671" on="0"/>
        <pt x="390" y="671" on="0"/>
        <pt x="517" y="561" on="0"/>
        <pt x="517" y="462" on="1"/>
        <pt x="412" y="462" on="1"/>
        <pt x="411" y="520" on="0"/>
        <pt x="348" y="577" on="0"/>
        <pt x="292" y="577" on="1"/>
        <pt x="239" y="577" on="0"/>
        <pt x="177" y="528" on="0"/>
        <pt x="177" y="483" on="1"/>
        <pt x="177" y="464" on="0"/>
        <pt x="193" y="434" on="0"/>
        <pt x="213" y="415" on="0"/>
        <pt x="258" y="395" on="0"/>
        <pt x="292" y="384" on="0"/>
        <pt x="325" y="375" on="1"/>
        <pt x="371" y="362" on="0"/>
        <pt x="436" y="336" on="0"/>
        <pt x="500" y="292" on="0"/>
        <pt x="533" y="225" on="0"/>
        <pt x="533" y="182" on="1"/>
        <pt x="533" y="92" on="0"/>
        <pt x="400" y="-11" on="0"/>
      </contour>
    </TTGlyph>
    <TTGlyph name="Scaron.swsh" xMin="46" yMin="-110" xMax="589" yMax="897">
      <contour>
        <pt x="493" y="897" on="1"/>
        <pt x="380" y="730" on="1"/>
        <pt x="257" y="730" on="1"/>
        <pt x="145" y="897" on="1"/>
        <pt x="244" y="897" on="1"/>
        <pt x="319" y="795" on="1"/>
        <pt x="393" y="897" on="1"/>
      </contour>
      <contour>
        <pt x="312" y="-110" on="1"/>
        <pt x="188" y="-110" on="0"/>
        <pt x="46" y="1" on="0"/>
        <pt x="46" y="93" on="1"/>
        <pt x="46" y="120" on="0"/>
        <pt x="50" y="146" on="1"/>
        <pt x="159" y="146" on="1"/>
        <pt x="155" y="126" on="0"/>
        <pt x="155" y="107" on="1"/>
        <pt x="155" y="-8" on="0"/>
        <pt x="471" y="-8" on="0"/>
        <pt x="471" y="104" on="1"/>
        <pt x="471" y="156" on="0"/>
        <pt x="398" y="202" on="0"/>
        <pt x="302" y="228" on="1"/>
        <pt x="254" y="241" on="0"/>
        <pt x="200" y="258" on="0"/>
        <pt x="126" y="294" on="0"/>
        <pt x="87" y="335" on="0"/>
        <pt x="58" y="401" on="0"/>
        <pt x="58" y="444" on="1"/>
        <pt x="58" y="548" on="0"/>
        <pt x="203" y="670" on="0"/>
        <pt x="443" y="670" on="0"/>
        <pt x="577" y="546" on="0"/>
        <pt x="577" y="434" on="1"/>
        <pt x="464" y="434" on="1"/>
        <pt x="463" y="568" on="0"/>
        <pt x="328" y="568" on="1"/>
        <pt x="258" y="568" on="0"/>
        <pt x="183" y="508" on="0"/>
        <pt x="183" y="454" on="1"/>
        <pt x="183" y="430" on="0"/>
        <pt x="200" y="393" on="0"/>
        <pt x="223" y="370" on="0"/>
        <pt x="276" y="346" on="0"/>
        <pt x="316" y="334" on="0"/>
        <pt x="357" y="322" on="1"/>
        <pt x="396" y="311" on="0"/>
        <pt x="443" y="296" on="0"/>
        <pt x="505" y="271" on="0"/>
        <pt x="540" y="242" on="0"/>
        <pt x="574" y="202" on="0"/>
        <pt x="589" y="149" on="0"/>
        <pt x="589" y="115" on="1"/>
        <pt x="589" y="10" on="0"/>
        <pt x="439" y="-110" on="0"/>
      </contour>
    </TTGlyph>
    <TTGlyph name="Scedilla.sc" xMin="28" yMin="-215" xMax="529" yMax="568">
      <contour>
        <pt x="529" y="166" on="1"/>
        <pt x="529" y="97" on="0"/>
        <pt x="435" y="10" on="0"/>
        <pt x="351" y="-3" on="1"/>
        <pt x="409" y="-43" on="0"/>
        <pt x="409" y="-103" on="1"/>
        <pt x="409" y="-153" on="0"/>
        <pt x="339" y="-215" on="0"/>
        <pt x="281" y="-215" on="1"/>
        <pt x="207" y="-215" on="0"/>
        <pt x="165" y="-178" on="1"/>
        <pt x="199" y="-112" on="1"/>
        <pt x="226" y="-141" on="0"/>
        <pt x="269" y="-141" on="1"/>
        <pt x="294" y="-141" on="0"/>
        <pt x="325" y="-112" on="0"/>
        <pt x="325" y="-87" on="1"/>
        <pt x="325" y="-61" on="0"/>
        <pt x="292" y="-25" on="0"/>
        <pt x="248" y="-7" on="1"/>
        <pt x="101" y="3" on="0"/>
        <pt x="28" y="97" on="1"/>
        <pt x="95" y="183" on="1"/>
        <pt x="154" y="88" on="0"/>
        <pt x="284" y="88" on="1"/>
        <pt x="342" y="88" on="0"/>
        <pt x="407" y="121" on="0"/>
        <pt x="407" y="152" on="1"/>
        <pt x="407" y="179" on="0"/>
        <pt x="353" y="210" on="0"/>
        <pt x="273" y="221" on="0"/>
        <pt x="178" y="242" on="0"/>
        <pt x="98" y="269" on="0"/>
        <pt x="44" y="337" on="0"/>
        <pt x="44" y="388" on="1"/>
        <pt x="44" y="471" on="0"/>
        <pt x="175" y="568" on="0"/>
        <pt x="289" y="568" on="1"/>
        <pt x="443" y="568" on="0"/>
        <pt x="526" y="464" on="1"/>
        <pt x="456" y="381" on="1"/>
        <pt x="427" y="428" on="0"/>
        <pt x="351" y="472" on="0"/>
        <pt x="290" y="472" on="1"/>
        <pt x="231" y="472" on="0"/>
        <pt x="167" y="435" on="0"/>
        <pt x="167" y="404" on="1"/>
        <pt x="167" y="378" on="0"/>
        <pt x="221" y="346" on="0"/>
        <pt x="301" y="334" on="0"/>
        <pt x="395" y="312" on="0"/>
        <pt x="475" y="285" on="0"/>
        <pt x="529" y="217" on="0"/>
      </contour>
    </TTGlyph>
    <TTGlyph name="Scedilla.swsh" xMin="46" yMin="-315" xMax="589" yMax="670">
      <contour>
        <pt x="589" y="115" on="1"/>
        <pt x="589" y="22" on="0"/>
        <pt x="469" y="-95" on="0"/>
        <pt x="364" y="-107" on="1"/>
        <pt x="416" y="-146" on="0"/>
        <pt x="416" y="-203" on="1"/>
        <pt x="416" y="-253" on="0"/>
        <pt x="346" y="-315" on="0"/>
        <pt x="288" y="-315" on="1"/>
        <pt x="214" y="-315" on="0"/>
        <pt x="172" y="-278" on="1"/>
        <pt x="206" y="-212" on="1"/>
        <pt x="233" y="-241" on="0"/>
        <pt x="276" y="-241" on="1"/>
        <pt x="301" y="-241" on="0"/>
        <pt x="332" y="-212" on="0"/>
        <pt x="332" y="-187" on="1"/>
        <pt x="332" y="-161" on="0"/>
        <pt x="298" y="-124" on="0"/>
        <pt x="254" y="-107" on="1"/>
        <pt x="156" y="-94" on="0"/>
        <pt x="46" y="12" on="0"/>
        <pt x="46" y="93" on="1"/>
        <pt x="46" y="120" on="0"/>
        <pt x="50" y="146" on="1"/>
        <pt x="159" y="146" on="1"/>
        <pt x="155" y="126" on="0"/>
        <pt x="155" y="107" on="1"/>
        <pt x="155" y="-8" on="0"/>
        <pt x="471" y="-8" on="0"/>
        <pt x="471" y="104" on="1"/>
        <pt x="471" y="156" on="0"/>
        <pt x="398" y="202" on="0"/>
        <pt x="302" y="228" on="1"/>
        <pt x="254" y="241" on="0"/>
        <pt x="200" y="258" on="0"/>
        <pt x="126" y="294" on="0"/>
        <pt x="87" y="335" on="0"/>
        <pt x="58" y="401" on="0"/>
        <pt x="58" y="444" on="1"/>
        <pt x="58" y="548" on="0"/>
        <pt x="203" y="670" on="0"/>
        <pt x="443" y="670" on="0"/>
        <pt x="577" y="546" on="0"/>
        <pt x="577" y="434" on="1"/>
        <pt x="464" y="434" on="1"/>
        <pt x="463" y="568" on="0"/>
        <pt x="328" y="568" on="1"/>
        <pt x="258" y="568" on="0"/>
        <pt x="183" y="508" on="0"/>
        <pt x="183" y="454" on="1"/>
        <pt x="183" y="430" on="0"/>
        <pt x="200" y="393" on="0"/>
        <pt x="223" y="370" on="0"/>
        <pt x="276" y="346" on="0"/>
        <pt x="316" y="334" on="0"/>
        <pt x="357" y="322" on="1"/>
        <pt x="396" y="311" on="0"/>
        <pt x="443" y="296" on="0"/>
        <pt x="505" y="271" on="0"/>
        <pt x="540" y="242" on="0"/>
        <pt x="574" y="202" on="0"/>
        <pt x="589" y="149" on="0"/>
      </contour>
    </TTGlyph>
    <TTGlyph name="Scommaaccent.sc" xMin="28" yMin="-239" xMax="529" yMax="568">
      <contour>
        <pt x="289" y="568" on="1"/>
        <pt x="443" y="568" on="0"/>
        <pt x="526" y="464" on="1"/>
        <pt x="456" y="381" on="1"/>
        <pt x="427" y="428" on="0"/>
        <pt x="351" y="472" on="0"/>
        <pt x="290" y="472" on="1"/>
        <pt x="231" y="472" on="0"/>
        <pt x="167" y="435" on="0"/>
        <pt x="167" y="404" on="1"/>
        <pt x="167" y="378" on="0"/>
        <pt x="221" y="346" on="0"/>
        <pt x="301" y="334" on="0"/>
        <pt x="395" y="312" on="0"/>
        <pt x="475" y="285" on="0"/>
        <pt x="529" y="217" on="0"/>
        <pt x="529" y="166" on="1"/>
        <pt x="529" y="83" on="0"/>
        <pt x="397" y="-8" on="0"/>
        <pt x="282" y="-8" on="1"/>
        <pt x="110" y="-8" on="0"/>
        <pt x="28" y="97" on="1"/>
        <pt x="95" y="183" on="1"/>
        <pt x="154" y="88" on="0"/>
        <pt x="284" y="88" on="1"/>
        <pt x="342" y="88" on="0"/>
        <pt x="407" y="121" on="0"/>
        <pt x="407" y="152" on="1"/>
        <pt x="407" y="179" on="0"/>
        <pt x="353" y="210" on="0"/>
        <pt x="273" y="221" on="0"/>
        <pt x="178" y="242" on="0"/>
        <pt x="98" y="269" on="0"/>
        <pt x="44" y="337" on="0"/>
        <pt x="44" y="388" on="1"/>
        <pt x="44" y="471" on="0"/>
        <pt x="175" y="568" on="0"/>
      </contour>
      <contour>
        <pt x="355" y="-69" on="1"/>
        <pt x="294" y="-239" on="1"/>
        <pt x="200" y="-239" on="1"/>
        <pt x="261" y="-69" on="1"/>
      </contour>
    </TTGlyph>
    <TTGlyph name="Scommaaccent.swsh" xMin="46" yMin="-339" xMax="589" yMax="670">
      <contour>
        <pt x="312" y="-110" on="1"/>
        <pt x="188" y="-110" on="0"/>
        <pt x="46" y="1" on="0"/>
        <pt x="46" y="93" on="1"/>
        <pt x="46" y="120" on="0"/>
        <pt x="50" y="146" on="1"/>
        <pt x="159" y="146" on="1"/>
        <pt x="155" y="126" on="0"/>
        <pt x="155" y="107" on="1"/>
        <pt x="155" y="-8" on="0"/>
        <pt x="471" y="-8" on="0"/>
        <pt x="471" y="104" on="1"/>
        <pt x="471" y="156" on="0"/>
        <pt x="398" y="202" on="0"/>
        <pt x="302" y="228" on="1"/>
        <pt x="254" y="241" on="0"/>
        <pt x="200" y="258" on="0"/>
        <pt x="126" y="294" on="0"/>
        <pt x="87" y="335" on="0"/>
        <pt x="58" y="401" on="0"/>
        <pt x="58" y="444" on="1"/>
        <pt x="58" y="548" on="0"/>
        <pt x="203" y="670" on="0"/>
        <pt x="443" y="670" on="0"/>
        <pt x="577" y="546" on="0"/>
        <pt x="577" y="434" on="1"/>
        <pt x="464" y="434" on="1"/>
        <pt x="463" y="568" on="0"/>
        <pt x="328" y="568" on="1"/>
        <pt x="258" y="568" on="0"/>
        <pt x="183" y="508" on="0"/>
        <pt x="183" y="454" on="1"/>
        <pt x="183" y="430" on="0"/>
        <pt x="200" y="393" on="0"/>
        <pt x="223" y="370" on="0"/>
        <pt x="276" y="346" on="0"/>
        <pt x="316" y="334" on="0"/>
        <pt x="357" y="322" on="1"/>
        <pt x="396" y="311" on="0"/>
        <pt x="443" y="296" on="0"/>
        <pt x="505" y="271" on="0"/>
        <pt x="540" y="242" on="0"/>
        <pt x="574" y="202" on="0"/>
        <pt x="589" y="149" on="0"/>
        <pt x="589" y="115" on="1"/>
        <pt x="589" y="10" on="0"/>
        <pt x="439" y="-110" on="0"/>
      </contour>
      <contour>
        <pt x="366" y="-169" on="1"/>
        <pt x="305" y="-339" on="1"/>
        <pt x="211" y="-339" on="1"/>
        <pt x="272" y="-169" on="1"/>
      </contour>
    </TTGlyph>
    <TTGlyph name="T" xMin="27" yMin="0" xMax="596" yMax="660">
      <contour>
        <pt x="596" y="660" on="1"/>
        <pt x="596" y="552" on="1"/>
        <pt x="372" y="552" on="1"/>
        <pt x="372" y="0" on="1"/>
        <pt x="251" y="0" on="1"/>
        <pt x="251" y="552" on="1"/>
        <pt x="27" y="552" on="1"/>
        <pt x="27" y="660" on="1"/>
        <pt x="372" y="660" on="1"/>
      </contour>
    </TTGlyph>
    <TTGlyph name="T.swsh" xMin="3" yMin="0" xMax="709" yMax="660">
      <contour>
        <pt x="709" y="660" on="1"/>
        <pt x="709" y="559" on="1"/>
        <pt x="486" y="559" on="1"/>
        <pt x="486" y="0" on="1"/>
        <pt x="365" y="0" on="1"/>
        <pt x="365" y="559" on="1"/>
        <pt x="242" y="559" on="1"/>
        <pt x="116" y="559" on="0"/>
        <pt x="116" y="467" on="1"/>
        <pt x="116" y="427" on="0"/>
        <pt x="170" y="372" on="0"/>
        <pt x="217" y="365" on="1"/>
        <pt x="177" y="278" on="1"/>
        <pt x="102" y="287" on="0"/>
        <pt x="3" y="390" on="0"/>
        <pt x="3" y="469" on="1"/>
        <pt x="3" y="559" on="0"/>
        <pt x="122" y="660" on="0"/>
        <pt x="227" y="660" on="1"/>
        <pt x="365" y="660" on="1"/>
        <pt x="486" y="660" on="1"/>
      </contour>
    </TTGlyph>
    <TTGlyph name="Tcaron" xMin="27" yMin="0" xMax="596" yMax="897">
      <contour>
        <pt x="371" y="730" on="1"/>
        <pt x="248" y="730" on="1"/>
        <pt x="136" y="897" on="1"/>
        <pt x="235" y="897" on="1"/>
        <pt x="310" y="795" on="1"/>
        <pt x="384" y="897" on="1"/>
        <pt x="484" y="897" on="1"/>
      </contour>
      <contour>
        <pt x="596" y="660" on="1"/>
        <pt x="596" y="552" on="1"/>
        <pt x="372" y="552" on="1"/>
        <pt x="372" y="0" on="1"/>
        <pt x="251" y="0" on="1"/>
        <pt x="251" y="552" on="1"/>
        <pt x="27" y="552" on="1"/>
        <pt x="27" y="660" on="1"/>
        <pt x="372" y="660" on="1"/>
      </contour>
    </TTGlyph>
</ttFont>
